<?xml version="1.0" encoding="utf-8"?>
<!-- Generator: Adobe Illustrator 23.0.2, SVG Export Plug-In . SVG Version: 6.00 Build 0)  -->
<svg version="1.1" xmlns="http://www.w3.org/2000/svg" xmlns:xlink="http://www.w3.org/1999/xlink" x="0px" y="0px"
	 viewBox="0 0 1200 240.0980072" style="enable-background:new 0 0 1200 240.0980072;" xml:space="preserve">
<style type="text/css">
	.st0{display:none;}
	.st1{display:inline;fill:#0000FF;}
	.st2{fill:#FFFFFF;}
	.st3{fill:none;}
	.st4{fill:none;stroke:#FFFFFF;stroke-width:2;stroke-linecap:round;stroke-linejoin:round;stroke-miterlimit:10;}
</style>
<g id="ground" class="st0">
	<rect x="0" y="-24.9510002" class="st1" width="1215" height="282"/>
</g>
<g id="Layer_1">
	<g>
		<path class="st2" d="M633.4107666,135.9190369c-1.8848877-2.7001801-3.9072266-4.3343506-4.0827637-6.1473236
			c-0.256897-2.6537704-0.0385742-6.0805283,1.4594116-8.0511551c6.425415-8.4530029,15.1365967-14.3227539,24.3474121-19.3659973
			c6.333374-3.4676971,12.7927856-6.7504807,19.3946533-9.6656418c4.137207-1.8268051,8.4589844-0.4230576,11.3616333,2.6151199
			c2.8621826,2.9957962,2.1924438,7.0356293,0.7495117,10.8795166
			c-3.8527832,10.2633362-10.3479614,18.280899-19.6779785,24.0356827
			c-1.0600586,0.6538239-1.9401855,1.5993805-3.3444214,2.7802277c8.5401611,0,16.4195557-0.0270386,24.298584,0.0141602
			c2.8986816,0.0151672,5.8026123,0.3565674,8.6930542,0.2496033c3.1159668-0.1153412,6.244751-0.4228973,9.3225098-0.9252319
			c8.4823608-1.3843994,16.9656372-2.7869415,25.4024658-4.4207687c9.4986572-1.8394699,18.7523804-4.3625641,26.6986084-10.358017
			c2.3981323-1.8093567,5.2293701-3.0446625,7.8621826-4.542923c0.399292,0.4367218,0.798584,0.8734512,1.197876,1.3101807
			c-1.1555786,1.7336121-2.2906494,3.4813156-3.4716187,5.1974564c-1.7003174,2.4709473-3.6761475,4.7884674-5.0897217,7.4111252
			c-1.6226196,3.0103836-0.2791748,5.0294113,2.6627197,6.6772537c5.7232666,3.2057648,11.8728638,3.1549225,18.116394,3.2683868
			c19.4029541,0.3526611,38.5610962-1.8927765,57.6754761-4.9185333c8.0570679-1.2754059,16.1865845-2.1064758,24.2961426-3.0242004
			c1.2498779-0.1414337,2.5700684,0.3398132,4.4042969,0.6151123c-2.4881592,2.9526825-4.4385986,5.267395-6.3890381,7.5821075
			c0.2089844,0.4514923,0.4179688,0.9029694,0.6269531,1.3544464c3.7288818-0.208313,7.5592041,0.0590973,11.1679077-0.7117157
			c12.1286011-2.5906677,24.1717529-5.579483,36.2677002-8.3274536c1.2386475-0.2813568,2.6124268,0.0320892,3.9234619,0.0695343
			c-0.6647949,1.4344025-1.2485962,2.9140778-2.017395,4.2903137c-0.7421265,1.3281555-1.6751099,2.5495911-2.5241699,3.8179016
			c1.4481812,0.6549988,2.8837891,1.8452759,4.3465576,1.8794403c10.7123413,0.2503357,20.9152222-2.0856323,30.4782715-6.9076996
			c3.3840332-1.7064056,6.4448853-4.0478821,9.805542-5.8091278c1.9453125-1.0194931,3.8532715-1.1731873,4.003479,2.1245575
			c0.177002,3.8834686,2.5319214,6.3493347,6.1501465,7.3956146c9.6195068,2.7817535,19.2941284,2.8995514,28.9967651,0.3059082
			c2.526001-0.6752167,3.9954834-1.5855103,2.9432983-4.6894073c-0.9741211-2.8730316-0.0415039-5.6575317,2.4671021-7.4302826
			c3.0009155-2.1205292,6.1899414-3.9922333,9.3918457-5.8050003c2.5764771-1.4586563,3.9417725,0.1314392,3.9790649,2.4386902
			c0.0500488,3.1041183-0.4963379,6.2178497-0.8619995,10.1341934c3.6309204,0.9079285,7.7938232,2.8074036,11.9585571,2.8115234
			c8.6728516,0.0085754,17.3483887-0.9607239,26.0185547-1.5872498c1.9688721-0.1422729,2.8825684-1.0280914,2.84729-3.3524323
			c-0.0795898-5.2537079,0.0056152-10.5438156,0.5415039-15.7659988
			c1.1791992-11.4928741,7.8088379-18.7847672,18.5272217-22.4257812c1.5899658-0.5400848,3.6635742-0.1362,5.3939209,0.3026276
			c6.7261963,1.7059174,10.493042,6.7924042,12.1162109,12.903389c1.6593018,6.2466049-1.6766357,11.6075897-6.505127,15.2363129
			c-5.8747559,4.4148712-12.4121094,7.9417038-18.5787354,11.9809265c-0.9521484,0.6236115-2.1114502,1.9770203-2.0479736,2.9169159
			c0.2263184,3.3592072,0.9381104,6.6856995,1.5878906,10.793808c4.5736084-2.9305267,8.7429199-5.5746002,12.8845215-8.2614594
			c8.4436035-5.4777832,16.9063721-10.9271088,25.2952881-16.487854c5.7080078-3.7837524,11.2810059-7.770752,16.9698486-11.5840607
			c1.0688477-0.7163315,2.3852539-1.3637772,3.6156006-1.4190598c0.6761475-0.0303879,2.1246338,1.3991699,2.0130615,1.901123
			c-1.9841309,8.9261398,2.8105469,13.8397522,9.9643555,17.569252c9.5001221,4.9528351,19.4697266,5.8968964,29.8291016,3.7549286
			c1.1842041-0.2448578,2.2832031-0.902832,4.644043-1.8699951c-1.4229736-0.7080612-1.9208984-0.90905-2.3713379-1.1868896
			c-8.4116211-5.1892395-8.6124268-11.5107727-0.6925049-18.0593948c3.9055176-3.2292862,8.6387939-5.6112061,13.3054199-7.6831818
			c1.640625-0.728447,4.4506836,0.1398392,6.2825928,1.1141739c2.9954834,1.5932312,4.9008789,8.6138382,3.3597412,11.6506577
			c-1.8217773,3.58992-3.9764404,7.0109329-6.137207,10.7666321c6.2628174,2.4484787,13.1835938,3.1103439,20.34375,2.1944351
			c0.1037598,0.3932114,0.2076416,0.786438,0.3114014,1.179657c-2.038208,0.8730011-4.0073242,2.0080719-6.1281738,2.5681915
			c-5.5831299,1.4744873-11.196167,1.5288239-16.9075928,0.2881317c-4.9786377-1.081543-9.7844238-0.0382538-14.708252,1.4737701
			c-13.4206543,4.1212769-26.9979248,4.71875-40.1610107-1.0414734c-4.7595215-2.0827637-8.6950684-5.5558929-10.7313232-10.6603088
			c-0.4335938-1.0868454-0.8894043-2.1647873-1.598999-3.8877411c-4.9958496,2.6919861-9.7758789,5.1590576-14.4459229,7.8195114
			c-3.5537109,2.0244598-6.9433594,4.334465-10.447998,6.4475021c-8.4760742,5.1103363-16.7070312,10.5457764-23.4407959,17.9133911
			c-0.7873535,0.8614197-1.6400146,2.3332062-1.4431152,3.3182983c1.6171875,8.0910187-0.2283936,15.9082794-2.2331543,23.5292206
			c-2.3354492,8.8772888-4.6662598,18.0048676-8.802124,26.1030121
			c-6.7984619,13.3115692-13.3693848,27.1506348-27.3375244,35.1179962
			c-6.9447632,3.9611511-10.9135742,3.8744507-11.8686523-5.9536285
			c-1.2650757-13.0183411,1.2039185-25.6362457,7.7227173-37.4178772
			c8.5049438-15.3714447,19.4840698-28.6111298,32.3322144-40.4533844c1.0323486-0.9515686,1.8334961-2.7578583,1.800415-4.1445312
			c-0.0874023-3.6680908-0.5268555-7.3519745-1.1442871-10.9753418c-0.4686279-2.7498322-2.770874-2.6576691-4.7219238-1.9907532
			c-13.2966309,4.5450439-26.8978882,3.8787994-40.3935547,1.8004608
			c-4.4294434-0.6821136-7.8183594,0.4253845-11.6921387,1.7593384
			c-14.2518921,4.9076385-28.7424316,5.5239258-43.3192749,1.3803101c-0.8153076-0.23172-1.5643921-0.9697723-2.1664429-1.6333923
			c-3.4818726-3.8379364-7.4356079-3.3101807-11.5646362-1.3444214c-6.6152344,3.1493378-13.4505005,5.317749-20.8719482,5.65625
			c-5.2545166,0.2396393-10.4746704,1.1560364-15.7255859,1.5781403c-4.2454834,0.3412628-5.9229126-2.2817535-4.9169922-8.3184052
			c-3.104187,0.5659027-5.9765015,1.0513611-8.8330078,1.6171112c-10.5976562,2.0989838-21.1629028,4.3848572-31.809082,6.1967621
			c-1.9928589,0.3391724-4.3018188-1.1791992-6.4649658-1.8403625c0.5717773-1.7649689,1.1231689-3.5368958,1.723999-5.2918701
			c0.2839355-0.8291016,0.6626587-1.6257629,1.1914673-2.9037628c-3.9833374,0.3671722-7.5216064,0.54599-11.0149536,1.0415802
			c-13.1726685,1.8687744-26.2790527,4.416626-39.5095825,5.6028137
			c-11.9197388,1.0686798-23.9718018,0.9480743-35.9607544,0.8348846
			c-5.9074707-0.0557861-11.7593994-1.0902252-16.6379395-5.3608398c-0.9882812-0.8650665-4.0297852,0.1318054-5.9040527,0.8479156
			c-7.3426514,2.8055878-14.5482178,5.9770355-21.9349976,8.6528625c-1.1503296,0.4167175-2.9777832-1.0356903-4.4921265-1.6237946
			c0.5774536-1.2460175,0.8639526-2.7958221,1.7875366-3.6805267c2.6600952-2.5479736,5.5772095-4.8274841,8.882019-7.6263123
			c-6.079895,0.5878906-11.5974731,1.0473633-17.0968018,1.6689911
			c-10.5977783,1.1979523-21.1576538,2.8847656-31.7850342,3.6244965
			c-10.0907593,0.7023773-20.2608643,0.2033081-30.3696289,0.7357178c-4.569458,0.2406769-9.0375366,2.0503082-13.6166382,2.5381927
			c-10.9638672,1.1681824-21.5682373,0.202301-30.8002319-6.7759399c-0.374939-0.283432-0.9649048-0.2823792-2.5913086-0.7190247
			c1.1029053,4.8708038,2.057251,9.0859375,3.0349121,13.4037933c-0.0610352,0.1334076-0.1035767,0.45224-0.2832642,0.5838623
			c-1.7159424,1.2571411-3.4549561,2.4826508-5.187439,3.7172241c-1.8370361-3.1444092-4.421936-6.0945892-5.3031006-9.4872742
			c-0.9005737-3.4673309-0.8293457-7.5442963,0.0488281-11.0452728c2.1107788-8.4154587,4.6884766-16.7382965,7.5352783-24.9397202
			c6.6613159-19.1906281,21.730957-31.860611,35.8879395-45.1075859
			c9.8413086-9.2087593,19.8375244-18.3200531,30.402771-26.6670303c9.7457886-7.6995316,20.137085-14.64534,30.6329956-21.3105488
			c7.5547485-4.7974691,15.7407227-8.6031971,23.6660767-12.8118362c1.1637573-0.6179715,2.4147339-1.3160475,3.6776123-1.4384735
			c1.4486694-0.1404427,2.9555054,0.3193368,4.4370728,0.5183678c-0.3242188,1.7009565-0.1035767,3.866261-1.0797119,5.0117135
			c-2.4642334,2.8917012-5.4066772,5.3926005-8.2667236,7.9269023c-6.1191406,5.4223185-12.2435913,10.842124-18.4830933,16.1244316
			c-8.1513062,6.9007053-16.2836304,13.8354855-24.6716309,20.4413815
			c-7.4459229,5.8639793-15.4541016,11.0223465-22.8094482,16.990818
			c-10.0444336,8.1505051-19.854126,16.6084976-29.463501,25.2685394
			c-4.3571777,3.9267731-8.102417,8.5611725-11.9257812,13.0447159c-5.2624512,6.1710587-4.9979858,15.219635,1.3242188,22.0129929
			C618.2786255,133.1009979,624.9655762,135.3044128,633.4107666,135.9190369z M1051.2510986,158.2084045
			c-0.3740234-0.2640076-0.7480469-0.5280151-1.1220703-0.7920227c-4.12854,5.0276337-8.0976562,10.1971283-12.4160156,15.0560608
			c-12.3824463,13.932251-19.8551025,30.0919952-22.4959717,48.5080109
			c-0.6330566,4.4139252,0.0956421,8.6969757,1.8786621,12.7443085c1.2285156,2.7886047,4.0695801,3.49617,5.6422119,1.2425995
			c5.1901855-7.4377136,10.6224365-14.7845306,14.9569092-22.7154999
			c3.2501221-5.9470215,5.0588379-12.7028046,7.3195801-19.1648865
			C1048.9605713,181.8075714,1051.2888184,170.2141418,1051.2510986,158.2084045z M715.4177856,11.1128244
			c-0.2924194-0.4907942-0.5848389-0.9815893-0.8773193-1.4723835
			c-16.6395874,6.3720598-32.0152588,15.7296171-45.3097534,27.1326065
			c-19.2124634,16.4789009-39.0770264,32.7843857-52.7028809,54.7940063
			c0.6687012,0.1567459,1.0375977,0.0213165,1.3239746-0.2144012c11.4326782-9.4093933,22.6000366-19.16436,34.3466797-28.1632652
			c16.0722046-12.312542,32.8877563-23.6672668,47.8841553-37.3497162
			C705.3164062,21.0644855,710.3129272,16.0292892,715.4177856,11.1128244z M653.2718506,132.8212891
			c0.1602783-0.2899628,0.3206177-0.5799255,0.480896-0.8698883c0.7884521-0.088562,1.6508789,0.0005341,2.354248-0.2923279
			c10.6192627-4.4214096,19.1824951-11.039772,22.5514526-22.5744629c0.6478271-2.2177734,0.4983521-5.5013657-0.7496338-7.2416229
			c-1.800293-2.5103073-5.2383423-3.1635437-8.3041382-1.7349625c-3.9729004,1.8512573-8.4789429,1.7343674-12.0831299,5.4557266
			c-4.2011108,4.3376236-10.0522461,7.0384216-14.9951172,10.7084351c-3.9676514,2.9459-4.288269,7.4182816-0.394165,10.4047699
			C645.4592896,129.2286072,649.5300903,130.8104858,653.2718506,132.8212891z M1058.0037842,128.4554596
			c0.4855957,0.3119507,0.9711914,0.6238861,1.4567871,0.9358215c4.7397461-3.127533,9.9716797-5.7238541,14.0812988-9.5314865
			c4.1387939-3.8346024,6.9794922-9.0155106,3.1379395-14.8638763c-1.4932861-2.2730637-3.5610352-4.2172928-5.5738525-6.0890656
			c-3.1335449-2.9141617-6.5096436-2.7742844-8.8110352,0.8273544c-1.6363525,2.5608902-2.4224854,5.7173309-3.2991943,8.6930389
			c-0.5911865,2.006485-0.8867188,4.1550217-0.9493408,6.2509613
			C1057.9090576,119.2669296,1058.0037842,123.8626175,1058.0037842,128.4554596z M1166.3808594,112.1088409
			c-0.5142822,4.7705002,3.7731934,11.3554153,6.5853271,11.2819595c3.7862549-0.0988922,4.3995361-3.3865509,4.9058838-6.1770248
			c0.7449951-4.1052856-2.5020752-9.9131165-5.3726807-9.2705078
			C1169.9709473,108.5092697,1167.8789062,111.0241928,1166.3808594,112.1088409z M746.9266968,129.8907776
			c-0.2306519-0.3978271-0.4613647-0.795639-0.6920776-1.1934814c-5.6157227,2.9219818-11.2315063,5.8439636-16.847229,8.7659454
			C733.40802,139.093689,745.263855,133.2190094,746.9266968,129.8907776z"/>
		<path class="st2" d="M176.5847778,134.0458221c2.1608887,0.1975861,4.4466095,0.9488373,6.4605713,0.4947357
			c7.7797699-1.7542572,14.9738464-4.9666901,21.4465332-9.7142639c3.8300171-2.8092346,7.6049957-5.725235,11.6391907-8.2130356
			c2.585968-1.5947495,3.8387146-0.5392151,3.6302338,2.5080109c-0.3085632,4.5096588,3.1280365,9.4162979,7.6938782,10.2535782
			c13.4246826,2.4618073,26.2512207,0.4621124,38.438736-5.68396c2.0004578-1.0088196,3.9866333-2.1009369,6.093689-2.8191452
			c0.9886169-0.3369675,2.5960388-0.2644577,3.2771606,0.3446884c0.5509338,0.4926682,0.5612488,2.353653,0.0584412,3.1013336
			c-1.0361023,1.5407333-2.4188843,2.9697418-3.9484253,4.0253601c-1.7702026,1.2217255-3.8516235,1.9924469-5.7979431,2.9589996
			c0.0971985,0.4599609,0.194397,0.9199371,0.2915955,1.3798981c2.1770325-0.1871338,4.5423584,0.1085815,6.4953003-0.6530914
			c5.5656738-2.1706696,9.5194702-5.9673615,12.5638123-11.4078293c4.1673279-7.4473419,9.2826538-14.4028168,14.3881531-21.2744827
			c4.1660461-5.6071701,8.7963867-10.8875809,13.4691162-16.0899353c1.5722961-1.7505417,3.9075317-2.8157806,5.8940735-4.1942368
			c0.3946533,0.2440109,0.7892761,0.4880371,1.1838989,0.7320557c-0.2782593,1.3647308-0.2489624,2.8974686-0.887146,4.0655746
			c-3.0086365,5.5069885-6.0660095,10.9976654-9.3831482,16.3214264c-1.6518555,2.6510391-3.911499,4.9212112-5.8743286,7.3811417
			c-2.7035522,3.3882141-5.1279297,7.0442429-8.1338806,10.1364288c-5.6130066,5.7739792-6.2366028,11.2194443-0.4389038,16.2600327
			c1.8939514,1.6466064,5.680542,1.7737579,8.5206299,1.5532837c9.0822754-0.7050781,15.8379822-6.1256409,22.3139648-11.9257507
			c0.9732666-0.8716812,2.0355835-1.6806641,3.1618347-2.3386383c5.627594-3.2877502,6.2327881-3.1531677,8.7144165,2.687027
			c2.5838318,6.080658,7.8041382,9.1579285,13.5481873,10.6390991c7.9068909,2.0388947,16.0961914,3.1183167,24.3483582,1.7877502
			c0.7673645-0.1237335,1.5067444-0.4208984,2.3226318-0.6558075c-0.8332825-5.0572815,0.0905457-9.1295547,4.1495056-12.7389679
			c5.0713806-4.5096817,9.8494873-9.208992,16.6419067-11.0288849c6.203949-1.6622162,10.6573181,2.2975082,8.9663696,8.6397781
			c-0.8693848,3.2606964-3.3861084,6.0954437-5.2395935,9.0721207c-0.5323486,0.8549042-1.3477783,1.5335541-2.5845032,2.9034729
			c2.1251831,0.6148224,3.7088928,1.541626,5.2196655,1.4350281c10.9256897-0.7708282,22.3883667,0.290741,31.0698547-8.7072754
			c1.030365-1.067894,2.7593689-1.7391129,4.2630615-1.9802704c1.0972595-0.1759949,3.0690308,0.324707,3.4284058,1.0944748
			c2.4338074,5.2134933,6.778717,6.1236343,11.8600159,6.0400772c6.3236389-0.1039886,12.8019714,0.8946686,18.2837219-3.5785065
			c1.5204773-1.2407303,3.2351074-2.2518845,4.9019165-3.302948c2.2769165-1.4357681,3.9806519-0.8707886,5.161377,1.5456009
			c3.6427002,7.4550858,10.4859924,8.6916275,17.8045654,8.066246c3.2477417-0.2775116,6.715332-0.7785645,9.5690002-2.2060089
			c4.1279297-2.0648041,6.3796997-6.2182999,6.7689209-10.6779556c0.4171753-4.7806702,3.0843506-7.0182266,6.6538086-8.5061951
			c2.3890381,1.0473328,4.5500488,1.8612671,6.5698242,2.9395981c0.9317627,0.497406,2.3643188,1.7578735,2.2110596,2.2419434
			c-0.3487549,1.100975-1.3696899,2.372612-2.4240723,2.7784729c-1.6699219,0.6428299-3.5908203,0.6337891-5.4537354,0.9076691
			c-2.4865723,4.6107788-5.961792,8.2471771-10.2422485,11.5709686c-7.7575378,6.0238495-16.3641052,8.3616638-25.8381653,7.8202667
			c-5.0803833-0.2902832-10.2231445-0.9497833-13.9479675-5.4411011c-0.7423401-0.89505-3.5062561-1.1024017-4.717804-0.4590149
			c-7.8730774,4.1808929-16.33255,4.2452393-24.7594604,3.5249786c-4.2989197-0.3674316-8.4740295-2.1844482-14.1139526-3.7331085
			c-11.5112305,6.6049042-25.8399353,8.0722046-40.4532166,6.8389435
			c-5.2816162-0.4457092-10.0779419,0.1133728-15.1589355,1.3121643
			c-10.7358398,2.532959-21.6404114,2.3110504-32.4208679-0.0729218
			c-5.6865845-1.2575073-10.6201782-3.9756622-14.2657166-8.7050018c-0.9635925-1.2500763-2.0053101-2.4399414-2.8317261-3.4402924
			c-4.6943665,2.5832367-8.9720154,4.5580139-12.8292542,7.1567688c-4.7015076,3.1676025-9.9127502,4.1121674-15.3101501,4.7321014
			c-2.6375122,0.3029327-5.3275452,1.1280975-7.8972778,0.8438873c-5.9096985-0.6535797-9.3349915-4.2858429-10.3892822-10.8272095
			c-3.1908264,1.5931244-6.1539001,3.1823273-9.2093811,4.5678406c-3.1882629,1.4456482-6.3729248,3.0318909-9.7250366,3.9528809
			c-5.281189,1.4510345-6.4813385,0.5436249-9.1891327-5.7918854c-4.3908539,0.7715607-8.8828125,1.5572357-13.3723755,2.3562012
			c-0.3886108,0.0691681-0.7629089,0.3317871-1.1416016,0.3270111c-8.1565552-0.1030884-16.5776825,2.2324829-24.2156372-2.6799011
			c-2.2249756-1.4309998-4.5471191-2.7108917-6.824707-4.0600433c0.5395203-0.7136078,1.0790253-1.4272156,1.6185455-2.1408234
			c-2.3916626,1.2313385-4.7340546,2.5722198-7.1840057,3.6738892c-8.046814,3.6183777-15.2943115,9.1629791-24.3742371,10.296814
			c-3.6558075,0.4565277-7.129364,0.730957-10.6302795-1.6241608c-2.5204315-1.6955414-2.126297-2.9415436-0.8641663-4.723526
			c3.6508789-5.1546478,7.3968658-10.2419968,11.0402069-15.401886c0.7041321-0.9972382,1.1122131-2.2034531,1.6568604-3.3132706
			c-1.2277985-0.3006973-2.4528198-0.8487167-3.6838531-0.8626022c-9.1350861-0.1031418-18.2713165-0.1182632-27.4072266-0.1246719
			c-7.1971741-0.0050507-14.3947449,0.0830765-21.5912476,0.0228424c-1.1374741-0.0095215-2.2941513-0.9020996-3.3991013-0.8186646
			c-1.3832092,0.1044312-3.3447495,0.3689728-3.982872,1.300209c-5.7454376,8.384613-11.1111755,17.0315552-16.9393692,25.3557281
			c-1.3937149,1.9906006-3.9321899,3.4496002-6.248497,4.4446716c-2.1064377,0.9049225-3.2318115-1.1719666-2.5526505-3.7033997
			c2.4563828-9.1557465,4.7785187-18.3478012,7.0937424-27.540657c0.2171021-0.8620224,0.0289459-1.8260956,0.0289459-3.28685
			c-6.6054382,4.1732788-12.6929932,8.3558121-19.093483,11.9867325
			c-10.4091187,5.904953-20.1914482,12.8783112-32.1108284,16.0867462
			c-10.1709824,2.7378082-20.1269722,5.1016388-30.7138157,3.381134
			c-7.6461592-1.2426147-13.5761251-5.0292664-17.3054981-11.7274628c-0.7947179-1.4273834-0.3105091-4.2676468,0.6290714-5.8279572
			c2.7836435-4.6226883,5.666101-9.3143158,9.2687092-13.2916794C21.923542,99.762825,35.5208244,89.2393723,50.2737236,80.2301178
			c2.9123421-1.7785034,6.1616287-3.0571899,9.3580322-4.3034439c2.9762192-1.1603851,5.2859001,0.9410019,4.4867897,4.1000061
			c-2.7266998,10.7787018-9.4823723,18.7629776-18.1781616,25.2233276
			c-1.1818161,0.8779831-3.2366295,0.5809021-4.8872261,0.8278961c-0.0474663-1.6187592-0.5585632-3.3982544-0.0626335-4.8286209
			c2.2205048-6.404335,5.9056129-11.7596588,12.1440926-14.936348c0.7843399-0.3993835,1.7652435-0.4127731,3.1173782-0.704895
			c-2.0590973-2.1473007-4.38834-1.5237122-6.2600021-0.4243546c-4.5541382,2.6749878-8.9515076,5.625267-13.3406487,8.5710373
			c-9.3148422,6.2516785-16.8455753,14.1555557-23.1439304,23.5093002
			c-3.9527121,5.8702164-0.8452816,13.244812,5.8689804,16.0040588c12.6073799,5.1809845,24.9225674,3.7733459,36.928627-1.4052887
			c8.8289757-3.8082275,17.4749641-8.1395416,25.8515663-12.8604584c5.025383-2.8322449,9.4974594-6.7172623,13.9430466-10.4562988
			c1.0814743-0.9095688,1.7570877-3.2494583,1.4569855-4.6894455c-1.2819901-6.1512375,1.2193298-12.7503662,6.661087-16.3251114
			c0.4425125-0.2907028,0.879303-0.6144257,1.3638382-0.8125458c1.8406906-0.7525864,3.699913-1.4598541,5.5522003-2.1840668
			c0.3307343,2.017662,0.7139511,4.0286942,0.9700089,6.0557938c0.1275482,1.009758,0.0221939,2.0489426,0.9762802,3.8902435
			c3.0030975-2.519928,6.2472458-4.8050537,8.9689255-7.5991211c14.3207932-14.7015839,28.3657608-29.6740074,42.797554-44.264492
			c8.8257751-8.9228325,18.1174469-17.3899765,27.324707-25.9271851c2.7714233-2.5697241,5.8531647-4.8557358,9.027771-6.9082499
			c0.9403839-0.6079865,2.6832733,0.0252981,4.0584717,0.0897923c-0.3013916,1.2995214-0.2890778,2.8027048-0.9719086,3.8545952
			c-1.2761536,1.9657907-2.88237,3.7372618-4.4792175,5.4717607
			c-12.3406982,13.4047298-24.7813873,26.7181911-37.0463867,40.1916428
			c-6.6732788,7.3308067-13.289505,14.7364922-19.518692,22.4420815
			c-6.1127319,7.5615387-11.7025452,15.5458221-17.6856689,23.5641251c4.843338,3.6568604,10.1206512,3.4292297,15.1031036,3.526001
			c10.8545074,0.2108383,21.7185974-0.0695877,32.5787506-0.1534653c4.1920166-0.0323715,8.3951874-0.2661591,12.5703278-0.0195084
			c1.6315918,0.096405,3.200119,1.2606583,4.7973785,1.9385376c-0.7480621,1.7277222-1.228775,3.6441803-2.2917023,5.149559
			c-4.0017853,5.6674805-8.1931763,11.2010651-12.3135376,16.7848053
			C176.1948547,133.0964661,176.3898315,133.5711517,176.5847778,134.0458221z M153.1725464,62.4396515
			c0.2118988,0.2196884,0.4237976,0.4393806,0.6356964,0.6590767c-3.9643402,3.2262306-8.1534424,6.2158852-11.8478699,9.7261696
			c-8.6173553,8.1878967-17.024498,16.5984192-25.4396133,24.996109c-1.1260681,1.1237335-1.9995575,2.624527-2.5432281,4.1138077
			c-0.1235199,0.3383865,1.7558517,2.0579681,2.463768,1.9140778c1.4587021-0.2964859,3.1037369-1.1235428,4.0515137-2.2530289
			c6.4539871-7.6912994,12.6980591-15.5582504,19.1079559-23.2871704
			C144.0435486,72.9517212,148.6430511,67.7247162,153.1725464,62.4396515z M399.8728638,122.602623
			c-0.8669739-0.6752319-2.2756042-2.5312653-4.0312195-2.9573364c-2.482605-0.6024857-9.0862122,4.8627625-8.1785889,6.377594
			c1.2058105,2.0126114,3.3146057,4.1577988,5.4555359,4.7651749
			C395.7631531,131.5382996,400.0206299,126.7096634,399.8728638,122.602623z M49.4034042,95.9509506
			c0.5036049,0.2782059,0.7850266,0.5166473,0.8605385,0.4633484c2.3226776-1.6393585,4.1138916-3.5714035,3.5849533-7.780632
			C52.0493774,91.5956802,50.7310486,93.7656403,49.4034042,95.9509506z"/>
		<path class="st2" d="M1027.5544434,104.5078278c1.5544434,7.3244934-4.7051392,17.0527725-11.6495972,19.3403549
			c0.2573242-2.438446,0.5009155-4.7463303,0.7440186-7.0512161c-4.7545776-1.2583542-4.9026489-1.8807907-1.3691406-5.7515488
			C1019.6339111,106.2758408,1022.161499,104.9068069,1027.5544434,104.5078278z"/>
		<path class="st2" d="M1151.1157227,66.945694c1.6199951-1.0632401,2.7738037-1.6586914,3.7337646-2.4806671
			c2.9981689-2.5669441,4.8374023-2.5429878,6.9393311,0.1324692c1.956665,2.4903793,2.1555176,4.5795059-0.7886963,6.5779114
			c-3.9127197,2.6557159-5.94104,2.599205-7.9221191-0.6532516
			C1152.4118652,69.4284592,1151.8416748,68.2763062,1151.1157227,66.945694z"/>
		<path class="st3" d="M1051.2510986,158.2084045c0.0377197,12.0057373-2.2905273,23.5991669-6.2366943,34.8785706
			c-2.2607422,6.4620819-4.069458,13.217865-7.3195801,19.1648865c-4.3344727,7.9309692-9.7667236,15.2777863-14.9569092,22.7154999
			c-1.5726318,2.2535706-4.4136963,1.5460052-5.6422119-1.2425995c-1.78302-4.0473328-2.5117188-8.3303833-1.8786621-12.7443085
			c2.6408691-18.4160156,10.1135254-34.5757599,22.4959717-48.5080109
			c4.3183594-4.8589325,8.2874756-10.0284271,12.4160156-15.0560608
			C1050.5030518,157.6803894,1050.8770752,157.944397,1051.2510986,158.2084045z"/>
		<path class="st3" d="M715.4177856,11.1128244c-5.1048584,4.9164648-10.1013794,9.9516611-15.335144,14.7268457
			c-14.9963989,13.6824512-31.8119507,25.0371761-47.8841553,37.3497162
			c-11.7466431,8.9989052-22.9140015,18.7538719-34.3466797,28.1632652
			c-0.286377,0.2357178-0.6552734,0.3711472-1.3239746,0.2144012
			c13.6258545-22.0096207,33.4904175-38.3151054,52.7028809-54.7940063
			c13.2944946-11.4029903,28.670166-20.7605476,45.3097534-27.1326065
			C714.8329468,10.1312351,715.1253662,10.6220303,715.4177856,11.1128244z"/>
		<path class="st3" d="M653.2718506,132.8212891c-3.7417603-2.0108032-7.812561-3.5926819-11.1395874-6.1443329
			c-3.894104-2.9864883-3.5734863-7.4588699,0.394165-10.4047699c4.9428711-3.6700134,10.7940063-6.3708115,14.9951172-10.7084351
			c3.604187-3.7213593,8.1102295-3.6044693,12.0831299-5.4557266c3.0657959-1.4285812,6.5038452-0.7753448,8.3041382,1.7349625
			c1.2479858,1.7402573,1.3974609,5.0238495,0.7496338,7.2416229
			c-3.3689575,11.5346909-11.9321899,18.1530533-22.5514526,22.5744629
			c-0.7033691,0.2928619-1.5657959,0.2037659-2.354248,0.2923279
			C653.5924683,132.2413635,653.4321289,132.5313263,653.2718506,132.8212891z"/>
		<path class="st3" d="M1058.0037842,128.4554596c0-4.5928421-0.0947266-9.18853,0.0426025-13.7772522
			c0.0626221-2.0959396,0.3581543-4.2444763,0.9493408-6.2509613c0.876709-2.975708,1.6628418-6.1321487,3.2991943-8.6930389
			c2.3013916-3.6016388,5.6774902-3.7415161,8.8110352-0.8273544c2.0128174,1.8717728,4.0805664,3.8160019,5.5738525,6.0890656
			c3.8415527,5.8483658,1.0008545,11.029274-3.1379395,14.8638763c-4.1096191,3.8076324-9.3415527,6.4039536-14.0812988,9.5314865
			C1058.9749756,129.0793457,1058.4893799,128.7674103,1058.0037842,128.4554596z"/>
		<path class="st3" d="M1166.3808594,112.1088409c1.4980469-1.0846481,3.5900879-3.5995712,6.1185303-4.1655731
			c2.8706055-0.6426086,6.1176758,5.1652222,5.3726807,9.2705078c-0.5063477,2.7904739-1.1196289,6.0781326-4.9058838,6.1770248
			C1170.1540527,123.4642563,1165.8665771,116.8793411,1166.3808594,112.1088409z"/>
		<path class="st3" d="M746.9266968,129.8907776c-1.6628418,3.3282318-13.5186768,9.2029114-17.5393066,7.572464
			c5.6157227-2.9219818,11.2315063-5.8439636,16.847229-8.7659454
			C746.465332,129.0951385,746.6960449,129.4929504,746.9266968,129.8907776z"/>
		<path class="st3" d="M153.1725464,62.4396515c-4.5294952,5.2850647-9.1289978,10.5120697-13.5717773,15.8690414
			c-6.4098969,7.72892-12.6539688,15.595871-19.1079559,23.2871704c-0.9477768,1.1294861-2.5928116,1.956543-4.0515137,2.2530289
			c-0.7079163,0.1438904-2.5872879-1.5756912-2.463768-1.9140778c0.5436707-1.4892807,1.41716-2.9900742,2.5432281-4.1138077
			c8.4151154-8.3976898,16.822258-16.8082123,25.4396133-24.996109c3.6944275-3.5102844,7.8835297-6.499939,11.8478699-9.7261696
			C153.596344,62.8790321,153.3844452,62.6593399,153.1725464,62.4396515z"/>
		<path class="st3" d="M399.8728638,122.602623c0.1477661,4.1070404-4.1097107,8.9356766-6.7542725,8.1854324
			c-2.1409302-0.6073761-4.2497253-2.7525635-5.4555359-4.7651749c-0.9076233-1.5148315,5.6959839-6.9800797,8.1785889-6.377594
			C397.5972595,120.0713577,399.0058899,121.9273911,399.8728638,122.602623z"/>
		<path class="st3" d="M49.4034042,95.9509506c1.3276443-2.1853104,2.6459732-4.3552704,4.4454918-7.3172836
			c0.5289383,4.2092285-1.2622757,6.1412735-3.5849533,7.780632C50.1884308,96.467598,49.9070091,96.2291565,49.4034042,95.9509506z
			"/>
		<path class="st4" d="M709.4676514,9.0111389c-11.6793823,7.1668682-23.4019165,14.2649002-35.0073242,21.5495167
			c-2.8603516,1.7954159-5.4396362,4.0855312-7.9763794,6.3413677
			c-10.394104,9.2431717-20.7376099,18.5435944-31.0560913,27.8712158c-1.456604,1.3167343-2.6723022,2.9000549-3.9994507,4.3599777
			"/>
		<path class="st4" d="M717.4308472,12.196414c-7.6977539,7.0341482-15.1270142,14.393899-23.1611328,21.0201073
			c-10.0700073,8.3053207-20.6727295,15.962101-30.979187,23.9839745
			c-12.3825684,9.6376534-24.6952515,19.3650246-37.038208,29.0535698"/>
		<path class="st4" d="M98.6911545,109.3473206c-11.4743805,9.4257278-24.2597122,16.7628174-37.4269791,23.4914093"/>
		<path class="st4" d="M55.6899452,134.8295288c-2.6543922,0.9290314-5.3087921,1.8580627-7.9631882,2.7871094"/>
		<path class="st4" d="M15.0776873,110.9399643c10.204627-12.2161484,23.0856209-21.0593262,36.6306648-29.0656357"/>
		<path class="st4" d="M659.6976929,134.8295135c1.7254028-1.7253571,3.4088135-3.4952545,5.1850586-5.1665497
			c3.4199829-3.217926,6.8925171-6.3800583,10.3432007-9.5653381"/>
		<path class="st4" d="M664.475647,99.5924072c-3.848877,2.0571518-7.7845459,3.9701843-11.5188599,6.2176208
			c-2.9255981,1.760704-5.6019897,3.9354782-8.3890991,5.9262772"/>
		<path class="st4" d="M695.5320435,135.4267578c3.7161865-0.4645233,7.4368286-0.8959503,11.147522-1.4007874
			c6.6394653-0.9032745,13.2650146-1.9177246,19.9174805-2.7078705c1.0003662-0.1188202,2.1149902,0.7243195,3.1766968,1.1224823"/>
		<path class="st4" d="M1039.1435547,215.2577209c-4.3057861,7.4341888-9.0180664,14.6238708-15.6367188,20.1767426
			c-1.6634521,1.3956299-4.6756592,1.1651154-7.0536499,1.7411499c-0.5621338,0.1361847-1.0664673,0.5117188-1.59729,0.7771606"/>
		<path class="st4" d="M1055.0699463,154.7374878c-4.8782959-0.3400574-7.9631348,3.0913849-10.6279297,6.0814514
			c-5.836792,6.5491791-11.0053711,13.6938171-16.4468994,20.5952301"/>
		<path class="st4" d="M842.0547485,133.8341217c-1.4599609,0.1990814-2.9198608,0.3981628-4.3797607,0.5972443"/>
		<path class="st4" d="M830.90625,135.4267731c-5.1760864,0.72995-10.3521118,1.4599152-15.5281982,2.1898804"/>
		<path class="st4" d="M797.0626831,139.6074371c-0.7962646-0.1327209-1.5925903-0.2654419-2.388916-0.3981628"/>
		<path class="st4" d="M1142.6650391,133.2368927c7.4573975,0.650589,14.878418,0.52211,21.8483887-2.5049744
			c1.5383301-0.6681061,2.4393311-2.8038025,3.6337891-4.2637177"/>
		<path class="st4" d="M1109.6177979,115.7178726c-6.1051025,3.5834351-12.3555908,6.9433823-18.2830811,10.7997589
			c-10.335083,6.7238235-20.4710693,13.7534103-30.6905518,20.6548386"/>
		<path class="st4" d="M1054.671875,131.2460938c9.2730713-1.6109467,16.7370605-6.4015503,23.0931396-13.139267"/>
		<path class="st4" d="M1067.4129639,94.0181961c-0.6636963,0.1990814-1.3271484,0.3981628-1.9908447,0.5972443"/>
		<path class="st4" d="M152.0445099,59.1792412c-9.1576691,9.4231071-18.1781921,18.9856224-27.5431747,28.1979637
			c-3.5495834,3.4917374-7.8930054,6.1764679-11.8746033,9.2290192"/>
		<path class="st4" d="M517.5548096,127.6626434c-3.1852417,2.2562256-6.3705444,4.5124817-9.5558167,6.7687073"/>
		<path class="st4" d="M469.377533,132.2414856c-0.6635742,0.1990814-1.3272095,0.3981628-1.9907837,0.5972443"/>
		<path class="st4" d="M433.5431824,130.6488342c-3.3179932,1.5262909-6.6359558,3.0525665-9.9539795,4.5788422"/>
		<path class="st4" d="M1052.6810303,134.0332184c-3.7160645,0.6635895-7.432373,1.3271942-11.1484375,1.990799"/>
		<path class="st4" d="M1030.7822266,137.0194092c-1.0617676,0.0663605-2.1234131,0.1327209-3.1851807,0.1990814"/>
		<path class="st4" d="M204.6015472,127.6626587c-4.7779083,2.5216827-9.5558167,5.0433502-14.3337402,7.5650177"/>
		<path class="st4" d="M321.6604004,130.0516052c-3.9815979,2.2562408-7.9631653,4.5124664-11.9447632,6.7687073"/>
		<path class="st4" d="M943.1871948,134.6304321c-3.1852417,1.1281281-6.3421631,2.3461761-9.5629272,3.3617249
			c-4.0848389,1.2880249-8.2215576,2.4115906-12.3358154,3.6060791"/>
		<path class="st4" d="M916.510498,141.9963989c-0.9289551,0-1.8580933,0-2.7871094,0"/>
		<path class="st4" d="M994.5497437,137.2184753c-3.7161255,1.1944733-7.432312,2.3889465-11.1484375,3.5834198"/>
		<path class="st4" d="M895.0098877,135.6258392c-5.7069092,1.0617523-11.4251709,2.0673218-17.1156616,3.2108002
			c-2.552002,0.5127869-5.0485229,1.3016968-7.5701904,1.9652863"/>
		<path class="st4" d="M746.8946533,134.0332336c-4.7779541,2.2562408-9.539856,4.5476074-14.3492432,6.7347565
			c-0.8198242,0.3728485-1.8425903,0.2993774-2.7716675,0.4320831"/>
		<path class="st4" d="M280.6499939,130.0516052c-3.848877,1.7253723-7.6977539,3.4507294-11.5466309,5.1760712"/>
		<path class="st4" d="M1200,128.0608215c-3.9815674,0.5308685-7.9631348,1.0617523-11.9448242,1.5926361"/>
		<path class="st4" d="M56.6853409,90.6338348c-0.7498627,3.7520142-3.588562,6.0340652-6.2564697,8.2594376
			c-0.9262047,0.7725754-2.8348312,0.3673553-4.294754,0.5000763"/>
		<path class="st4" d="M744.1074829,127.4635544c-0.6635742,0.1990738-1.3272095,0.3981552-1.9907837,0.5972366"/>
		<path class="st4" d="M865.1479492,140.602829c1.7609253,0.3326111,4.1609497-1.7090759,5.1760864,1.3935699"/>
		<path class="st4" d="M56.0881042,89.0411987c-1.7523727-1.78405-3.3184433-1.9050522-4.7978363,0.3852844
			c-0.8179092,1.2662582-1.8381577,2.401825-2.7671928,3.5963058"/>
		<path class="st4" d="M1156.9987793,68.3369141c-1.8581543-0.3981628-3.7160645-0.7963181-5.5742188-1.1944809"/>
		<path class="st4" d="M525.5180054,111.7362671c-0.3981323,1.4599228-0.7963257,2.919838-1.194458,4.3797531"/>
		<path class="st4" d="M1161.37854,119.3012924c-0.9289551-0.0663528-1.8581543-0.1327057-2.7871094-0.1990738"/>
		<path class="st4" d="M403.6812439,119.3012924c0.7963257-0.0663528,1.5926208-0.1327057,2.3889465-0.1990738"/>
	</g>
	<g>
	</g>
	<g>
	</g>
	<g>
	</g>
	<g>
	</g>
	<g>
	</g>
	<g>
	</g>
	<g>
	</g>
	<g>
	</g>
	<g>
	</g>
	<g>
	</g>
	<g>
	</g>
	<g>
	</g>
	<g>
	</g>
	<g>
	</g>
	<g>
	</g>
</g>
</svg>
