<?xml version="1.0" encoding="utf-8"?>
<!-- Generator: Adobe Illustrator 22.1.0, SVG Export Plug-In . SVG Version: 6.00 Build 0)  -->
<svg version="1.1" xmlns="http://www.w3.org/2000/svg" xmlns:xlink="http://www.w3.org/1999/xlink" x="0px" y="0px"
	 viewBox="0 0 360 169.2940063" style="enable-background:new 0 0 360 169.2940063;" xml:space="preserve">
<style type="text/css">
	.st0{display:none;}
	.st1{display:inline;}
	.st2{clip-path:url(#SVGID_2_);fill:#FFFFFF;}
	.st3{clip-path:url(#SVGID_4_);fill:#FFFFFF;}
	.st4{clip-path:url(#SVGID_6_);fill:#FFFFFF;}
	.st5{clip-path:url(#SVGID_8_);fill:#FFFFFF;}
	.st6{fill:#F1F1F1;}
	.st7{fill:#FFFFFF;}
</style>
<g id="Layer_2" class="st0">
	<rect y="0.0020032" class="st1" width="360" height="169.2899933"/>
</g>
<g id="Layer_1">
	<g>
		<g>
			<defs>
				<rect id="SVGID_1_" width="360" height="169.2940063"/>
			</defs>
			<clipPath id="SVGID_2_">
				<use xlink:href="#SVGID_1_"  style="overflow:visible;"/>
			</clipPath>
			<path class="st2" d="M350.3259888,91.7519989c-0.4259949,0.0479965-1.1679993-0.2020035-1.9140015-0.125
				c-0.6520081,0.0650024-2.105011,0.7689972-3.1759949,0.8860016c-1.0780029,0.1230011-2.3049927-0.1210022-3.6929932,0
				c-1.6170044,0.1439972-3.4200134,0.5459976-5.2170105,0.7689972c-1.9320068,0.2340012-3.8829956,0.2480011-5.730011,0.3830032
				c-3.7109985,0.2649994-7.1990051,0.7929993-7.7579956-2.6740036c-0.1879883-1.1559982,0.2890015-2.3359985,0.125-3.1849976
				c-2.6860046-0.586998-3.1210022,2.836998-5.4689941,2.6750031c-0.6759949-0.0510025-1.8179932-1.0619965-1.9079895-1.9059982
				c-0.230011-2.0780029,2.1350098-4.8119965,3.8110046-5.9869995c2.1759949-1.5130005,4.803009-2.3919983,7.2619934-2.4179993
				c1.0700073,2.2070007-1.6560059,3.1849976-1.0230103,5.3430023c2.2829895-0.3769989,3.875-2.6159973,5.2170105-4.4489975
				c1.9259949-2.6159973,4.480011-4.6090012,4.4590149-8.7850037c-1.9100037-1.9550018-4.1700134,0.3150024-6.1069946,1.2720032
				c-1.7030029,0.8479996-3.3009949,1.6119995-4.5799866,2.1709976c-0.6740112,0.2829971-1.5920105,0.3939972-2.2950134,0.7590027
				c-2.5960083,1.3420029-4.6350098,3.5490036-6.6210022,5.8560028c-1.5880127,1.8519974-5.0119934,5.2610016-4.4509888,8.1439972
				c0.2600098,1.3219986,1.8110046,1.310997,2.0390015,2.5469971c0.2619934,1.439003-0.6539917,2.7580032-1.9140015,3.3069992
				c-2.0610046,0.9020004-7.3789978,0.7030029-8.7820129,0.2549973c-0.6170044-0.2020035-1.2290039-0.9440002-1.9039917-1.276001
				c-4.1430054-1.9860001-11.5679932-2.1230011-12.0939941-6.9960022c-0.3099976-2.9550018,1.8829956-3.6070023,1.7850037-7.1289978
				c-0.7340088-0.7809982-2.0289917-1.4319992-3.0539856-1.2689972c-1.1119995,0.1689987-1.5220032,1.552002-2.4159851,2.1620026
				c-0.5969849,0.4059982-1.4500122,0.5429993-2.0360107,1.0179977c-1.8139954,1.4570007-2.8380127,3.913002-4.7130127,4.4520035
				c-1.2619934,3.9469986-7.7990112,2.4820023-11.196991,1.4020004c-0.7890015-0.8669968-1.8299866-1.4800034-2.9240112-2.0390015
				c-1.0270081,0.9309998-2.5069885,1.0149994-3.9490051,1.5289993c-1.2640076,0.4489975-2.6369934,1.3909988-3.9450073,1.5230026
				c-0.6799927,0.0780029-1.3890076-0.2020035-2.0330048-0.1230011c-1.2890015,0.1500015-2.3139954,1.0550003-3.6909943,0.8909988
				c2.4179993-1.9550018,7.1549988-3.7559967,7.7600098-7.6360016c0.6109924-3.8680038-2.1090088-7.1259995-4.9609985-7.637001
				c-6.647995-0.1470032-11.8359985,1.4000015-17.3090057,3.8160019c-2.0410004,0.9069977-3.852005,1.8219986-5.595993,2.9260025
				c-3.4100037,2.1579971-7.5059967,4.7220001-7.3809967,9.5480042c-0.7830048,0.5329971-2.3910065,0.4840012-3.1840057,0
				c-0.9450073,1.3479996-2.8090057,0.0970001-4.451004,0c-0.7129974-0.0429993-1.4799957,0.1880035-2.1660004,0.1299973
				c-0.8849945-0.0790024-1.5039978-0.1080017-2.1640015-0.5110016c-1.1519928-2.0920029,0.6390076-3.7600021,1.0200043-5.4729996
				c1.1820068-5.3359985-2.7929993-7.9850006-6.4900055-9.5469971c-1.375,0.9589996-3.0350037,1.637001-4.4550018,2.5469971
				c-0.4839935,2.8720016-3.0720062,4.6520004-3.1799927,7.5070038c-0.0939941,2.5530014,1.977005,3.8440018,1.7810059,6.7450027
				c-4.5690002,1.9860001-12.826004,2.0019989-17.6889954,0.2600021c-1.0859985-1.6620026-3.2960052-1.4179993-4.3280029-3.4430008
				c-0.7250061-1.4189987-0.0850067-5.8099976-1.397995-6.4869995c-2.1069946-1.0839996-4.7539978,2.0999985-5.852005,3.0500031
				c-1.8070068,1.5680008-3.9360046,2.1809998-5.9830017,3.185997c-1.5859985,0.7779999-4.3190002,3.6040039-6.1060028,3.0540009
				c-2.4940033-0.7649994,0.3869934-4.9960022,0-6.9990005c-0.4170074-2.1669998-4.753006-3.6750031-7.6380005-3.5670013
				c-1.1670074,0.0479965-2.4640045,0.6050034-3.6900024,0.8949966c-1.326004,0.3130035-2.6779938,0.5360031-3.9470062,0.7610016
				c-5.2189941,0.9319992-8.8769989,3.7089996-12.8529968,5.7300034c-2.0359955,1.0390015-3.9029999,2.4079971-5.9779968,3.0530014
				c0.3479996-3.5139999,2.6389999-7.7730026,1.9069977-11.8359985c-0.0759964-0.4199982-0.4919968-0.7809982-0.6350021-1.2710037
				c-0.1679993-0.560997-0.0569992-1.2149963-0.2539978-1.6559982c-0.4710007-1.0279999-1.7440033-1.8379974-2.5479965-2.5449982
				c-0.9850006-0.8659973-1.8479996-1.9169998-3.1790009-2.0370026c-2.9059982-0.2580032-4.473999,2.0699997-5.9800034,3.564003
				c0.9570007,2.4489975-1.0459976,4.3619995-2.5469971,6.112999c-1.2900009,1.4940033-2.7929993,2.5090027-3.8180008,3.5550003
				c-0.6119995,0.6320038-1.038002,1.5889969-1.5279999,1.7870026c-1.3160019,0.5250015-3.2519989,0.3610001-4.7089996,0.5059967
				c-1.6110001,0.1679993-3.1230011,0.3170013-4.8359985,0.3830032c-3.6790009-5.9950027,7.8830032-6.8690033,4.3290024-13.2360001
				c-1.6190033-0.3730011-3.3280029-0.7089996-5.090004-0.7600021c-1.6579971-0.0559998-4.0429993-0.2809982-5.8550034,0.1259995
				c-1.2460022,0.2809982-2.9069977,1.8389969-4.1999969,2.8030014c-1.4540024,1.0780029-2.8570023,1.9899979-4.0699997,3.0500031
				c-2.5390015,2.2200012-4.7450027,5.2910004-7.3809967,6.7480011c-2.4380035,1.3479996-7.5589981,1.8779984-11.3240013,1.5309982
				c-2.1080017-0.2030029-2.8860016-1.2020035-4.2019997-1.9160004c-0.8709984-0.4670029-1.8549995-0.5329971-2.7999992-1.2720032
				c-1.2540016,0.625-2.5359993-0.1210022-3.6949997-0.1269989c-0.7820015-0.0029984-1.4189987,0.3330002-2.1609993,0.2539978
				c-0.9609985-0.1029968-1.7659988-0.8970032-2.7970009-1.1470032c-0.612999-0.1460037-1.2869987,0.0049973-1.7809982-0.1230011
				c-0.75-0.1940002-1.3279991-1.0149994-2.1619987-1.276001c-0.6720009-0.2009964-1.4449997-0.0370026-2.0390015-0.2559967
				c-0.7849998-0.2770004-1.2190018-1.0029984-2.0390015-1.5230026c-0.4860001-0.314003-1.2120018-0.3590012-1.6539993-0.6389999
				c-0.6220016-0.3929977-0.993-1.2389984-1.6520004-1.5230026c-0.8930016-0.3909988-1.8190002-0.0749969-2.5439987-0.2559967
				c0.7249985-0.8059998,0.4099998-1.862999,0.7639999-3.0550003c0.1349983-0.4520035,0.4550018-0.4449997,0.5099983-0.8860016
				c0.1500015-1.2679977-0.5410004-2.5220032-0.5099983-3.6940002c0.0600014-2.5,1.9339981-3.7089996,2.5439987-5.8519974
				c-0.9869995-3.8289986,2.4399986-5.3359985,2.6730003-8.7819977c0.9160004-1.0950012,1.9780006-2.1990013,2.4169998-3.6899986
				c0.1679993-0.5820007,0.0690002-1.2029991,0.2529984-1.7789993c0.4990005-1.5569992,2.3839989-2.7809982,3.3090019-4.3330002
				c0.9519997-1.5909996,1.1020012-4.218998,2.288002-5.2150002c0.5390015-0.4519997,1.3769989-0.4230003,1.9099998-0.7649994
				c1.7519989-1.1209984,1.9340019-3.1549988,2.8030014-4.9589996c1.3979988-0.0900002,1.5800018-1.3930016,2.7989998-1.6599998
				c0.0740013-1.1559982,0.9459991-1.5099983,1.0200005-2.670002c3.7319984-3.1149998,6.0760002-7.487999,9.5440025-10.5629997
				c1.8330002-1.6259995,4.3970032-2.5680008,5.4670029-4.8360004c6.3150024-2.6820002,10.3359985-8.3260002,19.3499985-7.8859997
				c0.8649979,5.0279999-4.6640015,6.7220001-6.6220016,9.9220009c-0.3610001,0.5919991-0.4110031,1.3409996-0.7639999,1.9120007
				c-1.7310028,2.7770004-4.6259995,4.132-6.7430038,6.3610001c-0.0199966,1.2010002-1.4489975,1.7380009-0.6380005,2.671999
				c2.0209961-0.0289993,2.5329971-1.625,4.3219986-2.2989998c2.6819992-3.7670002,5.927002-5.5270004,8.7870026-8.519001
				c1.5049973-1.5709991,1.9369965-4.0710001,3.3099976-5.5979996c0.6449966-0.7229996,1.7190018-1.0100002,2.5449982-1.6540003
				c2.7819977-2.1730003,7.1119995-8.5039997,3.0559998-11.8360004c-2.8199997,0.023-4.3659973,1.64-6.625,2.5469999
				c-3.8590012,1.5430002-8.1500015,2.921-10.6870041,5.6000004c-2.7649994,0.3959999-3.848999,1.7480001-5.8529968,3.1779995
				c-1.3399963,0.96-2.9860001,1.3669996-3.8180008,2.0380001c-0.8030014,0.6540003-1.1900024,1.8099995-1.9089966,2.5489998
				c-2.3030014,2.3479996-5.3260002,4.1800003-7.7610016,6.6130009c-2.4490013,2.4529991-4.9589996,4.737999-6.4889984,7.8899994
				c-2.4039993,1.3239994-3.5950012,3.6899986-5.4720001,5.7260017c-0.7210007,0.7840004-1.6619987,1.3079987-2.1660004,2.038002
				c-0.7249985,1.0550003-1.0740013,2.3829994-1.7809982,3.5649986c-2.0019989,3.3310013-5.0750008,6.1409988-6.9970016,9.4150009
				c-2.2200012,3.7750015-3.8460007,7.5810013-5.7270012,11.3240013c-1.0249996,2.0429993-1.9799995,3.8550034-2.6730003,5.8529968
				c-0.8260002,2.3899994-0.7150002,4.651001-0.8910007,7.7610016c-0.0529995,0.9219971-0.4260006,1.8669968-0.3810005,2.8030014
				c0.0809994,1.6839981,1.0779991,3.1579971,1.2719994,4.9609985c1.4899998,1.3290024,3.7520008,2.8789978,5.5990009,3.6910019
				c1.5979996,0.7040024,3.3909988,0.8789978,4.9640007,1.7850037c0.8100014,0.4680023,1.3709984,1.4469986,2.2900009,1.9079971
				c1.7519989,0.8710022,4.0219994,1.0739975,5.9819984,1.1460037c2.1990013,0.0800018,4.9659996-0.7429962,6.8720016-0.3850021
				c0.8330002,0.163002,1.4799995,0.836998,2.288002,1.0220032c2.1259995,0.4810028,4.0719986-0.3460007,6.6199989-0.3850021
				c1.2729988-0.0199966,2.6680031,0.3909988,3.942997,0c0.7080002-0.2149963,1.375-1.0479965,2.4169998-1.0159988
				c1.7509995,0.0530014,3.2030029,1.8799973,4.8359985,2.0370026c4.6240005,0.4339981,6.177002-3.3550034,11.0719986-2.7990036
				c1.0309982,1.0350037,1.3239975,1.822998,2.4179993,2.1620026c1.6110001,0.487999,3.5070038-0.1039963,5.2220001-0.1309967
				c0.8619995-0.0070038,2.0039978,0.2679977,2.6679993,0.1309967c1.1259995-0.2419968,1.7720032-1.2639999,2.8010025-1.4000015
				c0.6350021-0.0879974,1.3690033,0.1579971,2.0400009,0.125c2.1119995-0.1119995,6.7870026-1.3219986,8.1380005-2.1620026
				c0.6070023-0.3710022,1.2480011-1.3379974,2.1640015-2.1679993c0.7639999-0.6839981,1.5780029-1.4649963,2.1660004-2.163002
				c1.814003-2.1579971,4.5739975-5.935997,6.2320023-2.5410004c1.3600006,2.7770004,0.1269989,6.5979996-0.8850021,9.6719971
				c-0.7890015,2.375-4.2220001,8.026001,1.3970032,7.1279984c0.9710007-0.1559982,2.4319992-1.2040024,3.564003-1.9110031
				c8.0199966-5.0159988,14.762001-11.0439987,27.4870071-10.8170013c4.6569977,3.3960037-2.6230011,7.4720001-2.4190063,11.965004
				c2.3910065,0.7340012,3.9360046-0.9100037,5.727005-1.401001c1.0549927-0.2890015,2.1790009-0.1900024,3.1820068-0.512001
				c2.154007-0.689003,3.9750061-2.4789963,5.8549957-3.6900024c2.0269928-1.302002,4.1150055-2.3119965,6.996994-2.5449982
				c0.5800018,0.9530029,1.1439972,1.9069977,1.401001,3.1839981c3.3339996,1.4570007,5.6320038,3.4629974,9.1629944,4.2030029
				c4.2140045,0.8690033,8.572998,0.3539963,12.3410034,0c1.9790039-0.1920013,3.6970062-0.5,5.3439941-1.151001
				c1.5610046-0.6179962,3.0449982-1.5479965,4.7149963-1.9059982c1.7149963-0.3710022,3.3009949-0.0579987,4.8339996-0.1309967
				c0.8549957-0.0390015,1.5390015-0.4059982,2.4179993-0.25c0.6210022,0.1060028,1.1719971,0.6340027,1.9060059,0.7590027
				c1.1880035,0.2080002,4.4380035,0.3769989,5.0939941,0.1289978c0.4859924-0.1819992,0.9649963-0.6620026,1.522995-0.7610016
				c0.6660004-0.1169968,1.272995,0.1549988,1.9100037,0c1.1130066-0.2829971,1.6309967-1.3079987,2.6719971-1.5299988
				c0.6329956,0.7269974,1.6410065,1.0739975,2.4179993,1.6529999c3.4570007,0.0889969,6.4940033,1.2369995,9.6719971,0.3840027
				c2.0429993-0.5459976,4.2830048-2.0039978,6.875-0.8909988c-1.1580048,1.3479996-2.4609985,2.5439987-2.798996,4.7080002
				c-0.8999939,0.7900009-1.2230072,1.6920013-1.9080048,2.4219971c-0.7559967,0.7819977-1.4120026,1.5220032-2.0429993,2.288002
				c-2.5350037,3.0780029-3.9340057,7.1050034-6.8710022,9.5480042c-0.6499939,0.5319977-1.6040039,0.6880035-2.1640015,1.2689972
				c-0.8609924,0.8980026-0.9859924,1.9140015-1.7830048,2.6719971c-1.5859985,1.5210037-3.7339935,2.6600037-5.4649963,3.9489975
				c-1.8359985,1.3529968-3.6060028,2.7659988-5.3500061,4.0690002
				c-8.8200073,6.5819931-15.522995,16.1899948-18.5800018,28.7589951
				c-0.6289978,2.5939941-1.4389954,5.6779938-1.1499939,8.3990021c0.7359924,6.7169952,9.5919952,8.8079987,14.1349945,5.0879974
				c3.9389954-3.220993,5.7050018-8.7740021,8.397995-13.3600006c1.4450073-2.4629974,3.154007-4.7550049,4.3240051-7.3820038
				c2.102005-4.7070007,3.7360077-10.1999969,5.9790039-14.5039978c0.3419952-0.6439972,0.9120026-1.3079987,1.1459961-1.9120026
				c0.4450073-1.1040039,0.423996-2.1329956,0.7660065-3.0490036c1.1009979-2.9660034,2.4790039-4.7630005,4.076004-7.6380005
				c0.1349945-0.5250015-0.7890015,0.0159988-0.5119934-0.6399994c0.1640015-0.7220001,0.6349945-1.1380005,1.0160065-1.651001
				v-1.5270004c0.7380066-0.3320007,0.8029938-1.25,1.147995-1.9100037
				c0.9819946-1.8889999,1.9470062-4.3540039,3.1799927-6.1070023c0.4470062-0.6330032,1.1100006-1.0250015,1.5279999-1.6500015
				c1.5950012-2.4219971,2.6999969-4.7300034,4.3289948-7.1320038c0.6600037-0.9800034,1.4429932-2.0189972,2.4140015-3.3059998
				c0.6049957-0.8099976,1.9320068-3.0390015,2.5480042-3.3099976c1.6829987-0.7429962,3.7610016,0.4869995,5.723999,0
				c1.6859894-0.4219971,2.6699982-1.8809967,4.7069855-1.7839966c4.4710083,3.9509964,14.1529846,3.6070023,21.6350098,2.5449982
				c0.243988,0.5660019,0.3590088,1.2639999,0.6369934,1.7839966c1.053009,0.5699997,2.0369873,0.7399979,3.1820068,1.5240021
				c0.7820129,0.5410004,1.1799927,1.6600037,2.0369873,2.0370026c0.8590088,0.3840027,2.3890076,0.3259964,3.6929932,0.6380005
				c1.1860046,0.2839966,2.4219971,0.6080017,3.5589905,0.8919983c6.5119934,1.6149979,13.1390076,1.8550034,16.7950134-2.4189987
				c2.821991,0.3259964,5.6210022-2.8130035,8.2770081-0.7659988c2.0639954-0.9499969,3.7640076,0.2160034,5.7229919,0.3850021
				c1.631012,0.1340027,3.5289917,0.1900024,5.0960083-0.2539978c1.2730103-0.3659973,2.3359985-1.2099991,3.5610046-1.2720032
				c1.019989-0.0550003,2.1910095,0.3479996,3.3070068,0.25c2.0639954-0.1699982,4.4649963-1.7649994,7.2579956-1.9059982
				c1.25-0.0650024,2.6019897,0.3239975,3.8139954,0.2539978c1.7130127-0.0999985,2.7909851-1.2949982,4.071991-1.6539993
				c2.6860046-0.7559967,6.5660095,0.4789963,7.2579956-2.927002
				C356.5230103,88.3010025,353.178009,91.4499969,350.3259888,91.7519989 M89.9580002,85.2590027
				c-0.8290024,0.2040024-1.6800003-0.2910004-1.9150009-0.7600021c-0.9380035-1.9380035,2.1500015-5.3249969,3.8219986-3.0569992
				C91.4089966,82.8610001,91.2170029,84.9639969,89.9580002,85.2590027 M206.3919983,89.2060013
				c-3.8630066,2.4609985-4.5740051-7.5169983,0-5.4670029C206.8450012,85.2350006,207.875,88.2720032,206.3919983,89.2060013
				 M219.7570038,136.0399933c-0.3200073,4.3939972-3.0209961,7.4530029-4.7089996,10.8199921
				c-0.6699982,1.3399963-1.0469971,2.9179993-1.9080048,4.1959991c-0.8320007,1.2350006-2.0820007,2.3059998-2.5449982,3.5599976
				c-0.1809998,0.5-0.1560059,1.4759979-0.3789978,2.1640015c-0.8320007,2.5240021-3.5700073,4.5839996-6.3650055,5.6009979
				c-0.5919952,0.2149963-1.3049927,0.3190002-1.9080048,0.5119934c-0.8930054,0.2830048-0.9179993,0.6459961-1.6560059,0.378006
				c-0.522995-0.1950073-1.0449982-1.1809998-1.1430054-2.4140015c-0.1990051-2.4790039,0.8159943-4.2720032,1.3999939-6.7480011
				c0.5980072-2.5390015,0.6430054-4.8919983,1.522995-6.6150055c0.4550018-0.8849945,1.477005-1.595993,2.1660004-2.5449982
				c3.7669983-5.2030029,7.4920044-11.223999,12.5919952-15.1490021c0.8670044-0.6580048,2.0980072-0.9140015,2.9320068-1.651001
				c0.8609924-0.7529984,1.1499939-2.0800018,2.4199982-2.5439987c0.697998-0.2580032,1.3690033,0.0419998,1.9080048-0.1269989
				c0.6069946-0.1900024,0.9859924-1.012001,1.6499939-1.1470032
				C224.1380005,128.1179962,222.5540009,133.0200043,219.7570038,136.0399933 M247.6260071,86.1520004
				c-0.253006,0.7979965,0.1170044,1.5699997,0,2.2919998c-0.1620026,0.9860001-0.897995,1.4810028-1.2700043,2.4219971
				c-2.1640015,0.762001-6.227005,0.7720032-9.8029938,1.0169983c-3.029007,0.2020035-6.1349945,0.9889984-7.3809967-1.401001
				c-0.1750031-0.3410034-0.2250061-0.5270004-0.25-0.8909988c-0.0700073-0.9800034,0.4019928-1.9919968,0.5059967-2.9260025
				c1.9219971-3.3519974,6.3439941-4.1040039,11.1959991-4.836998c4.9049988-0.7429962,7.4889984-3.0569992,11.9620056-2.8030014
				c0.5119934,0.4250031,0.7949982,1.0759964,1.2769928,1.5299988
				C253.2079926,83.7429962,248.5399933,83.3040009,247.6260071,86.1520004"/>
		</g>
		<g>
			<defs>
				<rect id="SVGID_3_" width="360" height="169.2940063"/>
			</defs>
			<clipPath id="SVGID_4_">
				<use xlink:href="#SVGID_3_"  style="overflow:visible;"/>
			</clipPath>
			<path class="st3" d="M294.5830078,75.7699966c-2.0069885,0.6039963-5.0400085,0.3600006-4.4570007-2.4199982
				c0.9400024-0.9499969,3.07901-1.8639984,4.1919861-0.5110016
				C294.5830078,73.6139984,294.7890015,74.9280014,294.5830078,75.7699966"/>
		</g>
		<g>
			<defs>
				<rect id="SVGID_5_" width="360" height="169.2940063"/>
			</defs>
			<clipPath id="SVGID_6_">
				<use xlink:href="#SVGID_5_"  style="overflow:visible;"/>
			</clipPath>
			<path class="st4" d="M351.355011,115.9280014c-123.6759949-5.375-235.7920074-7.3730011-344.2200012-4.0469971
				c46.8919983-4.4029999,105.7289963-5.7440033,166.2630005-5.2399979
				c36.2400055,0.3050003,68.3110046,1.9530029,110.9689941,3.9000015
				C308.3710022,111.6330032,333.6700134,111.1490021,351.355011,115.9280014"/>
		</g>
		<g>
			<defs>
				<rect id="SVGID_7_" width="360" height="169.2940063"/>
			</defs>
			<clipPath id="SVGID_8_">
				<use xlink:href="#SVGID_7_"  style="overflow:visible;"/>
			</clipPath>
			<path class="st5" d="M0.078,76.0250015C-0.005,75.8300018,0.001,75.7070007,0,75.6610031v-0.2080002l0.125-0.1620026
				c0.073-0.1029968,2.7190001-3.5400009,11.2969999-6.5189972c8.4240007-2.927002,15.7679987-6.8089981,19.2729988-8.2929993
				c1.5629997-0.6580009,3.8540001-2.4469986,5.6839981-4.0569992c1.8419991-1.612999,3.2610016-3.0410004,3.262001-3.0460014
				l0.0810013-0.0800018l0.105999-0.0489998c0.0009995-0.0050011,1.7010002-0.7649994,4.3540001-2.3790016
				c2.6539993-1.6119995,6.243-4.0569992,9.9540024-7.3849983c7.5340004-6.7459984,10.0530014-7.1969986,12.0309982-9.5530014
				c2.3619995-2.7129993,9.8069992-6.7210007,9.836998-6.7519989L76.5,27.0350018l3.1620026,0.5300007l-1.3420029,1.4820004
				c-0.0059967,0.0020008-4.7480011,3.4590015-6.1699982,4.4110012c-0.9759979,0.6459999-7.5019989,5.7579994-11.0530014,8.882
				c-1.1749992,1.0279999-2.0690002,1.9140015-2.2010002,2.1450005c-0.3880005,0.5760002-1.1049995,1.0789986-2.0649986,1.7260017
				c-0.9560013,0.6279984-2.1339989,1.3310013-3.3199997,2.0449982c-2.3590012,1.3989983-4.8279991,2.9550018-5.3899994,3.7560005
				c-0.9360008,1.2140007-3.3849983,2.6660004-6.0979996,4.3689995c-0.9959984,1.1160011-3.3359985,2.5449982-7.1350021,5.0509987
				c-3.5289993,3.4529991-17.4960003,8.7759972-19.9899998,9.1130028c-0.6490002,0.0630035-2.7010002,0.8000031-4.8839998,1.7170029
				c-2.204,0.9140015-4.6279998,2.012001-6.3049998,2.8150024c-1.096,0.5189972-1.948,0.9769974-1.9859999,1.0189972
				c-0.311,0.2369995-0.5470001,0.3850021-0.911,0.3990021c-0.01,0.0019989-0.025,0.0019989-0.035,0.0019989
				C0.443,76.4970016,0.133,76.2109985,0.078,76.0250015"/>
		</g>
		<g>
			<defs>
				<rect id="SVGID_9_" width="360" height="169.2940063"/>
			</defs>
			<clipPath id="SVGID_10_">
				<use xlink:href="#SVGID_9_"  style="overflow:visible;"/>
			</clipPath>
		</g>
		<g>
			<defs>
				<rect id="SVGID_11_" width="360" height="169.2940063"/>
			</defs>
			<clipPath id="SVGID_12_">
				<use xlink:href="#SVGID_11_"  style="overflow:visible;"/>
			</clipPath>
		</g>
		<g>
			<defs>
				<rect id="SVGID_13_" width="360" height="169.2940063"/>
			</defs>
			<clipPath id="SVGID_14_">
				<use xlink:href="#SVGID_13_"  style="overflow:visible;"/>
			</clipPath>
		</g>
		<g>
			<defs>
				<rect id="SVGID_15_" width="360" height="169.2940063"/>
			</defs>
			<clipPath id="SVGID_16_">
				<use xlink:href="#SVGID_15_"  style="overflow:visible;"/>
			</clipPath>
		</g>
		<g>
			<defs>
				<rect id="SVGID_17_" width="360" height="169.2940063"/>
			</defs>
			<clipPath id="SVGID_18_">
				<use xlink:href="#SVGID_17_"  style="overflow:visible;"/>
			</clipPath>
		</g>
		<g>
			<defs>
				<rect id="SVGID_19_" width="360" height="169.2940063"/>
			</defs>
			<clipPath id="SVGID_20_">
				<use xlink:href="#SVGID_19_"  style="overflow:visible;"/>
			</clipPath>
		</g>
		<g>
			<defs>
				<rect id="SVGID_21_" width="360" height="169.2940063"/>
			</defs>
			<clipPath id="SVGID_22_">
				<use xlink:href="#SVGID_21_"  style="overflow:visible;"/>
			</clipPath>
		</g>
		<g>
			<defs>
				<rect id="SVGID_23_" width="360" height="169.2940063"/>
			</defs>
			<clipPath id="SVGID_24_">
				<use xlink:href="#SVGID_23_"  style="overflow:visible;"/>
			</clipPath>
		</g>
		<g>
			<defs>
				<rect id="SVGID_25_" width="360" height="169.2940063"/>
			</defs>
			<clipPath id="SVGID_26_">
				<use xlink:href="#SVGID_25_"  style="overflow:visible;"/>
			</clipPath>
		</g>
		<g>
			<defs>
				<rect id="SVGID_27_" width="360" height="169.2940063"/>
			</defs>
			<clipPath id="SVGID_28_">
				<use xlink:href="#SVGID_27_"  style="overflow:visible;"/>
			</clipPath>
		</g>
		<g>
			<defs>
				<rect id="SVGID_29_" width="360" height="169.2940063"/>
			</defs>
			<clipPath id="SVGID_30_">
				<use xlink:href="#SVGID_29_"  style="overflow:visible;"/>
			</clipPath>
		</g>
		<g>
			<defs>
				<rect id="SVGID_31_" width="360" height="169.2940063"/>
			</defs>
			<clipPath id="SVGID_32_">
				<use xlink:href="#SVGID_31_"  style="overflow:visible;"/>
			</clipPath>
		</g>
		<g>
			<defs>
				<rect id="SVGID_33_" width="360" height="169.2940063"/>
			</defs>
			<clipPath id="SVGID_34_">
				<use xlink:href="#SVGID_33_"  style="overflow:visible;"/>
			</clipPath>
		</g>
		<g>
			<defs>
				<rect id="SVGID_35_" width="360" height="169.2940063"/>
			</defs>
			<clipPath id="SVGID_36_">
				<use xlink:href="#SVGID_35_"  style="overflow:visible;"/>
			</clipPath>
		</g>
		<g>
			<defs>
				<rect id="SVGID_37_" width="360" height="169.2940063"/>
			</defs>
			<clipPath id="SVGID_38_">
				<use xlink:href="#SVGID_37_"  style="overflow:visible;"/>
			</clipPath>
		</g>
		<g>
			<defs>
				<rect id="SVGID_39_" width="360" height="169.2940063"/>
			</defs>
			<clipPath id="SVGID_40_">
				<use xlink:href="#SVGID_39_"  style="overflow:visible;"/>
			</clipPath>
		</g>
		<g>
			<defs>
				<rect id="SVGID_41_" width="360" height="169.2940063"/>
			</defs>
			<clipPath id="SVGID_42_">
				<use xlink:href="#SVGID_41_"  style="overflow:visible;"/>
			</clipPath>
		</g>
		<g>
			<defs>
				<rect id="SVGID_43_" width="360" height="169.2940063"/>
			</defs>
			<clipPath id="SVGID_44_">
				<use xlink:href="#SVGID_43_"  style="overflow:visible;"/>
			</clipPath>
		</g>
		<g>
			<defs>
				<rect id="SVGID_45_" width="360" height="169.2940063"/>
			</defs>
			<clipPath id="SVGID_46_">
				<use xlink:href="#SVGID_45_"  style="overflow:visible;"/>
			</clipPath>
		</g>
		<g>
			<defs>
				<rect id="SVGID_47_" width="360" height="169.2940063"/>
			</defs>
			<clipPath id="SVGID_48_">
				<use xlink:href="#SVGID_47_"  style="overflow:visible;"/>
			</clipPath>
		</g>
	</g>
	<g>
		<path class="st6" d="M27.7216797,139.0917969c0-1.3427734,0-1.5839844-0.0170898-1.859375
			c-0.0170898-0.2919922-0.0859375-0.4296875-0.3701172-0.4902344c-0.0688477-0.0175781-0.215332-0.0253906-0.2924805-0.0253906
			c-0.034668,0-0.0688477-0.0175781-0.0688477-0.0517578c0-0.0517578,0.0429688-0.0693359,0.1376953-0.0693359
			c0.387207,0,0.9291992,0.0263672,0.972168,0.0263672c0.1035156,0,0.6455078-0.0263672,1.1621094-0.0263672
			c0.8520508,0,2.4267578-0.0771484,3.4511719,0.9814453c0.4301758,0.4472656,0.8344727,1.1611328,0.8344727,2.1855469
			c0,1.0849609-0.4472656,1.9189453-0.9291992,2.4267578c-0.3701172,0.3876953-1.1445312,0.9902344-2.6079102,0.9902344
			c-0.3701172,0-0.8261719-0.0263672-1.1962891-0.0517578c-0.378418-0.0263672-0.6708984-0.0517578-0.7143555-0.0517578
			c-0.0170898,0-0.1630859,0-0.34375,0.0087891c-0.1723633,0-0.3701172,0.0166016-0.4995117,0.0166016
			c-0.0947266,0-0.1376953-0.0166016-0.1376953-0.0683594c0-0.0253906,0.0170898-0.0517578,0.0688477-0.0517578
			c0.0776367,0,0.1806641-0.0175781,0.2583008-0.0341797c0.1723633-0.0341797,0.215332-0.2236328,0.2495117-0.4736328
			c0.0429688-0.3613281,0.0429688-1.0410156,0.0429688-1.8671875V139.0917969z M28.4448242,140.0214844
			c0,0.9121094,0.0083008,1.703125,0.0170898,1.8671875c0.0087891,0.2148438,0.0258789,0.5595703,0.0947266,0.6542969
			c0.1118164,0.1630859,0.4472656,0.34375,1.4628906,0.34375c0.800293,0,1.5405273-0.2929688,2.0483398-0.7998047
			c0.4472656-0.4394531,0.6884766-1.265625,0.6884766-2.0576172c0-1.0927734-0.4731445-1.7978516-0.8261719-2.1679688
			c-0.809082-0.8525391-1.7900391-0.9726562-2.8139648-0.9726562c-0.1723633,0-0.4907227,0.0253906-0.5595703,0.0605469
			c-0.0776367,0.0341797-0.1035156,0.0771484-0.1035156,0.171875c-0.0083008,0.2919922-0.0083008,1.1699219-0.0083008,1.8330078
			V140.0214844z"/>
		<path class="st6" d="M36.0087891,140.9765625c0,0.7050781,0,1.2822266,0.0341797,1.5830078
			c0.0258789,0.2158203,0.0517578,0.3535156,0.2753906,0.3876953c0.1123047,0.0166016,0.2753906,0.0341797,0.3442383,0.0341797
			c0.043457,0,0.0605469,0.0341797,0.0605469,0.0605469c0,0.0341797-0.034668,0.0595703-0.1206055,0.0595703
			c-0.421875,0-0.9121094-0.0253906-0.9467773-0.0253906c-0.0429688,0-0.5161133,0.0253906-0.7485352,0.0253906
			c-0.0776367,0-0.1206055-0.0166016-0.1206055-0.0595703c0-0.0263672,0.0170898-0.0605469,0.0600586-0.0605469
			c0.0693359,0,0.1635742-0.0175781,0.2324219-0.0341797c0.1464844-0.0341797,0.1723633-0.171875,0.1982422-0.3876953
			c0.0341797-0.3007812,0.0429688-0.8779297,0.0429688-1.5830078v-1.2910156c0-1.1357422,0-1.3427734-0.0170898-1.5751953
			c-0.0175781-0.2490234-0.0776367-0.3613281-0.2412109-0.3955078c-0.0859375-0.0175781-0.1806641-0.0263672-0.2324219-0.0263672
			c-0.0341797,0-0.0600586-0.0341797-0.0600586-0.0595703c0-0.0429688,0.0341797-0.0605469,0.1206055-0.0605469
			c0.2495117,0,0.7226562,0.0175781,0.765625,0.0175781c0.034668,0,0.5249023-0.0175781,0.7573242-0.0175781
			c0.0859375,0,0.1206055,0.0175781,0.1206055,0.0605469c0,0.0253906-0.034668,0.0595703-0.0600586,0.0595703
			c-0.0517578,0-0.1035156,0-0.1894531,0.0175781c-0.206543,0.0429688-0.2495117,0.1464844-0.2666016,0.4042969
			c-0.0087891,0.2324219-0.0087891,0.4394531-0.0087891,1.5751953V140.9765625z"/>
		<path class="st6" d="M42.1103516,141.234375c0-0.59375-0.0175781-0.6796875-0.3271484-0.7402344
			c-0.0605469-0.0087891-0.1894531-0.0166016-0.2583008-0.0166016c-0.0258789,0-0.0600586-0.0351562-0.0600586-0.0605469
			c0-0.0517578,0.0341797-0.0605469,0.1201172-0.0605469c0.3447266,0,0.8520508,0.0175781,0.8955078,0.0175781
			c0.0341797,0,0.5073242-0.0175781,0.7397461-0.0175781c0.0864258,0,0.1206055,0.0087891,0.1206055,0.0605469
			c0,0.0253906-0.0341797,0.0605469-0.0600586,0.0605469c-0.0517578,0-0.1035156,0-0.1894531,0.0166016
			c-0.206543,0.0351562-0.2670898,0.1464844-0.2841797,0.4042969c-0.0083008,0.2324219-0.0083008,0.4482422-0.0083008,0.7578125
			v0.8173828c0,0.3359375-0.0087891,0.3447266-0.1035156,0.3955078c-0.4819336,0.25-1.1704102,0.3271484-1.609375,0.3271484
			c-0.5766602,0-1.6523438-0.0683594-2.4956055-0.7832031c-0.4648438-0.3867188-0.9038086-1.1699219-0.9038086-2.0820312
			c0-1.1708984,0.59375-1.9970703,1.2651367-2.4013672c0.6801758-0.4130859,1.4375-0.4648438,2.0141602-0.4648438
			c0.4814453,0,1.0151367,0.0859375,1.1616211,0.1210938c0.1547852,0.0341797,0.4213867,0.0771484,0.6108398,0.0771484
			c0.0776367,0,0.0947266,0.0341797,0.0947266,0.0683594c0,0.1035156-0.0429688,0.3017578-0.0429688,1.0332031
			c0,0.1201172-0.0341797,0.1552734-0.0859375,0.1552734c-0.0429688,0-0.0517578-0.0429688-0.0517578-0.1123047
			c-0.0087891-0.0947266-0.0517578-0.3095703-0.171875-0.4814453c-0.1894531-0.2753906-0.7661133-0.5683594-1.7470703-0.5683594
			c-0.4560547,0-1.0068359,0.0341797-1.5834961,0.4736328c-0.4389648,0.3349609-0.7490234,0.9892578-0.7490234,1.8408203
			c0,1.0332031,0.5336914,1.7734375,0.800293,2.0224609c0.6025391,0.5595703,1.2392578,0.7666016,1.9365234,0.7666016
			c0.2666016,0,0.6196289-0.0263672,0.8173828-0.1376953c0.0947266-0.0517578,0.1552734-0.0859375,0.1552734-0.2236328V141.234375z"
			/>
		<path class="st6" d="M45.7670898,140.9765625c0,0.7050781,0,1.2822266,0.0341797,1.5830078
			c0.0258789,0.2158203,0.0517578,0.3535156,0.2753906,0.3876953c0.1118164,0.0166016,0.2753906,0.0341797,0.3442383,0.0341797
			c0.0429688,0,0.0605469,0.0341797,0.0605469,0.0605469c0,0.0341797-0.034668,0.0595703-0.1206055,0.0595703
			c-0.421875,0-0.9121094-0.0253906-0.9467773-0.0253906c-0.0429688,0-0.5161133,0.0253906-0.7485352,0.0253906
			c-0.0776367,0-0.1206055-0.0166016-0.1206055-0.0595703c0-0.0263672,0.0170898-0.0605469,0.0605469-0.0605469
			c0.0683594,0,0.1630859-0.0175781,0.2319336-0.0341797c0.1464844-0.0341797,0.1723633-0.171875,0.1982422-0.3876953
			c0.0341797-0.3007812,0.0429688-0.8779297,0.0429688-1.5830078v-1.2910156c0-1.1357422,0-1.3427734-0.0170898-1.5751953
			c-0.0175781-0.2490234-0.0776367-0.3613281-0.2412109-0.3955078c-0.0859375-0.0175781-0.1806641-0.0263672-0.2324219-0.0263672
			c-0.0341797,0-0.0600586-0.0341797-0.0600586-0.0595703c0-0.0429688,0.0341797-0.0605469,0.1206055-0.0605469
			c0.2495117,0,0.7226562,0.0175781,0.765625,0.0175781c0.034668,0,0.5249023-0.0175781,0.7573242-0.0175781
			c0.0864258,0,0.1206055,0.0175781,0.1206055,0.0605469c0,0.0253906-0.0341797,0.0595703-0.0600586,0.0595703
			c-0.0517578,0-0.1035156,0-0.1894531,0.0175781c-0.206543,0.0429688-0.2495117,0.1464844-0.2670898,0.4042969
			c-0.0083008,0.2324219-0.0083008,0.4394531-0.0083008,1.5751953V140.9765625z"/>
		<path class="st6" d="M50.078125,140.9765625c0,0.7050781,0,1.2822266,0.0341797,1.5830078
			c0.0258789,0.2158203,0.0605469,0.3535156,0.2929688,0.3876953c0.1030273,0.0166016,0.2753906,0.0341797,0.3442383,0.0341797
			c0.0512695,0,0.0600586,0.0341797,0.0600586,0.0605469c0,0.0341797-0.0341797,0.0595703-0.1206055,0.0595703
			c-0.4130859,0-0.8950195-0.0253906-0.9379883-0.0253906c-0.0341797,0-0.5595703,0.0253906-0.7832031,0.0253906
			c-0.0859375,0-0.1201172-0.0166016-0.1201172-0.0595703c0-0.0263672,0.0170898-0.0517578,0.0600586-0.0517578
			c0.0688477,0,0.1547852-0.0175781,0.2236328-0.0341797c0.1547852-0.0351562,0.1977539-0.1806641,0.2236328-0.3964844
			c0.034668-0.3007812,0.034668-0.8779297,0.034668-1.5830078v-3.0722656l-1.0927734,0.0166016
			c-0.4736328,0.0087891-0.6542969,0.0605469-0.7661133,0.2324219c-0.0859375,0.1289062-0.0947266,0.1806641-0.1206055,0.2324219
			c-0.0170898,0.0605469-0.0429688,0.0693359-0.0771484,0.0693359c-0.0175781,0-0.0517578-0.0175781-0.0517578-0.0605469
			c0-0.0771484,0.1459961-0.7314453,0.1635742-0.7919922c0.0083008-0.0429688,0.0512695-0.1376953,0.0771484-0.1376953
			c0.0517578,0,0.1293945,0.0605469,0.3359375,0.0859375c0.2148438,0.0263672,0.5073242,0.0351562,0.59375,0.0351562h2.8569336
			c0.2495117,0,0.421875-0.0175781,0.5424805-0.0351562c0.1118164-0.0166016,0.1806641-0.0341797,0.2148438-0.0341797
			c0.034668,0,0.034668,0.0429688,0.034668,0.0859375c0,0.2236328-0.0258789,0.7490234-0.0258789,0.8349609
			c0,0.0605469-0.034668,0.0947266-0.0688477,0.0947266c-0.034668,0-0.0517578-0.0253906-0.0605469-0.1289062l-0.0083008-0.0771484
			c-0.0258789-0.2246094-0.1894531-0.3876953-0.9121094-0.4052734l-0.9467773-0.0166016V140.9765625z"/>
		<path class="st6" d="M54.4755859,137.7148438c0.0947266-0.2412109,0.1289062-0.2841797,0.1806641-0.2841797
			c0.0771484,0,0.1030273,0.1035156,0.1806641,0.2666016c0.1376953,0.3095703,1.3510742,3.3310547,1.815918,4.4404297
			c0.2753906,0.6542969,0.4819336,0.7490234,0.6455078,0.8007812c0.1118164,0.0341797,0.2236328,0.0429688,0.3012695,0.0429688
			c0.0429688,0,0.0942383,0.0175781,0.0942383,0.0605469s-0.0859375,0.0595703-0.171875,0.0595703
			c-0.1118164,0-0.6713867,0-1.1962891-0.0166016c-0.1464844-0.0087891-0.2666016-0.0087891-0.2666016-0.0517578
			c0-0.0341797,0.0170898-0.0341797,0.0512695-0.0517578c0.0429688-0.0175781,0.1206055-0.0771484,0.0688477-0.1982422
			l-0.6796875-1.6777344c-0.0170898-0.0341797-0.0258789-0.0429688-0.0688477-0.0429688h-1.7470703
			c-0.0341797,0-0.0600586,0.0175781-0.0771484,0.0605469l-0.4306641,1.1699219
			c-0.0688477,0.1806641-0.1118164,0.3613281-0.1118164,0.4902344c0,0.1464844,0.1293945,0.1982422,0.2583008,0.1982422h0.0688477
			c0.0600586,0,0.0776367,0.0263672,0.0776367,0.0605469c0,0.0429688-0.043457,0.0595703-0.1123047,0.0595703
			c-0.1806641,0-0.59375-0.0253906-0.6796875-0.0253906c-0.0776367,0-0.4560547,0.0253906-0.7661133,0.0253906
			c-0.0942383,0-0.1459961-0.0166016-0.1459961-0.0595703c0-0.0341797,0.0341797-0.0605469,0.0688477-0.0605469
			c0.0512695,0,0.1635742-0.0087891,0.2236328-0.0175781c0.3442383-0.0429688,0.4907227-0.3007812,0.6367188-0.6708984
			L54.4755859,137.7148438z M55.3188477,140.7607422c0.0341797,0,0.0341797-0.0166016,0.0258789-0.0507812l-0.7490234-2.0058594
			c-0.0429688-0.1113281-0.0859375-0.1113281-0.1289062,0l-0.7055664,2.0058594
			c-0.0087891,0.0341797,0,0.0507812,0.0258789,0.0507812H55.3188477z"/>
		<path class="st6" d="M59.3803711,140.9931641c0,1.0761719,0.0170898,1.5146484,0.1547852,1.6445312
			c0.1206055,0.1201172,0.4130859,0.171875,1.0068359,0.171875c0.3959961,0,0.7314453-0.0087891,0.9121094-0.2236328
			c0.0947266-0.1123047,0.1552734-0.2675781,0.1811523-0.4130859c0.0083008-0.0517578,0.0341797-0.0947266,0.0771484-0.0947266
			c0.034668,0,0.0517578,0.0341797,0.0517578,0.1113281c0,0.078125-0.0517578,0.5166016-0.1118164,0.7314453
			c-0.0517578,0.1728516-0.0776367,0.1982422-0.4819336,0.1982422c-0.5424805,0-0.9638672-0.0087891-1.3168945-0.0253906
			c-0.3442383-0.0087891-0.6025391-0.0175781-0.8261719-0.0175781c-0.0341797,0-0.1635742,0-0.3095703,0.0087891
			c-0.1552734,0.0087891-0.3183594,0.0166016-0.4389648,0.0166016c-0.0776367,0-0.1206055-0.0166016-0.1206055-0.0595703
			c0-0.0263672,0.0170898-0.0605469,0.0605469-0.0605469c0.0683594,0,0.1630859-0.0175781,0.2319336-0.0341797
			c0.1464844-0.0341797,0.1635742-0.171875,0.1982422-0.3876953c0.0429688-0.3007812,0.0429688-0.8779297,0.0429688-1.5830078
			v-1.2910156c0-1.1357422,0-1.3427734-0.0170898-1.5751953c-0.0175781-0.2490234-0.0605469-0.3701172-0.3100586-0.4042969
			c-0.0600586-0.0087891-0.1894531-0.0175781-0.2583008-0.0175781c-0.0253906,0-0.0600586-0.0341797-0.0600586-0.0595703
			c0-0.0429688,0.034668-0.0605469,0.1206055-0.0605469c0.3442383,0,0.8173828,0.0175781,0.8603516,0.0175781
			c0.034668,0,0.6025391-0.0175781,0.8349609-0.0175781c0.0771484,0,0.1206055,0.0175781,0.1206055,0.0605469
			c0,0.0253906-0.034668,0.0517578-0.0605469,0.0517578c-0.0512695,0-0.1635742,0.0078125-0.2495117,0.0166016
			c-0.2236328,0.0429688-0.2666016,0.1552734-0.2841797,0.4130859c-0.0083008,0.2324219-0.0083008,0.4394531-0.0083008,1.5751953
			V140.9931641z"/>
		<path class="st6" d="M67.5292969,136.8105469c0.1035156-0.2832031,0.1376953-0.3349609,0.1894531-0.3349609
			s0.0859375,0.0429688,0.1894531,0.3095703c0.1289062,0.3271484,1.4799805,3.8808594,2.0048828,5.1894531
			c0.3100586,0.765625,0.5595703,0.9033203,0.7402344,0.9550781c0.1289062,0.0429688,0.2583008,0.0517578,0.3442383,0.0517578
			c0.0517578,0,0.0859375,0.0087891,0.0859375,0.0517578c0,0.0517578-0.0771484,0.0683594-0.171875,0.0683594
			c-0.1293945,0-0.7573242,0-1.3510742-0.0166016c-0.1635742-0.0087891-0.2583008-0.0087891-0.2583008-0.0605469
			c0-0.0341797,0.0258789-0.0517578,0.0600586-0.0605469c0.0517578-0.0166016,0.1035156-0.0947266,0.0517578-0.2314453
			l-0.800293-2.1171875c-0.0170898-0.0351562-0.034668-0.0517578-0.0776367-0.0517578h-1.8500977
			c-0.0429688,0-0.0688477,0.0253906-0.0859375,0.0683594l-0.5166016,1.5234375
			c-0.0771484,0.2148438-0.1206055,0.421875-0.1206055,0.5771484c0,0.171875,0.1811523,0.2490234,0.3271484,0.2490234h0.0859375
			c0.0605469,0,0.0864258,0.0175781,0.0864258,0.0517578c0,0.0517578-0.0517578,0.0683594-0.1293945,0.0683594
			c-0.206543,0-0.5761719-0.0253906-0.6708984-0.0253906s-0.5683594,0.0253906-0.9726562,0.0253906
			c-0.1118164,0-0.1635742-0.0166016-0.1635742-0.0683594c0-0.0341797,0.034668-0.0517578,0.0776367-0.0517578
			c0.0600586,0,0.1806641-0.0087891,0.2495117-0.0175781c0.3959961-0.0507812,0.5678711-0.3779297,0.7226562-0.8085938
			L67.5292969,136.8105469z M68.4243164,140.2539062c0.0429688,0,0.0429688-0.0263672,0.034668-0.0605469l-0.8178711-2.3242188
			c-0.0429688-0.1289062-0.0859375-0.1289062-0.1289062,0l-0.7573242,2.3242188
			c-0.0170898,0.0429688,0,0.0605469,0.0258789,0.0605469H68.4243164z"/>
		<path class="st6" d="M72.1162109,139.6855469c0-1.1357422,0-1.3427734-0.0170898-1.5751953
			c-0.0175781-0.2490234-0.0605469-0.3701172-0.3100586-0.4042969c-0.0600586-0.0087891-0.1894531-0.0175781-0.2583008-0.0175781
			c-0.0258789,0-0.0600586-0.0341797-0.0600586-0.0595703c0-0.0429688,0.0341797-0.0605469,0.1206055-0.0605469
			c0.3442383,0,0.8520508,0.0175781,0.8950195,0.0175781c0.0771484,0,0.7143555-0.0175781,0.9462891-0.0175781
			c0.4824219,0,1.015625,0.0429688,1.4116211,0.3183594c0.1894531,0.1376953,0.5249023,0.4902344,0.5249023,0.9980469
			c0,0.5429688-0.2236328,1.0673828-0.9291992,1.6699219c0.6196289,0.7744141,1.1445312,1.4375,1.5834961,1.8935547
			c0.4042969,0.4130859,0.6538086,0.4814453,0.8432617,0.5078125c0.1459961,0.0253906,0.2236328,0.0253906,0.2666016,0.0253906
			s0.0688477,0.0341797,0.0688477,0.0605469c0,0.0429688-0.0429688,0.0595703-0.1806641,0.0595703h-0.4731445
			c-0.4301758,0-0.6196289-0.0429688-0.809082-0.1455078c-0.3271484-0.1728516-0.6025391-0.5253906-1.0327148-1.0761719
			c-0.3183594-0.3955078-0.6538086-0.8691406-0.8173828-1.0673828c-0.034668-0.0341797-0.0517578-0.0429688-0.1035156-0.0429688
			l-0.9638672-0.0166016c-0.0341797,0-0.0517578,0.0166016-0.0517578,0.0595703v0.1728516
			c0,0.7050781,0,1.2734375,0.034668,1.5742188c0.0258789,0.2158203,0.0688477,0.3535156,0.3012695,0.3876953
			c0.1030273,0.0166016,0.2666016,0.0341797,0.3354492,0.0341797c0.0517578,0,0.0605469,0.0341797,0.0605469,0.0605469
			c0,0.0341797-0.034668,0.0595703-0.1206055,0.0595703c-0.4130859,0-0.8950195-0.0253906-0.9296875-0.0253906
			c-0.0083008,0-0.5161133,0.0253906-0.7485352,0.0253906c-0.0776367,0-0.1206055-0.0166016-0.1206055-0.0595703
			c0-0.0263672,0.0170898-0.0605469,0.0600586-0.0605469c0.0693359,0,0.1635742-0.0175781,0.2324219-0.0341797
			c0.1464844-0.0341797,0.1635742-0.171875,0.1982422-0.3876953c0.0429688-0.3007812,0.0429688-0.8779297,0.0429688-1.5830078
			V139.6855469z M72.7700195,140.3046875c0,0.0429688,0.0175781,0.0693359,0.0517578,0.0947266
			c0.1118164,0.0605469,0.4990234,0.1123047,0.8349609,0.1123047c0.1806641,0,0.387207-0.0087891,0.5678711-0.1289062
			c0.2583008-0.1728516,0.4560547-0.5595703,0.4560547-1.1191406c0-0.9121094-0.4990234-1.4375-1.3081055-1.4375
			c-0.2236328,0-0.4648438,0.0263672-0.5419922,0.0429688c-0.034668,0.0175781-0.0605469,0.0429688-0.0605469,0.0869141V140.3046875
			z"/>
		<path class="st6" d="M78.0791016,142.4130859c-0.7402344-0.6367188-0.9208984-1.4716797-0.9208984-2.1679688
			c0-0.4912109,0.1806641-1.3427734,0.8520508-1.9970703c0.4560547-0.4384766,1.1445312-0.7832031,2.3066406-0.7832031
			c0.3012695,0,0.7314453,0.0263672,1.1015625,0.0859375c0.2836914,0.0517578,0.5249023,0.1035156,0.7744141,0.1123047
			c0.0776367,0,0.0947266,0.0341797,0.0947266,0.0771484c0,0.0605469-0.0170898,0.1464844-0.034668,0.4130859
			c-0.0083008,0.2412109-0.0083008,0.6455078-0.0170898,0.7490234c-0.0083008,0.1113281-0.0429688,0.1552734-0.0859375,0.1552734
			c-0.0517578,0-0.0600586-0.0517578-0.0600586-0.1552734c0-0.2841797-0.1206055-0.5761719-0.3188477-0.7314453
			c-0.2666016-0.2236328-0.8173828-0.4042969-1.4887695-0.4042969c-0.972168,0-1.4370117,0.2578125-1.7041016,0.5078125
			c-0.559082,0.515625-0.6796875,1.1699219-0.6796875,1.9101562c0,1.4023438,1.1103516,2.6503906,2.7280273,2.6503906
			c0.5678711,0,0.9467773-0.0429688,1.2480469-0.34375c0.1635742-0.1640625,0.2666016-0.4736328,0.2924805-0.6113281
			c0.0170898-0.0771484,0.0258789-0.1035156,0.0776367-0.1035156c0.0341797,0,0.0688477,0.0517578,0.0688477,0.1035156
			s-0.1035156,0.6884766-0.1806641,0.9384766c-0.0429688,0.1376953-0.0605469,0.1630859-0.1894531,0.2148438
			c-0.3100586,0.1201172-0.8779297,0.1630859-1.3681641,0.1630859
			C79.4389648,143.1962891,78.6728516,142.9296875,78.0791016,142.4130859z"/>
		<path class="st6" d="M88.7333984,140.9765625c0,0.7050781,0.0083008,1.2822266,0.0429688,1.5830078
			c0.0253906,0.2158203,0.0429688,0.3535156,0.2753906,0.3876953c0.1030273,0.0166016,0.2753906,0.0341797,0.3354492,0.0341797
			c0.0517578,0,0.0688477,0.0341797,0.0688477,0.0605469c0,0.0341797-0.0429688,0.0595703-0.1289062,0.0595703
			c-0.4130859,0-0.8950195-0.0253906-0.9384766-0.0253906c-0.0341797,0-0.5249023,0.0253906-0.7485352,0.0253906
			c-0.0859375,0-0.1206055-0.0166016-0.1206055-0.0595703c0-0.0263672,0.0175781-0.0605469,0.0605469-0.0605469
			c0.0688477,0,0.1547852-0.0175781,0.2236328-0.0341797c0.1547852-0.0341797,0.1806641-0.1806641,0.206543-0.3964844
			c0.034668-0.3007812,0.034668-0.8515625,0.034668-1.5576172v-0.7314453c0-0.0341797-0.0175781-0.0429688-0.043457-0.0429688
			h-3.1582031c-0.0258789,0-0.0429688,0.0087891-0.0429688,0.0429688v0.7314453c0,0.7060547,0,1.265625,0.0341797,1.5664062
			c0.0258789,0.2158203,0.0517578,0.3535156,0.2753906,0.3876953c0.1118164,0.0166016,0.2753906,0.0341797,0.3442383,0.0341797
			c0.0429688,0,0.0605469,0.0341797,0.0605469,0.0605469c0,0.0341797-0.034668,0.0595703-0.1206055,0.0595703
			c-0.421875,0-0.9038086-0.0253906-0.9379883-0.0253906c-0.0429688,0-0.5249023,0.0253906-0.7573242,0.0253906
			c-0.0776367,0-0.1206055-0.0166016-0.1206055-0.0595703c0-0.0263672,0.0170898-0.0605469,0.0605469-0.0605469
			c0.0683594,0,0.1630859-0.0175781,0.2319336-0.0341797c0.1464844-0.0341797,0.1635742-0.171875,0.1982422-0.3876953
			c0.0429688-0.3007812,0.0429688-0.8779297,0.0429688-1.5830078v-1.2910156c0-1.1357422,0-1.3427734-0.0170898-1.5751953
			c-0.0175781-0.2490234-0.0605469-0.3701172-0.3100586-0.4042969c-0.0600586-0.0087891-0.1894531-0.0175781-0.2583008-0.0175781
			c-0.0253906,0-0.0600586-0.0341797-0.0600586-0.0595703c0-0.0429688,0.034668-0.0605469,0.1206055-0.0605469
			c0.3442383,0,0.8261719,0.0175781,0.8691406,0.0175781c0.0341797,0,0.5161133-0.0175781,0.7485352-0.0175781
			c0.0864258,0,0.1206055,0.0175781,0.1206055,0.0605469c0,0.0253906-0.0341797,0.0595703-0.0600586,0.0595703
			c-0.0517578,0-0.1035156,0-0.1894531,0.0175781c-0.206543,0.0429688-0.2495117,0.1464844-0.2670898,0.4042969
			c-0.0083008,0.2324219-0.0083008,0.4560547-0.0083008,1.5927734v0.1542969c0,0.0429688,0.0170898,0.0429688,0.0429688,0.0429688
			h3.1582031c0.0258789,0,0.043457,0,0.043457-0.0429688v-0.1542969c0-1.1367188-0.0087891-1.3603516-0.0175781-1.5927734
			c-0.0170898-0.2490234-0.0517578-0.3701172-0.3012695-0.4042969c-0.0600586-0.0087891-0.1889648-0.0175781-0.2578125-0.0175781
			c-0.034668,0-0.0605469-0.0341797-0.0605469-0.0595703c0-0.0429688,0.034668-0.0605469,0.1206055-0.0605469
			c0.3354492,0,0.8261719,0.0175781,0.8603516,0.0175781c0.043457,0,0.5253906-0.0175781,0.7490234-0.0175781
			c0.0859375,0,0.1289062,0.0175781,0.1289062,0.0605469c0,0.0253906-0.0341797,0.0595703-0.0688477,0.0595703
			c-0.0512695,0-0.0947266,0-0.1889648,0.0175781c-0.1982422,0.0429688-0.2412109,0.1464844-0.2583008,0.4042969
			c-0.0170898,0.2324219-0.0170898,0.4394531-0.0170898,1.5751953V140.9765625z"/>
		<path class="st6" d="M91.9165039,140.9765625c0,0.7050781,0,1.2822266,0.0341797,1.5830078
			c0.0258789,0.2158203,0.0517578,0.3535156,0.2753906,0.3876953c0.1118164,0.0166016,0.2753906,0.0341797,0.3442383,0.0341797
			c0.0429688,0,0.0605469,0.0341797,0.0605469,0.0605469c0,0.0341797-0.034668,0.0595703-0.1206055,0.0595703
			c-0.421875,0-0.9121094-0.0253906-0.9467773-0.0253906c-0.0429688,0-0.5161133,0.0253906-0.7485352,0.0253906
			c-0.0776367,0-0.1206055-0.0166016-0.1206055-0.0595703c0-0.0263672,0.0170898-0.0605469,0.0605469-0.0605469
			c0.0683594,0,0.1630859-0.0175781,0.2319336-0.0341797c0.1464844-0.0341797,0.1723633-0.171875,0.1982422-0.3876953
			c0.0341797-0.3007812,0.0429688-0.8779297,0.0429688-1.5830078v-1.2910156c0-1.1357422,0-1.3427734-0.0170898-1.5751953
			c-0.0175781-0.2490234-0.0776367-0.3613281-0.2412109-0.3955078c-0.0859375-0.0175781-0.1806641-0.0263672-0.2324219-0.0263672
			c-0.0341797,0-0.0600586-0.0341797-0.0600586-0.0595703c0-0.0429688,0.0341797-0.0605469,0.1206055-0.0605469
			c0.2495117,0,0.7226562,0.0175781,0.765625,0.0175781c0.034668,0,0.5249023-0.0175781,0.7573242-0.0175781
			c0.0864258,0,0.1206055,0.0175781,0.1206055,0.0605469c0,0.0253906-0.0341797,0.0595703-0.0600586,0.0595703
			c-0.0517578,0-0.1035156,0-0.1894531,0.0175781c-0.206543,0.0429688-0.2495117,0.1464844-0.2670898,0.4042969
			c-0.0083008,0.2324219-0.0083008,0.4394531-0.0083008,1.5751953V140.9765625z"/>
		<path class="st6" d="M96.2363281,142.1464844c0.4389648-0.9804688,1.4287109-3.4765625,1.5922852-4.0019531
			c0.034668-0.1113281,0.0688477-0.2148438,0.0688477-0.2753906c0-0.0595703-0.0258789-0.1289062-0.1030273-0.1542969
			c-0.0864258-0.0263672-0.1723633-0.0263672-0.2583008-0.0263672c-0.0429688,0-0.0859375-0.0253906-0.0859375-0.0595703
			c0-0.0429688,0.0512695-0.0605469,0.171875-0.0605469c0.3012695,0,0.6455078,0.0175781,0.7402344,0.0175781
			c0.0429688,0,0.3701172-0.0175781,0.59375-0.0175781c0.0776367,0,0.1206055,0.0175781,0.1206055,0.0517578
			s-0.0258789,0.0683594-0.0864258,0.0683594c-0.0512695,0-0.2236328,0-0.3613281,0.0869141
			c-0.1030273,0.0683594-0.2236328,0.171875-0.4213867,0.6708984c-0.0864258,0.2060547-0.456543,1.0839844-0.84375,1.9794922
			c-0.4643555,1.0664062-0.800293,1.8583984-0.972168,2.2197266c-0.206543,0.4394531-0.2495117,0.5507812-0.3271484,0.5507812
			c-0.0859375,0-0.1376953-0.0947266-0.2841797-0.4472656l-1.8588867-4.4833984
			c-0.171875-0.4130859-0.2753906-0.4902344-0.5249023-0.5507812c-0.1201172-0.0263672-0.2495117-0.0263672-0.2924805-0.0263672
			s-0.0600586-0.0429688-0.0600586-0.0683594c0-0.0429688,0.0771484-0.0517578,0.1977539-0.0517578
			c0.3613281,0,0.7915039,0.0175781,0.8862305,0.0175781c0.0776367,0,0.4130859-0.0175781,0.7060547-0.0175781
			c0.1376953,0,0.206543,0.0175781,0.206543,0.0517578s-0.0258789,0.0683594-0.0776367,0.0683594
			c-0.0859375,0-0.206543,0.0087891-0.2753906,0.0351562c-0.0776367,0.0341797-0.0859375,0.0771484-0.0859375,0.1289062
			c0,0.0947266,0.0947266,0.3183594,0.206543,0.6103516L96.2363281,142.1464844z"/>
		<path class="st6" d="M100.1948242,139.6855469c0-1.1357422,0-1.3427734-0.0170898-1.5751953
			c-0.0175781-0.2490234-0.0605469-0.3701172-0.3100586-0.4042969c-0.0600586-0.0087891-0.1894531-0.0175781-0.2583008-0.0175781
			c-0.0253906,0-0.0600586-0.0341797-0.0600586-0.0595703c0-0.0429688,0.034668-0.0605469,0.1206055-0.0605469
			c0.3442383,0,0.8344727,0.0175781,0.8779297,0.0175781c0.0512695,0,1.6347656,0.0078125,1.8071289,0
			c0.1459961-0.0087891,0.2836914-0.0351562,0.3442383-0.0429688c0.0341797-0.0087891,0.0688477-0.0351562,0.1030273-0.0351562
			c0.0258789,0,0.034668,0.0351562,0.034668,0.0693359c0,0.0517578-0.0429688,0.1376953-0.0605469,0.34375
			c-0.0083008,0.0693359-0.0253906,0.3964844-0.0429688,0.4824219c-0.0083008,0.0341797-0.0341797,0.0771484-0.0688477,0.0771484
			c-0.0429688,0-0.0600586-0.0341797-0.0600586-0.0947266c0-0.0517578-0.0087891-0.171875-0.0429688-0.2578125
			c-0.0517578-0.1210938-0.1293945-0.171875-0.5424805-0.2236328c-0.1289062-0.0175781-1.0068359-0.0263672-1.0927734-0.0263672
			c-0.034668,0-0.0429688,0.0263672-0.0429688,0.078125v1.9873047c0,0.0517578,0,0.078125,0.0429688,0.078125
			c0.0947266,0,1.0927734,0,1.2651367-0.0175781c0.1806641-0.0175781,0.2924805-0.0253906,0.3701172-0.1035156
			c0.0517578-0.0517578,0.0859375-0.0947266,0.1118164-0.0947266s0.0429688,0.0175781,0.0429688,0.0605469
			s-0.0429688,0.1630859-0.0600586,0.4042969c-0.0175781,0.1464844-0.034668,0.421875-0.034668,0.4736328
			c0,0.0605469-0.0170898,0.1376953-0.0688477,0.1376953c-0.0341797,0-0.0517578-0.0263672-0.0517578-0.0693359
			c0-0.0683594,0-0.1464844-0.0341797-0.2402344c-0.0258789-0.1035156-0.0947266-0.1894531-0.387207-0.2246094
			c-0.206543-0.0253906-1.015625-0.0341797-1.1445312-0.0341797c-0.043457,0-0.0517578,0.0263672-0.0517578,0.0517578v0.6113281
			c0,0.2490234-0.0087891,1.1015625,0,1.2480469c0.0170898,0.4902344,0.1547852,0.5849609,0.9038086,0.5849609
			c0.1977539,0,0.559082,0,0.7568359-0.0771484c0.1982422-0.0869141,0.3012695-0.2158203,0.3447266-0.5078125
			c0.0170898-0.0869141,0.0341797-0.1123047,0.0771484-0.1123047s0.0517578,0.0605469,0.0517578,0.1123047
			c0,0.0507812-0.0605469,0.5507812-0.1035156,0.7050781c-0.0512695,0.1894531-0.1289062,0.1894531-0.4213867,0.1894531
			c-0.5678711,0-1.0068359-0.0175781-1.3168945-0.0253906c-0.3183594-0.0175781-0.5161133-0.0175781-0.6279297-0.0175781
			c-0.0175781,0-0.1635742,0-0.3271484,0.0087891c-0.1464844,0.0087891-0.3183594,0.0166016-0.4389648,0.0166016
			c-0.0776367,0-0.1206055-0.0166016-0.1206055-0.0595703c0-0.0263672,0.0170898-0.0605469,0.0605469-0.0605469
			c0.0683594,0,0.1630859-0.0253906,0.2319336-0.0341797c0.1464844-0.0263672,0.1635742-0.171875,0.1982422-0.3876953
			c0.0429688-0.3007812,0.0429688-0.8779297,0.0429688-1.5830078V139.6855469z"/>
	</g>
	<g>
		<path class="st7" d="M34.3203125,131.8476562c-3.4931641,1.7626953-7.4345703-0.8193359-7.3110352-4.6835938
			c0.0615234-2.6123047,1.730957-4.5283203,4.1577148-4.9150391c1.8242188-0.2314453,3.2768555,0.0615234,4.6064453,1.484375
			c0.2319336,0.2773438-0.1391602,0.5556641-0.3710938,0.3085938c-1.2519531-1.3603516-2.4731445-1.4833984-4.1577148-1.2832031
			c-2.1796875,0.3408203-3.6791992,1.9169922-3.7407227,4.4208984c-0.0927734,3.4160156,3.4467773,5.796875,6.6000977,4.2041016
			c0.5566406-0.2773438,1.0664062-0.6953125,1.453125-1.1894531c0.2163086-0.3095703,0.6181641,0,0.4018555,0.2929688
			C35.5415039,131.0751953,34.9848633,131.5234375,34.3203125,131.8476562z"/>
		<path class="st7" d="M38.1865234,130.9667969c-0.6801758-0.8193359-0.9892578-1.7929688-0.9277344-2.9521484
			c0.1391602-1.6542969,1.1591797-3.1689453,2.8286133-3.6328125c0.7109375-0.1855469,1.5615234-0.2001953,2.3339844,0
			c1.6694336,0.4638672,2.7050781,1.9785156,2.8442383,3.6328125c0.0620117,1.1591797-0.2470703,2.1328125-0.9272461,2.9521484
			c-0.7573242,0.8964844-1.8549805,1.3759766-3.0761719,1.3759766S38.9438477,131.8632812,38.1865234,130.9667969z
			 M40.2729492,124.9072266c-2.3959961,0.6337891-3.2304688,3.8339844-1.6538086,5.7197266
			c0.6337891,0.7568359,1.6074219,1.1904297,2.6430664,1.1904297c1.0512695,0,2.0405273-0.4335938,2.6743164-1.1904297
			c1.5766602-1.8857422,0.7109375-5.0859375-1.6850586-5.7197266
			C41.6333008,124.7529297,40.9067383,124.7373047,40.2729492,124.9072266z"/>
		<path class="st7" d="M47.8481445,126.3144531c0.340332-1.1748047,1.5151367-1.9785156,2.7978516-1.9785156
			c0.1699219,0,0.2783203,0.0927734,0.2783203,0.2626953s-0.1083984,0.2626953-0.2783203,0.2626953
			c-1.9785156,0-2.7978516,1.6845703-2.7978516,3.5546875v3.5712891c0,0.1699219-0.1235352,0.2783203-0.2626953,0.2783203
			c-0.1699219,0-0.2783203-0.1083984-0.2783203-0.2783203v-7.3886719c0-0.1396484,0.1083984-0.2626953,0.2783203-0.2626953
			c0.1391602,0,0.2626953,0.1230469,0.2626953,0.2626953V126.3144531z"/>
		<path class="st7" d="M56.0258789,132.4042969c-1.2827148-0.03125-2.4731445-0.6494141-2.9829102-1.8544922v4.4667969
			c0,0.1699219-0.0927734,0.2783203-0.2626953,0.2783203c-0.1704102,0-0.2783203-0.1083984-0.2783203-0.2783203v-10.4179688
			c0-0.1699219,0.1079102-0.2783203,0.2783203-0.2783203c0.1699219,0,0.2626953,0.1083984,0.2626953,0.2783203v1.5302734
			c0.2319336-0.6181641,0.6181641-1.0361328,1.128418-1.3759766c0.9736328-0.5712891,2.2104492-0.7109375,3.3847656-0.2314453
			c1.6694336,0.6796875,2.5043945,2.2099609,2.4580078,4.0185547c-0.0463867,1.5615234-0.8813477,2.9990234-2.3496094,3.5703125
			C57.1542969,132.3271484,56.6132812,132.4199219,56.0258789,132.4042969z M53.0429688,127.6591797v1.3447266
			c0.1079102,1.5917969,1.2519531,2.7978516,2.9829102,2.859375c1.3139648,0.015625,2.6435547-0.6796875,3.1689453-1.9628906
			c0.1699219-0.4023438,0.2626953-0.8964844,0.2783203-1.3447266c0.0463867-1.1904297-0.3554688-2.2880859-1.3603516-3.0917969
			c-0.5410156-0.4169922-1.2055664-0.6494141-1.9013672-0.6953125c-0.5410156-0.015625-1.0507812,0.1083984-1.5610352,0.3398438
			C53.6303711,125.6035156,53.1044922,126.5302734,53.0429688,127.6591797z"/>
		<path class="st7" d="M62.5043945,130.9667969c-0.6801758-0.8193359-0.9892578-1.7929688-0.9277344-2.9521484
			c0.1391602-1.6542969,1.1591797-3.1689453,2.8286133-3.6328125c0.7109375-0.1855469,1.5615234-0.2001953,2.3339844,0
			c1.6694336,0.4638672,2.7050781,1.9785156,2.8442383,3.6328125c0.0620117,1.1591797-0.2470703,2.1328125-0.9272461,2.9521484
			c-0.7573242,0.8964844-1.8549805,1.3759766-3.0761719,1.3759766S63.2617188,131.8632812,62.5043945,130.9667969z
			 M64.5908203,124.9072266c-2.3959961,0.6337891-3.2304688,3.8339844-1.6538086,5.7197266
			c0.6337891,0.7568359,1.6074219,1.1904297,2.6430664,1.1904297c1.0512695,0,2.0405273-0.4335938,2.6743164-1.1904297
			c1.5766602-1.8857422,0.7109375-5.0859375-1.6850586-5.7197266
			C65.9511719,124.7529297,65.2246094,124.7373047,64.5908203,124.9072266z"/>
		<path class="st7" d="M72.1665039,126.3144531c0.340332-1.1748047,1.5151367-1.9785156,2.7978516-1.9785156
			c0.1699219,0,0.2783203,0.0927734,0.2783203,0.2626953s-0.1083984,0.2626953-0.2783203,0.2626953
			c-1.9785156,0-2.7978516,1.6845703-2.7978516,3.5546875v3.5712891c0,0.1699219-0.1235352,0.2783203-0.2626953,0.2783203
			c-0.1699219,0-0.2783203-0.1083984-0.2783203-0.2783203v-7.3886719c0-0.1396484,0.1083984-0.2626953,0.2783203-0.2626953
			c0.1391602,0,0.2626953,0.1230469,0.2626953,0.2626953V126.3144531z"/>
		<path class="st7" d="M79.9731445,124.2587891c0.6650391,0.015625,1.2988281,0.1699219,1.8549805,0.4941406
			c0.5102539,0.3398438,0.8964844,0.8193359,1.128418,1.4375v-1.5605469c0-0.1708984,0.0927734-0.2783203,0.2626953-0.2783203
			c0.1704102,0,0.2783203,0.1074219,0.2783203,0.2783203v7.4033203c0,0.1699219-0.1079102,0.2783203-0.2783203,0.2783203
			c-0.1699219,0-0.2626953-0.1083984-0.2626953-0.2783203v-1.5605469c-0.2319336,0.6181641-0.6181641,1.0966797-1.128418,1.4375
			c-0.9736328,0.5712891-2.2104492,0.7109375-3.3847656,0.2314453c-1.6694336-0.6796875-2.5043945-2.2099609-2.4580078-4.0185547
			c0.0463867-1.5615234,0.8813477-2.9990234,2.3496094-3.5712891
			C78.8452148,124.3359375,79.3862305,124.2431641,79.9731445,124.2587891z M82.956543,129.0039062v-1.3447266
			c-0.0620117-1.1289062-0.5874023-2.0556641-1.6074219-2.5507812c-0.4482422-0.2011719-0.8964844-0.2939453-1.3759766-0.3085938
			c-1.3134766-0.015625-2.6430664,0.6796875-3.168457,1.9628906c-0.1699219,0.4013672-0.2626953,0.8964844-0.2783203,1.3447266
			c-0.0463867,1.1904297,0.3554688,2.2871094,1.3603516,3.0917969c0.5410156,0.4169922,1.2055664,0.6484375,1.9013672,0.6953125
			c0.5410156,0.015625,1.0507812-0.1083984,1.5610352-0.3398438
			C82.3691406,131.0595703,82.8945312,130.1318359,82.956543,129.0039062z"/>
		<path class="st7" d="M89.4189453,124.3662109c0.4018555,0,0.4018555,0.4951172,0,0.4951172h-2.1484375v4.7451172
			c0,1.1132812,0.1855469,2.2568359,1.6230469,2.2568359c0.293457,0,0.7109375-0.1083984,0.9272461-0.2314453
			c0.324707-0.1552734,0.6186523,0.2470703,0.2011719,0.4638672c-0.3867188,0.2001953-0.7421875,0.2626953-1.128418,0.2626953
			c-1.7314453,0-2.1484375-1.3144531-2.1484375-2.7519531v-4.7451172h-1.4375c-0.4174805,0-0.4174805-0.4951172,0-0.4951172h1.4375
			v-1.9785156c0-0.3398438,0.5253906-0.3242188,0.5253906,0v1.9785156H89.4189453z"/>
		<path class="st7" d="M92.5268555,123.3154297c0,0.3398438-0.5717773,0.3398438-0.5717773,0v-0.8652344
			c0-0.3398438,0.5717773-0.3398438,0.5717773,0V123.3154297z M91.9707031,124.5986328
			c0-0.3710938,0.5410156-0.3710938,0.5410156-0.015625v7.5273438c0,0.3710938-0.5410156,0.3710938-0.5410156,0V124.5986328z"/>
		<path class="st7" d="M95.4335938,130.9667969c-0.6801758-0.8193359-0.9892578-1.7929688-0.9277344-2.9521484
			c0.1391602-1.6542969,1.1591797-3.1689453,2.8286133-3.6328125c0.7109375-0.1855469,1.5615234-0.2001953,2.3339844,0
			c1.6694336,0.4638672,2.7050781,1.9785156,2.8442383,3.6328125c0.0620117,1.1591797-0.2470703,2.1328125-0.9272461,2.9521484
			c-0.7573242,0.8964844-1.8549805,1.3759766-3.0761719,1.3759766S96.190918,131.8632812,95.4335938,130.9667969z
			 M97.5200195,124.9072266c-2.3959961,0.6337891-3.2304688,3.8339844-1.6538086,5.7197266
			c0.6337891,0.7568359,1.6074219,1.1904297,2.6430664,1.1904297c1.0512695,0,2.0405273-0.4335938,2.6743164-1.1904297
			c1.5766602-1.8857422,0.7109375-5.0859375-1.6850586-5.7197266
			C98.8803711,124.7529297,98.1538086,124.7373047,97.5200195,124.9072266z"/>
		<path class="st7" d="M111.4790039,127.6435547c0-2.0097656-1.8701172-3.2773438-3.6938477-2.7978516
			c-1.5922852,0.4023438-2.6586914,1.9013672-2.7050781,3.5244141v3.6943359c0,0.1699219-0.0927734,0.2783203-0.2626953,0.2783203
			c-0.1704102,0-0.2783203-0.1083984-0.2783203-0.2783203v-7.4658203c0-0.1396484,0.1079102-0.2626953,0.2783203-0.2626953
			c0.1699219,0,0.2626953,0.1083984,0.2626953,0.2783203v2.1328125c0.3554688-1.2988281,1.421875-2.1171875,2.534668-2.4111328
			c2.0561523-0.5253906,4.4052734,0.6953125,4.4052734,3.3076172v4.4208984c0,0.1699219-0.0922852,0.2783203-0.2626953,0.2783203
			c-0.1699219,0-0.2783203-0.1083984-0.2783203-0.2783203V127.6435547z"/>
		<path class="st7" d="M119.1484375,130.9667969c-0.6801758-0.8193359-0.9892578-1.7929688-0.9277344-2.9521484
			c0.1391602-1.6542969,1.1591797-3.1689453,2.8286133-3.6328125c0.7109375-0.1855469,1.5615234-0.2001953,2.3339844,0
			c1.6694336,0.4638672,2.7050781,1.9785156,2.8442383,3.6328125c0.0620117,1.1591797-0.2470703,2.1328125-0.9272461,2.9521484
			c-0.7573242,0.8964844-1.8549805,1.3759766-3.0761719,1.3759766S119.9057617,131.8632812,119.1484375,130.9667969z
			 M121.2348633,124.9072266c-2.3959961,0.6337891-3.2304688,3.8339844-1.6538086,5.7197266
			c0.6337891,0.7568359,1.6074219,1.1904297,2.6430664,1.1904297c1.0512695,0,2.0405273-0.4335938,2.6743164-1.1904297
			c1.5766602-1.8857422,0.7109375-5.0859375-1.6850586-5.7197266
			C122.5952148,124.7529297,121.8686523,124.7373047,121.2348633,124.9072266z"/>
		<path class="st7" d="M129.2895508,125.015625v7.0175781c0,0.4023438-0.5410156,0.4179688-0.5410156,0v-7.0175781h-1.2368164
			c-0.3398438,0-0.3242188-0.4482422,0.015625-0.4482422h1.2211914v-0.0927734c0-1.3134766,0.5097656-2.4570312,2.1484375-2.4570312
			c0.5717773,0,1.0512695,0.1230469,1.4375,0.4169922c0.2939453,0.2011719,0,0.6025391-0.293457,0.3710938
			c-0.2631836-0.2324219-0.7578125-0.2939453-1.128418-0.2939453c-1.3295898,0-1.6230469,0.8349609-1.6230469,1.9628906v0.0927734
			h1.9321289c0.3554688,0,0.3554688,0.4482422,0,0.4482422H129.2895508z"/>
		<path class="st7" d="M145.2734375,122.6201172c0-0.3867188,0.5258789-0.3867188,0.5258789,0v9.3046875
			c0,0.3710938-0.340332,0.3710938-0.5410156,0.1240234l-6.7241211-8.7636719v8.6708984
			c0,0.3710938-0.5097656,0.3710938-0.5097656,0v-9.2900391c0-0.3857422,0.3242188-0.4326172,0.5410156-0.1542969
			l6.7080078,8.7646484V122.6201172z"/>
		<path class="st7" d="M156.0180664,128.2773438c0.0151367,0.2167969-0.0620117,0.5097656-0.4794922,0.5097656h-6.9555664
			c0.0771484,0.6650391,0.324707,1.2988281,0.7885742,1.8398438c0.6489258,0.7724609,1.6225586,1.1748047,2.6274414,1.1904297
			c0.8500977,0.0146484,1.7158203-0.2480469,2.4267578-0.7890625c0.2783203-0.2158203,0.6494141,0.0927734,0.3554688,0.3867188
			c-0.6953125,0.6494141-1.7158203,0.9433594-2.7358398,0.9277344c-1.2055664-0.015625-2.3959961-0.4638672-3.1069336-1.3759766
			c-0.6489258-0.8349609-0.9892578-1.7929688-0.9272461-2.9521484c0.0771484-1.6699219,1.1591797-3.1689453,2.8286133-3.6328125
			c0.7109375-0.1855469,1.5610352-0.2001953,2.3339844,0C154.9052734,124.8457031,155.9868164,126.2832031,156.0180664,128.2773438z
			 M148.5673828,128.2773438h6.9248047c-0.0307617-1.7001953-0.9428711-2.9833984-2.4882812-3.4003906
			c-0.6181641-0.1542969-1.3447266-0.1542969-1.9785156,0.015625
			C149.4794922,125.3095703,148.5830078,126.7314453,148.5673828,128.2773438z"/>
		<path class="st7" d="M157.6425781,124.3974609l3.0761719,7.0019531l2.9677734-6.0742188
			c0.1079102-0.2324219,0.4169922-0.2324219,0.5253906,0l3.0141602,6.0898438l2.9985352-6.9404297
			c0.0771484-0.2929688,0.6645508-0.2158203,0.4946289,0.2011719l-3.2612305,7.4814453
			c-0.0927734,0.1855469-0.4018555,0.1855469-0.4946289,0l-2.9833984-6.1826172l-3.0449219,6.1826172
			c-0.0927734,0.1855469-0.4174805,0.1855469-0.5258789,0c-1.2983398-3.1845703-1.9472656-4.4667969-3.2919922-7.5429688
			C156.9931641,124.2119141,157.5341797,124.1035156,157.6425781,124.3974609z"/>
		<path class="st7" d="M179.9033203,128.2314453l-4.1577148-5.5341797
			c-0.2626953-0.3095703,0.1083984-0.6181641,0.3867188-0.3095703l4.034668,5.4101562l4.0185547-5.4101562
			c0.2783203-0.3085938,0.6640625,0,0.3867188,0.3095703l-4.1425781,5.5341797v3.7714844
			c0,0.2001953-0.1396484,0.2929688-0.2626953,0.2929688c-0.1396484,0-0.2636719-0.0927734-0.2636719-0.2929688V128.2314453z"/>
		<path class="st7" d="M185.6552734,130.9667969c-0.6796875-0.8193359-0.9892578-1.7929688-0.9267578-2.9521484
			c0.1386719-1.6542969,1.1591797-3.1689453,2.828125-3.6328125c0.7109375-0.1855469,1.5615234-0.2001953,2.3339844,0
			c1.6699219,0.4638672,2.7050781,1.9785156,2.8447266,3.6328125c0.0615234,1.1591797-0.2480469,2.1328125-0.9277344,2.9521484
			c-0.7578125,0.8964844-1.8554688,1.3759766-3.0761719,1.3759766S186.4130859,131.8632812,185.6552734,130.9667969z
			 M187.7421875,124.9072266c-2.3955078,0.6337891-3.2304688,3.8339844-1.6542969,5.7197266
			c0.6337891,0.7568359,1.6083984,1.1904297,2.6435547,1.1904297c1.0507812,0,2.0400391-0.4335938,2.6738281-1.1904297
			c1.5771484-1.8857422,0.7109375-5.0859375-1.6845703-5.7197266
			C189.1025391,124.7529297,188.3759766,124.7373047,187.7421875,124.9072266z"/>
		<path class="st7" d="M195.3183594,126.3144531c0.3398438-1.1748047,1.5146484-1.9785156,2.7978516-1.9785156
			c0.1699219,0,0.2783203,0.0927734,0.2783203,0.2626953s-0.1083984,0.2626953-0.2783203,0.2626953
			c-1.9785156,0-2.7978516,1.6845703-2.7978516,3.5546875v3.5712891c0,0.1699219-0.1240234,0.2783203-0.2626953,0.2783203
			c-0.1699219,0-0.2783203-0.1083984-0.2783203-0.2783203v-7.3886719c0-0.1396484,0.1083984-0.2626953,0.2783203-0.2626953
			c0.1386719,0,0.2626953,0.1230469,0.2626953,0.2626953V126.3144531z"/>
		<path class="st7" d="M205.2568359,124.3818359c0.3251953-0.2783203,0.6953125,0.0771484,0.4023438,0.3710938l-3.3544922,2.9677734
			l3.6328125,4.1425781c0.2158203,0.3398438-0.1855469,0.5878906-0.3867188,0.3554688l-3.6630859-4.1582031l-1.3603516,1.1904297
			v2.7978516c0,0.3710938-0.5410156,0.3554688-0.5410156,0v-9.6757812c0-0.3867188,0.5410156-0.3554688,0.5410156,0v6.2285156
			L205.2568359,124.3818359z"/>
	</g>
</g>
</svg>
