<?xml version="1.0" encoding="utf-8"?>
<!-- Generator: Adobe Illustrator 22.1.0, SVG Export Plug-In . SVG Version: 6.00 Build 0)  -->
<svg version="1.1" xmlns="http://www.w3.org/2000/svg" xmlns:xlink="http://www.w3.org/1999/xlink" x="0px" y="0px"
	 viewBox="0 0 360 169.2940063" style="enable-background:new 0 0 360 169.2940063;" xml:space="preserve">
<style type="text/css">
	.st0{clip-path:url(#SVGID_2_);fill:#FFFFFF;}
	.st1{clip-path:url(#SVGID_4_);fill:#FFFFFF;}
	.st2{clip-path:url(#SVGID_6_);fill:#FFFFFF;}
	.st3{clip-path:url(#SVGID_8_);fill:#FFFFFF;}
	.st4{fill:#CCCCCC;}
	.st5{fill:#FFFFFF;}
</style>
<g id="Layer_2">
	<rect y="0.0020032" width="360" height="169.2899933"/>
</g>
<g id="Layer_1">
	<g>
		<g>
			<defs>
				<rect id="SVGID_1_" width="360" height="169.2940063"/>
			</defs>
			<clipPath id="SVGID_2_">
				<use xlink:href="#SVGID_1_"  style="overflow:visible;"/>
			</clipPath>
			<path class="st0" d="M350.3259888,91.7519989c-0.4259949,0.0479965-1.1679993-0.2020035-1.9140015-0.125
				c-0.6520081,0.0650024-2.105011,0.7689972-3.1759949,0.8860016c-1.0780029,0.1230011-2.3049927-0.1210022-3.6929932,0
				c-1.6170044,0.1439972-3.4200134,0.5459976-5.2170105,0.7689972c-1.9320068,0.2340012-3.8829956,0.2480011-5.730011,0.3830032
				c-3.7109985,0.2649994-7.1990051,0.7929993-7.7579956-2.6740036c-0.1879883-1.1559982,0.2890015-2.3359985,0.125-3.1849976
				c-2.6860046-0.586998-3.1210022,2.836998-5.4689941,2.6750031c-0.6759949-0.0510025-1.8179932-1.0619965-1.9079895-1.9059982
				c-0.230011-2.0780029,2.1350098-4.8119965,3.8110046-5.9869995c2.1759949-1.5130005,4.803009-2.3919983,7.2619934-2.4179993
				c1.0700073,2.2070007-1.6560059,3.1849976-1.0230103,5.3430023c2.2829895-0.3769989,3.875-2.6159973,5.2170105-4.4489975
				c1.9259949-2.6159973,4.480011-4.6090012,4.4590149-8.7850037c-1.9100037-1.9550018-4.1700134,0.3150024-6.1069946,1.2720032
				c-1.7030029,0.8479996-3.3009949,1.6119995-4.5799866,2.1709976c-0.6740112,0.2829971-1.5920105,0.3939972-2.2950134,0.7590027
				c-2.5960083,1.3420029-4.6350098,3.5490036-6.6210022,5.8560028c-1.5880127,1.8519974-5.0119934,5.2610016-4.4509888,8.1439972
				c0.2600098,1.3219986,1.8110046,1.310997,2.0390015,2.5469971c0.2619934,1.439003-0.6539917,2.7580032-1.9140015,3.3069992
				c-2.0610046,0.9020004-7.3789978,0.7030029-8.7820129,0.2549973c-0.6170044-0.2020035-1.2290039-0.9440002-1.9039917-1.276001
				c-4.1430054-1.9860001-11.5679932-2.1230011-12.0939941-6.9960022c-0.3099976-2.9550018,1.8829956-3.6070023,1.7850037-7.1289978
				c-0.7340088-0.7809982-2.0289917-1.4319992-3.0539856-1.2689972c-1.1119995,0.1689987-1.5220032,1.552002-2.4159851,2.1620026
				c-0.5969849,0.4059982-1.4500122,0.5429993-2.0360107,1.0179977c-1.8139954,1.4570007-2.8380127,3.913002-4.7130127,4.4520035
				c-1.2619934,3.9469986-7.7990112,2.4820023-11.196991,1.4020004c-0.7890015-0.8669968-1.8299866-1.4800034-2.9240112-2.0390015
				c-1.0270081,0.9309998-2.5069885,1.0149994-3.9490051,1.5289993c-1.2640076,0.4489975-2.6369934,1.3909988-3.9450073,1.5230026
				c-0.6799927,0.0780029-1.3890076-0.2020035-2.0330048-0.1230011c-1.2890015,0.1500015-2.3139954,1.0550003-3.6909943,0.8909988
				c2.4179993-1.9550018,7.1549988-3.7559967,7.7600098-7.6360016c0.6109924-3.8680038-2.1090088-7.1259995-4.9609985-7.637001
				c-6.647995-0.1470032-11.8359985,1.4000015-17.3090057,3.8160019c-2.0410004,0.9069977-3.852005,1.8219986-5.595993,2.9260025
				c-3.4100037,2.1579971-7.5059967,4.7220001-7.3809967,9.5480042c-0.7830048,0.5329971-2.3910065,0.4840012-3.1840057,0
				c-0.9450073,1.3479996-2.8090057,0.0970001-4.451004,0c-0.7129974-0.0429993-1.4799957,0.1880035-2.1660004,0.1299973
				c-0.8849945-0.0790024-1.5039978-0.1080017-2.1640015-0.5110016c-1.1519928-2.0920029,0.6390076-3.7600021,1.0200043-5.4729996
				c1.1820068-5.3359985-2.7929993-7.9850006-6.4900055-9.5469971c-1.375,0.9589996-3.0350037,1.637001-4.4550018,2.5469971
				c-0.4839935,2.8720016-3.0720062,4.6520004-3.1799927,7.5070038c-0.0939941,2.5530014,1.977005,3.8440018,1.7810059,6.7450027
				c-4.5690002,1.9860001-12.826004,2.0019989-17.6889954,0.2600021c-1.0859985-1.6620026-3.2960052-1.4179993-4.3280029-3.4430008
				c-0.7250061-1.4189987-0.0850067-5.8099976-1.397995-6.4869995c-2.1069946-1.0839996-4.7539978,2.0999985-5.852005,3.0500031
				c-1.8070068,1.5680008-3.9360046,2.1809998-5.9830017,3.185997c-1.5859985,0.7779999-4.3190002,3.6040039-6.1060028,3.0540009
				c-2.4940033-0.7649994,0.3869934-4.9960022,0-6.9990005c-0.4170074-2.1669998-4.753006-3.6750031-7.6380005-3.5670013
				c-1.1670074,0.0479965-2.4640045,0.6050034-3.6900024,0.8949966c-1.326004,0.3130035-2.6779938,0.5360031-3.9470062,0.7610016
				c-5.2189941,0.9319992-8.8769989,3.7089996-12.8529968,5.7300034c-2.0359955,1.0390015-3.9029999,2.4079971-5.9779968,3.0530014
				c0.3479996-3.5139999,2.6389999-7.7730026,1.9069977-11.8359985c-0.0759964-0.4199982-0.4919968-0.7809982-0.6350021-1.2710037
				c-0.1679993-0.560997-0.0569992-1.2149963-0.2539978-1.6559982c-0.4710007-1.0279999-1.7440033-1.8379974-2.5479965-2.5449982
				c-0.9850006-0.8659973-1.8479996-1.9169998-3.1790009-2.0370026c-2.9059982-0.2580032-4.473999,2.0699997-5.9800034,3.564003
				c0.9570007,2.4489975-1.0459976,4.3619995-2.5469971,6.112999c-1.2900009,1.4940033-2.7929993,2.5090027-3.8180008,3.5550003
				c-0.6119995,0.6320038-1.038002,1.5889969-1.5279999,1.7870026c-1.3160019,0.5250015-3.2519989,0.3610001-4.7089996,0.5059967
				c-1.6110001,0.1679993-3.1230011,0.3170013-4.8359985,0.3830032c-3.6790009-5.9950027,7.8830032-6.8690033,4.3290024-13.2360001
				c-1.6190033-0.3730011-3.3280029-0.7089996-5.090004-0.7600021c-1.6579971-0.0559998-4.0429993-0.2809982-5.8550034,0.1259995
				c-1.2460022,0.2809982-2.9069977,1.8389969-4.1999969,2.8030014c-1.4540024,1.0780029-2.8570023,1.9899979-4.0699997,3.0500031
				c-2.5390015,2.2200012-4.7450027,5.2910004-7.3809967,6.7480011c-2.4380035,1.3479996-7.5589981,1.8779984-11.3240013,1.5309982
				c-2.1080017-0.2030029-2.8860016-1.2020035-4.2019997-1.9160004c-0.8709984-0.4670029-1.8549995-0.5329971-2.7999992-1.2720032
				c-1.2540016,0.625-2.5359993-0.1210022-3.6949997-0.1269989c-0.7820015-0.0029984-1.4189987,0.3330002-2.1609993,0.2539978
				c-0.9609985-0.1029968-1.7659988-0.8970032-2.7970009-1.1470032c-0.612999-0.1460037-1.2869987,0.0049973-1.7809982-0.1230011
				c-0.75-0.1940002-1.3279991-1.0149994-2.1619987-1.276001c-0.6720009-0.2009964-1.4449997-0.0370026-2.0390015-0.2559967
				c-0.7849998-0.2770004-1.2190018-1.0029984-2.0390015-1.5230026c-0.4860001-0.314003-1.2120018-0.3590012-1.6539993-0.6389999
				c-0.6220016-0.3929977-0.993-1.2389984-1.6520004-1.5230026c-0.8930016-0.3909988-1.8190002-0.0749969-2.5439987-0.2559967
				c0.7249985-0.8059998,0.4099998-1.862999,0.7639999-3.0550003c0.1349983-0.4520035,0.4550018-0.4449997,0.5099983-0.8860016
				c0.1500015-1.2679977-0.5410004-2.5220032-0.5099983-3.6940002c0.0600014-2.5,1.9339981-3.7089996,2.5439987-5.8519974
				c-0.9869995-3.8289986,2.4399986-5.3359985,2.6730003-8.7819977c0.9160004-1.0950012,1.9780006-2.1990013,2.4169998-3.6899986
				c0.1679993-0.5820007,0.0690002-1.2029991,0.2529984-1.7789993c0.4990005-1.5569992,2.3839989-2.7809982,3.3090019-4.3330002
				c0.9519997-1.5909996,1.1020012-4.218998,2.288002-5.2150002c0.5390015-0.4519997,1.3769989-0.4230003,1.9099998-0.7649994
				c1.7519989-1.1209984,1.9340019-3.1549988,2.8030014-4.9589996c1.3979988-0.0900002,1.5800018-1.3930016,2.7989998-1.6599998
				c0.0740013-1.1559982,0.9459991-1.5099983,1.0200005-2.670002c3.7319984-3.1149998,6.0760002-7.487999,9.5440025-10.5629997
				c1.8330002-1.6259995,4.3970032-2.5680008,5.4670029-4.8360004c6.3150024-2.6820002,10.3359985-8.3260002,19.3499985-7.8859997
				c0.8649979,5.0279999-4.6640015,6.7220001-6.6220016,9.9220009c-0.3610001,0.5919991-0.4110031,1.3409996-0.7639999,1.9120007
				c-1.7310028,2.7770004-4.6259995,4.132-6.7430038,6.3610001c-0.0199966,1.2010002-1.4489975,1.7380009-0.6380005,2.671999
				c2.0209961-0.0289993,2.5329971-1.625,4.3219986-2.2989998c2.6819992-3.7670002,5.927002-5.5270004,8.7870026-8.519001
				c1.5049973-1.5709991,1.9369965-4.0710001,3.3099976-5.5979996c0.6449966-0.7229996,1.7190018-1.0100002,2.5449982-1.6540003
				c2.7819977-2.1730003,7.1119995-8.5039997,3.0559998-11.8360004c-2.8199997,0.023-4.3659973,1.64-6.625,2.5469999
				c-3.8590012,1.5430002-8.1500015,2.921-10.6870041,5.6000004c-2.7649994,0.3959999-3.848999,1.7480001-5.8529968,3.1779995
				c-1.3399963,0.96-2.9860001,1.3669996-3.8180008,2.0380001c-0.8030014,0.6540003-1.1900024,1.8099995-1.9089966,2.5489998
				c-2.3030014,2.3479996-5.3260002,4.1800003-7.7610016,6.6130009c-2.4490013,2.4529991-4.9589996,4.737999-6.4889984,7.8899994
				c-2.4039993,1.3239994-3.5950012,3.6899986-5.4720001,5.7260017c-0.7210007,0.7840004-1.6619987,1.3079987-2.1660004,2.038002
				c-0.7249985,1.0550003-1.0740013,2.3829994-1.7809982,3.5649986c-2.0019989,3.3310013-5.0750008,6.1409988-6.9970016,9.4150009
				c-2.2200012,3.7750015-3.8460007,7.5810013-5.7270012,11.3240013c-1.0249996,2.0429993-1.9799995,3.8550034-2.6730003,5.8529968
				c-0.8260002,2.3899994-0.7150002,4.651001-0.8910007,7.7610016c-0.0529995,0.9219971-0.4260006,1.8669968-0.3810005,2.8030014
				c0.0809994,1.6839981,1.0779991,3.1579971,1.2719994,4.9609985c1.4899998,1.3290024,3.7520008,2.8789978,5.5990009,3.6910019
				c1.5979996,0.7040024,3.3909988,0.8789978,4.9640007,1.7850037c0.8100014,0.4680023,1.3709984,1.4469986,2.2900009,1.9079971
				c1.7519989,0.8710022,4.0219994,1.0739975,5.9819984,1.1460037c2.1990013,0.0800018,4.9659996-0.7429962,6.8720016-0.3850021
				c0.8330002,0.163002,1.4799995,0.836998,2.288002,1.0220032c2.1259995,0.4810028,4.0719986-0.3460007,6.6199989-0.3850021
				c1.2729988-0.0199966,2.6680031,0.3909988,3.942997,0c0.7080002-0.2149963,1.375-1.0479965,2.4169998-1.0159988
				c1.7509995,0.0530014,3.2030029,1.8799973,4.8359985,2.0370026c4.6240005,0.4339981,6.177002-3.3550034,11.0719986-2.7990036
				c1.0309982,1.0350037,1.3239975,1.822998,2.4179993,2.1620026c1.6110001,0.487999,3.5070038-0.1039963,5.2220001-0.1309967
				c0.8619995-0.0070038,2.0039978,0.2679977,2.6679993,0.1309967c1.1259995-0.2419968,1.7720032-1.2639999,2.8010025-1.4000015
				c0.6350021-0.0879974,1.3690033,0.1579971,2.0400009,0.125c2.1119995-0.1119995,6.7870026-1.3219986,8.1380005-2.1620026
				c0.6070023-0.3710022,1.2480011-1.3379974,2.1640015-2.1679993c0.7639999-0.6839981,1.5780029-1.4649963,2.1660004-2.163002
				c1.814003-2.1579971,4.5739975-5.935997,6.2320023-2.5410004c1.3600006,2.7770004,0.1269989,6.5979996-0.8850021,9.6719971
				c-0.7890015,2.375-4.2220001,8.026001,1.3970032,7.1279984c0.9710007-0.1559982,2.4319992-1.2040024,3.564003-1.9110031
				c8.0199966-5.0159988,14.762001-11.0439987,27.4870071-10.8170013c4.6569977,3.3960037-2.6230011,7.4720001-2.4190063,11.965004
				c2.3910065,0.7340012,3.9360046-0.9100037,5.727005-1.401001c1.0549927-0.2890015,2.1790009-0.1900024,3.1820068-0.512001
				c2.154007-0.689003,3.9750061-2.4789963,5.8549957-3.6900024c2.0269928-1.302002,4.1150055-2.3119965,6.996994-2.5449982
				c0.5800018,0.9530029,1.1439972,1.9069977,1.401001,3.1839981c3.3339996,1.4570007,5.6320038,3.4629974,9.1629944,4.2030029
				c4.2140045,0.8690033,8.572998,0.3539963,12.3410034,0c1.9790039-0.1920013,3.6970062-0.5,5.3439941-1.151001
				c1.5610046-0.6179962,3.0449982-1.5479965,4.7149963-1.9059982c1.7149963-0.3710022,3.3009949-0.0579987,4.8339996-0.1309967
				c0.8549957-0.0390015,1.5390015-0.4059982,2.4179993-0.25c0.6210022,0.1060028,1.1719971,0.6340027,1.9060059,0.7590027
				c1.1880035,0.2080002,4.4380035,0.3769989,5.0939941,0.1289978c0.4859924-0.1819992,0.9649963-0.6620026,1.522995-0.7610016
				c0.6660004-0.1169968,1.272995,0.1549988,1.9100037,0c1.1130066-0.2829971,1.6309967-1.3079987,2.6719971-1.5299988
				c0.6329956,0.7269974,1.6410065,1.0739975,2.4179993,1.6529999c3.4570007,0.0889969,6.4940033,1.2369995,9.6719971,0.3840027
				c2.0429993-0.5459976,4.2830048-2.0039978,6.875-0.8909988c-1.1580048,1.3479996-2.4609985,2.5439987-2.798996,4.7080002
				c-0.8999939,0.7900009-1.2230072,1.6920013-1.9080048,2.4219971c-0.7559967,0.7819977-1.4120026,1.5220032-2.0429993,2.288002
				c-2.5350037,3.0780029-3.9340057,7.1050034-6.8710022,9.5480042c-0.6499939,0.5319977-1.6040039,0.6880035-2.1640015,1.2689972
				c-0.8609924,0.8980026-0.9859924,1.9140015-1.7830048,2.6719971c-1.5859985,1.5210037-3.7339935,2.6600037-5.4649963,3.9489975
				c-1.8359985,1.3529968-3.6060028,2.7659988-5.3500061,4.0690002
				c-8.8200073,6.5819931-15.522995,16.1899948-18.5800018,28.7589951
				c-0.6289978,2.5939941-1.4389954,5.6779938-1.1499939,8.3990021c0.7359924,6.7169952,9.5919952,8.8079987,14.1349945,5.0879974
				c3.9389954-3.220993,5.7050018-8.7740021,8.397995-13.3600006c1.4450073-2.4629974,3.154007-4.7550049,4.3240051-7.3820038
				c2.102005-4.7070007,3.7360077-10.1999969,5.9790039-14.5039978c0.3419952-0.6439972,0.9120026-1.3079987,1.1459961-1.9120026
				c0.4450073-1.1040039,0.423996-2.1329956,0.7660065-3.0490036c1.1009979-2.9660034,2.4790039-4.7630005,4.076004-7.6380005
				c0.1349945-0.5250015-0.7890015,0.0159988-0.5119934-0.6399994c0.1640015-0.7220001,0.6349945-1.1380005,1.0160065-1.651001
				v-1.5270004c0.7380066-0.3320007,0.8029938-1.25,1.147995-1.9100037
				c0.9819946-1.8889999,1.9470062-4.3540039,3.1799927-6.1070023c0.4470062-0.6330032,1.1100006-1.0250015,1.5279999-1.6500015
				c1.5950012-2.4219971,2.6999969-4.7300034,4.3289948-7.1320038c0.6600037-0.9800034,1.4429932-2.0189972,2.4140015-3.3059998
				c0.6049957-0.8099976,1.9320068-3.0390015,2.5480042-3.3099976c1.6829987-0.7429962,3.7610016,0.4869995,5.723999,0
				c1.6859894-0.4219971,2.6699982-1.8809967,4.7069855-1.7839966c4.4710083,3.9509964,14.1529846,3.6070023,21.6350098,2.5449982
				c0.243988,0.5660019,0.3590088,1.2639999,0.6369934,1.7839966c1.053009,0.5699997,2.0369873,0.7399979,3.1820068,1.5240021
				c0.7820129,0.5410004,1.1799927,1.6600037,2.0369873,2.0370026c0.8590088,0.3840027,2.3890076,0.3259964,3.6929932,0.6380005
				c1.1860046,0.2839966,2.4219971,0.6080017,3.5589905,0.8919983c6.5119934,1.6149979,13.1390076,1.8550034,16.7950134-2.4189987
				c2.821991,0.3259964,5.6210022-2.8130035,8.2770081-0.7659988c2.0639954-0.9499969,3.7640076,0.2160034,5.7229919,0.3850021
				c1.631012,0.1340027,3.5289917,0.1900024,5.0960083-0.2539978c1.2730103-0.3659973,2.3359985-1.2099991,3.5610046-1.2720032
				c1.019989-0.0550003,2.1910095,0.3479996,3.3070068,0.25c2.0639954-0.1699982,4.4649963-1.7649994,7.2579956-1.9059982
				c1.25-0.0650024,2.6019897,0.3239975,3.8139954,0.2539978c1.7130127-0.0999985,2.7909851-1.2949982,4.071991-1.6539993
				c2.6860046-0.7559967,6.5660095,0.4789963,7.2579956-2.927002
				C356.5230103,88.3010025,353.178009,91.4499969,350.3259888,91.7519989 M89.9580002,85.2590027
				c-0.8290024,0.2040024-1.6800003-0.2910004-1.9150009-0.7600021c-0.9380035-1.9380035,2.1500015-5.3249969,3.8219986-3.0569992
				C91.4089966,82.8610001,91.2170029,84.9639969,89.9580002,85.2590027 M206.3919983,89.2060013
				c-3.8630066,2.4609985-4.5740051-7.5169983,0-5.4670029C206.8450012,85.2350006,207.875,88.2720032,206.3919983,89.2060013
				 M219.7570038,136.0399933c-0.3200073,4.3939972-3.0209961,7.4530029-4.7089996,10.8199921
				c-0.6699982,1.3399963-1.0469971,2.9179993-1.9080048,4.1959991c-0.8320007,1.2350006-2.0820007,2.3059998-2.5449982,3.5599976
				c-0.1809998,0.5-0.1560059,1.4759979-0.3789978,2.1640015c-0.8320007,2.5240021-3.5700073,4.5839996-6.3650055,5.6009979
				c-0.5919952,0.2149963-1.3049927,0.3190002-1.9080048,0.5119934c-0.8930054,0.2830048-0.9179993,0.6459961-1.6560059,0.378006
				c-0.522995-0.1950073-1.0449982-1.1809998-1.1430054-2.4140015c-0.1990051-2.4790039,0.8159943-4.2720032,1.3999939-6.7480011
				c0.5980072-2.5390015,0.6430054-4.8919983,1.522995-6.6150055c0.4550018-0.8849945,1.477005-1.595993,2.1660004-2.5449982
				c3.7669983-5.2030029,7.4920044-11.223999,12.5919952-15.1490021c0.8670044-0.6580048,2.0980072-0.9140015,2.9320068-1.651001
				c0.8609924-0.7529984,1.1499939-2.0800018,2.4199982-2.5439987c0.697998-0.2580032,1.3690033,0.0419998,1.9080048-0.1269989
				c0.6069946-0.1900024,0.9859924-1.012001,1.6499939-1.1470032
				C224.1380005,128.1179962,222.5540009,133.0200043,219.7570038,136.0399933 M247.6260071,86.1520004
				c-0.253006,0.7979965,0.1170044,1.5699997,0,2.2919998c-0.1620026,0.9860001-0.897995,1.4810028-1.2700043,2.4219971
				c-2.1640015,0.762001-6.227005,0.7720032-9.8029938,1.0169983c-3.029007,0.2020035-6.1349945,0.9889984-7.3809967-1.401001
				c-0.1750031-0.3410034-0.2250061-0.5270004-0.25-0.8909988c-0.0700073-0.9800034,0.4019928-1.9919968,0.5059967-2.9260025
				c1.9219971-3.3519974,6.3439941-4.1040039,11.1959991-4.836998c4.9049988-0.7429962,7.4889984-3.0569992,11.9620056-2.8030014
				c0.5119934,0.4250031,0.7949982,1.0759964,1.2769928,1.5299988
				C253.2079926,83.7429962,248.5399933,83.3040009,247.6260071,86.1520004"/>
		</g>
		<g>
			<defs>
				<rect id="SVGID_3_" width="360" height="169.2940063"/>
			</defs>
			<clipPath id="SVGID_4_">
				<use xlink:href="#SVGID_3_"  style="overflow:visible;"/>
			</clipPath>
			<path class="st1" d="M294.5830078,75.7699966c-2.0069885,0.6039963-5.0400085,0.3600006-4.4570007-2.4199982
				c0.9400024-0.9499969,3.07901-1.8639984,4.1919861-0.5110016
				C294.5830078,73.6139984,294.7890015,74.9280014,294.5830078,75.7699966"/>
		</g>
		<g>
			<defs>
				<rect id="SVGID_5_" width="360" height="169.2940063"/>
			</defs>
			<clipPath id="SVGID_6_">
				<use xlink:href="#SVGID_5_"  style="overflow:visible;"/>
			</clipPath>
			<path class="st2" d="M351.355011,115.9280014c-123.6759949-5.375-235.7920074-7.3730011-344.2200012-4.0469971
				c46.8919983-4.4029999,105.7289963-5.7440033,166.2630005-5.2399979
				c36.2400055,0.3050003,68.3110046,1.9530029,110.9689941,3.9000015
				C308.3710022,111.6330032,333.6700134,111.1490021,351.355011,115.9280014"/>
		</g>
		<g>
			<defs>
				<rect id="SVGID_7_" width="360" height="169.2940063"/>
			</defs>
			<clipPath id="SVGID_8_">
				<use xlink:href="#SVGID_7_"  style="overflow:visible;"/>
			</clipPath>
			<path class="st3" d="M0.078,76.0250015C-0.005,75.8300018,0.001,75.7070007,0,75.6610031v-0.2080002l0.125-0.1620026
				c0.073-0.1029968,2.7190001-3.5400009,11.2969999-6.5189972c8.4240007-2.927002,15.7679987-6.8089981,19.2729988-8.2929993
				c1.5629997-0.6580009,3.8540001-2.4469986,5.6839981-4.0569992c1.8419991-1.612999,3.2610016-3.0410004,3.262001-3.0460014
				l0.0810013-0.0800018l0.105999-0.0489998c0.0009995-0.0050011,1.7010002-0.7649994,4.3540001-2.3790016
				c2.6539993-1.6119995,6.243-4.0569992,9.9540024-7.3849983c7.5340004-6.7459984,10.0530014-7.1969986,12.0309982-9.5530014
				c2.3619995-2.7129993,9.8069992-6.7210007,9.836998-6.7519989L76.5,27.0350018l3.1620026,0.5300007l-1.3420029,1.4820004
				c-0.0059967,0.0020008-4.7480011,3.4590015-6.1699982,4.4110012c-0.9759979,0.6459999-7.5019989,5.7579994-11.0530014,8.882
				c-1.1749992,1.0279999-2.0690002,1.9140015-2.2010002,2.1450005c-0.3880005,0.5760002-1.1049995,1.0789986-2.0649986,1.7260017
				c-0.9560013,0.6279984-2.1339989,1.3310013-3.3199997,2.0449982c-2.3590012,1.3989983-4.8279991,2.9550018-5.3899994,3.7560005
				c-0.9360008,1.2140007-3.3849983,2.6660004-6.0979996,4.3689995c-0.9959984,1.1160011-3.3359985,2.5449982-7.1350021,5.0509987
				c-3.5289993,3.4529991-17.4960003,8.7759972-19.9899998,9.1130028c-0.6490002,0.0630035-2.7010002,0.8000031-4.8839998,1.7170029
				c-2.204,0.9140015-4.6279998,2.012001-6.3049998,2.8150024c-1.096,0.5189972-1.948,0.9769974-1.9859999,1.0189972
				c-0.311,0.2369995-0.5470001,0.3850021-0.911,0.3990021c-0.01,0.0019989-0.025,0.0019989-0.035,0.0019989
				C0.443,76.4970016,0.133,76.2109985,0.078,76.0250015"/>
		</g>
		<g>
			<defs>
				<rect id="SVGID_9_" width="360" height="169.2940063"/>
			</defs>
			<clipPath id="SVGID_10_">
				<use xlink:href="#SVGID_9_"  style="overflow:visible;"/>
			</clipPath>
		</g>
		<g>
			<defs>
				<rect id="SVGID_11_" width="360" height="169.2940063"/>
			</defs>
			<clipPath id="SVGID_12_">
				<use xlink:href="#SVGID_11_"  style="overflow:visible;"/>
			</clipPath>
		</g>
		<g>
			<defs>
				<rect id="SVGID_13_" width="360" height="169.2940063"/>
			</defs>
			<clipPath id="SVGID_14_">
				<use xlink:href="#SVGID_13_"  style="overflow:visible;"/>
			</clipPath>
		</g>
		<g>
			<defs>
				<rect id="SVGID_15_" width="360" height="169.2940063"/>
			</defs>
			<clipPath id="SVGID_16_">
				<use xlink:href="#SVGID_15_"  style="overflow:visible;"/>
			</clipPath>
		</g>
		<g>
			<defs>
				<rect id="SVGID_17_" width="360" height="169.2940063"/>
			</defs>
			<clipPath id="SVGID_18_">
				<use xlink:href="#SVGID_17_"  style="overflow:visible;"/>
			</clipPath>
		</g>
		<g>
			<defs>
				<rect id="SVGID_19_" width="360" height="169.2940063"/>
			</defs>
			<clipPath id="SVGID_20_">
				<use xlink:href="#SVGID_19_"  style="overflow:visible;"/>
			</clipPath>
		</g>
		<g>
			<defs>
				<rect id="SVGID_21_" width="360" height="169.2940063"/>
			</defs>
			<clipPath id="SVGID_22_">
				<use xlink:href="#SVGID_21_"  style="overflow:visible;"/>
			</clipPath>
		</g>
		<g>
			<defs>
				<rect id="SVGID_23_" width="360" height="169.2940063"/>
			</defs>
			<clipPath id="SVGID_24_">
				<use xlink:href="#SVGID_23_"  style="overflow:visible;"/>
			</clipPath>
		</g>
		<g>
			<defs>
				<rect id="SVGID_25_" width="360" height="169.2940063"/>
			</defs>
			<clipPath id="SVGID_26_">
				<use xlink:href="#SVGID_25_"  style="overflow:visible;"/>
			</clipPath>
		</g>
		<g>
			<defs>
				<rect id="SVGID_27_" width="360" height="169.2940063"/>
			</defs>
			<clipPath id="SVGID_28_">
				<use xlink:href="#SVGID_27_"  style="overflow:visible;"/>
			</clipPath>
		</g>
		<g>
			<defs>
				<rect id="SVGID_29_" width="360" height="169.2940063"/>
			</defs>
			<clipPath id="SVGID_30_">
				<use xlink:href="#SVGID_29_"  style="overflow:visible;"/>
			</clipPath>
		</g>
		<g>
			<defs>
				<rect id="SVGID_31_" width="360" height="169.2940063"/>
			</defs>
			<clipPath id="SVGID_32_">
				<use xlink:href="#SVGID_31_"  style="overflow:visible;"/>
			</clipPath>
		</g>
		<g>
			<defs>
				<rect id="SVGID_33_" width="360" height="169.2940063"/>
			</defs>
			<clipPath id="SVGID_34_">
				<use xlink:href="#SVGID_33_"  style="overflow:visible;"/>
			</clipPath>
		</g>
		<g>
			<defs>
				<rect id="SVGID_35_" width="360" height="169.2940063"/>
			</defs>
			<clipPath id="SVGID_36_">
				<use xlink:href="#SVGID_35_"  style="overflow:visible;"/>
			</clipPath>
		</g>
		<g>
			<defs>
				<rect id="SVGID_37_" width="360" height="169.2940063"/>
			</defs>
			<clipPath id="SVGID_38_">
				<use xlink:href="#SVGID_37_"  style="overflow:visible;"/>
			</clipPath>
		</g>
		<g>
			<defs>
				<rect id="SVGID_39_" width="360" height="169.2940063"/>
			</defs>
			<clipPath id="SVGID_40_">
				<use xlink:href="#SVGID_39_"  style="overflow:visible;"/>
			</clipPath>
		</g>
		<g>
			<defs>
				<rect id="SVGID_41_" width="360" height="169.2940063"/>
			</defs>
			<clipPath id="SVGID_42_">
				<use xlink:href="#SVGID_41_"  style="overflow:visible;"/>
			</clipPath>
		</g>
		<g>
			<defs>
				<rect id="SVGID_43_" width="360" height="169.2940063"/>
			</defs>
			<clipPath id="SVGID_44_">
				<use xlink:href="#SVGID_43_"  style="overflow:visible;"/>
			</clipPath>
		</g>
		<g>
			<defs>
				<rect id="SVGID_45_" width="360" height="169.2940063"/>
			</defs>
			<clipPath id="SVGID_46_">
				<use xlink:href="#SVGID_45_"  style="overflow:visible;"/>
			</clipPath>
		</g>
		<g>
			<defs>
				<rect id="SVGID_47_" width="360" height="169.2940063"/>
			</defs>
			<clipPath id="SVGID_48_">
				<use xlink:href="#SVGID_47_"  style="overflow:visible;"/>
			</clipPath>
		</g>
	</g>
	<g>
		<path class="st4" d="M30.9233398,137.7148438c0.0942383-0.2412109,0.1289062-0.2841797,0.1806641-0.2841797
			c0.0771484,0,0.1030273,0.1035156,0.1806641,0.2666016c0.1376953,0.3095703,1.3510742,3.3310547,1.815918,4.4404297
			c0.2753906,0.6542969,0.4819336,0.7490234,0.6455078,0.8007812c0.1118164,0.0341797,0.2236328,0.0429688,0.3007812,0.0429688
			c0.043457,0,0.0947266,0.0175781,0.0947266,0.0605469s-0.0859375,0.0595703-0.171875,0.0595703
			c-0.1118164,0-0.6713867,0-1.1962891-0.0166016c-0.1464844-0.0087891-0.2666016-0.0087891-0.2666016-0.0517578
			c0-0.0341797,0.0170898-0.0341797,0.0512695-0.0517578c0.043457-0.0175781,0.1206055-0.0771484,0.0688477-0.1982422
			l-0.6796875-1.6777344c-0.0170898-0.0341797-0.0258789-0.0429688-0.0688477-0.0429688h-1.7470703
			c-0.0341797,0-0.0600586,0.0175781-0.0776367,0.0605469l-0.4301758,1.1699219
			c-0.0688477,0.1806641-0.1118164,0.3613281-0.1118164,0.4902344c0,0.1464844,0.1289062,0.1982422,0.2583008,0.1982422h0.0688477
			c0.0600586,0,0.0771484,0.0263672,0.0771484,0.0605469c0,0.0429688-0.0429688,0.0595703-0.1118164,0.0595703
			c-0.1806641,0-0.59375-0.0253906-0.6796875-0.0253906c-0.0776367,0-0.4560547,0.0253906-0.7661133,0.0253906
			c-0.0947266,0-0.1459961-0.0166016-0.1459961-0.0595703c0-0.0341797,0.0341797-0.0605469,0.0688477-0.0605469
			c0.0517578,0,0.1635742-0.0087891,0.2236328-0.0175781c0.3442383-0.0429688,0.4907227-0.3007812,0.6367188-0.6708984
			L30.9233398,137.7148438z M31.7666016,140.7607422c0.0341797,0,0.0341797-0.0166016,0.0258789-0.0507812l-0.7490234-2.0058594
			c-0.0429688-0.1113281-0.0859375-0.1113281-0.1289062,0l-0.7055664,2.0058594
			c-0.0087891,0.0341797,0,0.0507812,0.0258789,0.0507812H31.7666016z"/>
		<path class="st4" d="M36.2412109,140.9765625c0,0.7050781,0,1.2822266,0.0341797,1.5830078
			c0.0258789,0.2158203,0.0605469,0.3535156,0.2929688,0.3876953c0.1030273,0.0166016,0.2753906,0.0341797,0.3442383,0.0341797
			c0.0512695,0,0.0600586,0.0341797,0.0600586,0.0605469c0,0.0341797-0.0341797,0.0595703-0.1206055,0.0595703
			c-0.4130859,0-0.8950195-0.0253906-0.9379883-0.0253906c-0.0341797,0-0.5595703,0.0253906-0.7832031,0.0253906
			c-0.0859375,0-0.1201172-0.0166016-0.1201172-0.0595703c0-0.0263672,0.0170898-0.0517578,0.0600586-0.0517578
			c0.0688477,0,0.1547852-0.0175781,0.2236328-0.0341797c0.1547852-0.0351562,0.1977539-0.1806641,0.2236328-0.3964844
			c0.034668-0.3007812,0.034668-0.8779297,0.034668-1.5830078v-3.0722656l-1.0927734,0.0166016
			c-0.4736328,0.0087891-0.6542969,0.0605469-0.7661133,0.2324219c-0.0859375,0.1289062-0.0947266,0.1806641-0.1206055,0.2324219
			c-0.0170898,0.0605469-0.0429688,0.0693359-0.0771484,0.0693359c-0.0175781,0-0.0517578-0.0175781-0.0517578-0.0605469
			c0-0.0771484,0.1459961-0.7314453,0.1635742-0.7919922c0.0083008-0.0429688,0.0512695-0.1376953,0.0771484-0.1376953
			c0.0517578,0,0.1293945,0.0605469,0.3359375,0.0859375c0.2148438,0.0263672,0.5073242,0.0351562,0.59375,0.0351562h2.8569336
			c0.2495117,0,0.421875-0.0175781,0.5424805-0.0351562c0.1118164-0.0166016,0.1806641-0.0341797,0.2148438-0.0341797
			c0.034668,0,0.034668,0.0429688,0.034668,0.0859375c0,0.2236328-0.0258789,0.7490234-0.0258789,0.8349609
			c0,0.0605469-0.034668,0.0947266-0.0688477,0.0947266c-0.034668,0-0.0517578-0.0253906-0.0605469-0.1289062l-0.0083008-0.0771484
			c-0.0258789-0.2246094-0.1894531-0.3876953-0.9121094-0.4052734l-0.9467773-0.0166016V140.9765625z"/>
		<path class="st4" d="M43.2900391,142.2226562c-0.9101562-0.8164062-1.1352539-1.8867188-1.1352539-2.7783203
			c0-0.6289062,0.2158203-1.7265625,1.0512695-2.5615234c0.5629883-0.5634766,1.4169922-1.0039062,2.8618164-1.0039062
			c0.3754883,0,0.9008789,0.0273438,1.3608398,0.1123047c0.3564453,0.0654297,0.6567383,0.1220703,0.9570312,0.140625
			c0.1035156,0.0097656,0.1220703,0.046875,0.1220703,0.1035156c0,0.0751953-0.0283203,0.1875-0.046875,0.5253906
			c-0.0185547,0.3095703-0.0185547,0.8261719-0.0283203,0.9667969c-0.0092773,0.140625-0.027832,0.1962891-0.0844727,0.1962891
			c-0.0654297,0-0.074707-0.0654297-0.074707-0.1962891c0-0.3662109-0.1503906-0.7509766-0.3945312-0.9580078
			c-0.328125-0.28125-1.0507812-0.5341797-1.8764648-0.5341797c-1.2480469,0-1.8300781,0.3662109-2.1586914,0.6845703
			c-0.6850586,0.6572266-0.8442383,1.4921875-0.8442383,2.4492188c0,1.7929688,1.3793945,3.4345703,3.3876953,3.4345703
			c0.7036133,0,1.2573242-0.0839844,1.6328125-0.46875c0.1967773-0.2070312,0.3188477-0.6191406,0.347168-0.7880859
			c0.0185547-0.1035156,0.0375977-0.140625,0.09375-0.140625c0.046875,0,0.065918,0.0654297,0.065918,0.140625
			c0,0.0654297-0.112793,0.8818359-0.206543,1.2011719c-0.0566406,0.1777344-0.0751953,0.1962891-0.2441406,0.2714844
			c-0.3754883,0.1503906-1.0883789,0.2158203-1.6889648,0.2158203
			C44.9794922,143.2353516,44.0317383,142.8886719,43.2900391,142.2226562z"/>
		<path class="st4" d="M52.7963867,136.9580078c1.8583984,0,3.2661133,1.1347656,3.2661133,2.9931641
			c0,1.7832031-1.3232422,3.2568359-3.3129883,3.2568359c-2.2612305,0-3.2280273-1.6992188-3.2280273-3.1347656
			C49.5214844,138.7880859,50.5161133,136.9580078,52.7963867,136.9580078z M52.984375,142.8789062
			c0.7412109,0,2.2333984-0.3935547,2.2333984-2.7021484c0-1.9150391-1.1635742-2.9189453-2.4682617-2.9189453
			c-1.3793945,0-2.3740234,0.8632812-2.3740234,2.5996094C50.3754883,141.7158203,51.4921875,142.8789062,52.984375,142.8789062z"/>
		<path class="st4" d="M58.5400391,140.8056641c0,1.1728516,0.019043,1.6513672,0.1689453,1.7919922
			c0.1313477,0.1308594,0.4506836,0.1875,1.0981445,0.1875c0.4316406,0,0.7978516-0.0097656,0.9946289-0.2441406
			c0.1035156-0.1220703,0.1689453-0.2910156,0.1972656-0.4501953c0.0092773-0.0566406,0.0375977-0.1035156,0.0844727-0.1035156
			c0.0375977,0,0.0561523,0.0380859,0.0561523,0.1220703c0,0.0849609-0.0561523,0.5634766-0.1220703,0.7978516
			c-0.0561523,0.1875-0.0844727,0.2158203-0.5253906,0.2158203c-0.5913086,0-1.0512695-0.0097656-1.4360352-0.0283203
			c-0.375-0.0087891-0.6567383-0.0185547-0.9008789-0.0185547c-0.0371094,0-0.1782227,0-0.3374023,0.0097656
			c-0.1689453,0.0087891-0.3476562,0.0185547-0.4790039,0.0185547c-0.0844727,0-0.1313477-0.0185547-0.1313477-0.0654297
			c0-0.0283203,0.019043-0.0664062,0.065918-0.0664062c0.0751953,0,0.1782227-0.0185547,0.253418-0.0371094
			c0.159668-0.0380859,0.1782227-0.1875,0.2158203-0.4228516c0.046875-0.328125,0.046875-0.9570312,0.046875-1.7265625v-1.4072266
			c0-1.2392578,0-1.4638672-0.019043-1.7177734c-0.0185547-0.2714844-0.0654297-0.4033203-0.3374023-0.4404297
			c-0.065918-0.0097656-0.206543-0.0185547-0.2817383-0.0185547c-0.0283203,0-0.0654297-0.0380859-0.0654297-0.0664062
			c0-0.046875,0.0371094-0.0654297,0.1313477-0.0654297c0.375,0,0.8911133,0.0185547,0.9379883,0.0185547
			c0.0375977,0,0.6572266-0.0185547,0.9106445-0.0185547c0.0844727,0,0.1313477,0.0185547,0.1313477,0.0654297
			c0,0.0283203-0.0375977,0.0566406-0.065918,0.0566406c-0.0561523,0-0.1782227,0.0097656-0.2719727,0.0185547
			c-0.2441406,0.046875-0.2910156,0.1689453-0.3095703,0.4501953c-0.0097656,0.2539062-0.0097656,0.4785156-0.0097656,1.7177734
			V140.8056641z"/>
		<path class="st4" d="M62.3408203,139.3789062c0-1.2392578,0-1.4638672-0.0185547-1.7177734
			c-0.019043-0.2529297-0.065918-0.4033203-0.3378906-0.4404297c-0.065918-0.0097656-0.206543-0.0185547-0.2817383-0.0185547
			c-0.027832,0-0.0654297-0.0380859-0.0654297-0.0664062c0-0.046875,0.0375977-0.0654297,0.1313477-0.0654297
			c0.375,0,0.8725586,0.0185547,0.9477539,0.0185547s0.5913086-0.0185547,0.8349609-0.0185547
			c0.09375,0,0.1411133,0.0185547,0.1411133,0.0654297c0,0.0283203-0.0375977,0.0664062-0.0751953,0.0664062
			c-0.0566406,0-0.1035156,0-0.206543,0.0185547c-0.2158203,0.0371094-0.2626953,0.1777344-0.2817383,0.4404297
			c-0.0185547,0.2539062-0.0185547,0.4785156-0.0185547,1.7177734v1.1162109c0,1.1542969,0.253418,1.6328125,0.6098633,1.9521484
			c0.4038086,0.3662109,0.7602539,0.4316406,1.2294922,0.4316406c0.5068359,0,0.9946289-0.2246094,1.2763672-0.5625
			c0.3847656-0.4599609,0.4692383-1.1171875,0.4692383-1.9335938v-1.0039062c0-1.2392578-0.0097656-1.4638672-0.019043-1.7177734
			c-0.0092773-0.2529297-0.0561523-0.4033203-0.3286133-0.4404297c-0.0654297-0.0097656-0.2060547-0.0185547-0.28125-0.0185547
			c-0.0375977,0-0.065918-0.0380859-0.065918-0.0664062c0-0.046875,0.0375977-0.0654297,0.1313477-0.0654297
			c0.3662109,0,0.8447266,0.0185547,0.8916016,0.0185547c0.0566406,0,0.4506836-0.0185547,0.6943359-0.0185547
			c0.0942383,0,0.1313477,0.0185547,0.1313477,0.0654297c0,0.0283203-0.027832,0.0664062-0.0654297,0.0664062
			c-0.0561523,0-0.1030273,0-0.206543,0.0185547c-0.2250977,0.046875-0.2719727,0.1777344-0.2910156,0.4404297
			c-0.0185547,0.2539062-0.0092773,0.4785156-0.0092773,1.7177734v0.8535156c0,0.8632812-0.112793,1.8300781-0.7695312,2.3935547
			c-0.6005859,0.515625-1.2387695,0.5820312-1.7265625,0.5820312c-0.2719727,0-1.1357422-0.0195312-1.7172852-0.5634766
			c-0.4033203-0.375-0.7226562-0.9287109-0.7226562-2.0927734V139.3789062z"/>
		<path class="st4" d="M75.6762695,142.0810547c0.0283203,0.2822266,0.0844727,0.7138672,0.4223633,0.8261719
			c0.234375,0.0751953,0.4501953,0.0751953,0.534668,0.0751953c0.0375977,0,0.065918,0.0185547,0.065918,0.0566406
			c0,0.046875-0.0751953,0.0742188-0.1689453,0.0742188c-0.1875,0-1.1074219-0.0087891-1.4077148-0.0371094
			c-0.1967773-0.0185547-0.234375-0.046875-0.234375-0.0839844c0-0.0283203,0.0185547-0.0566406,0.0561523-0.0664062
			c0.046875-0.0087891,0.0561523-0.1308594,0.0375977-0.28125l-0.394043-4.0537109h-0.019043l-1.9892578,4.0722656
			c-0.1689453,0.3476562-0.2158203,0.4228516-0.2910156,0.4228516s-0.1220703-0.0751953-0.28125-0.3662109
			c-0.2163086-0.3945312-0.7602539-1.4169922-0.9667969-1.8486328c-0.2441406-0.5068359-0.9101562-1.8486328-1.0512695-2.1777344
			h-0.0371094l-0.3193359,3.6035156c-0.0092773,0.1220703-0.0092773,0.2724609-0.0092773,0.4042969
			c0,0.1220703,0.0751953,0.1962891,0.1972656,0.2246094c0.140625,0.0380859,0.2626953,0.046875,0.3188477,0.046875
			c0.0283203,0,0.065918,0.0283203,0.065918,0.0566406c0,0.0566406-0.0566406,0.0751953-0.1503906,0.0751953
			c-0.3095703,0-0.7036133-0.0283203-0.7695312-0.0283203c-0.0751953,0-0.4692383,0.0283203-0.6943359,0.0283203
			c-0.0844727,0-0.140625-0.0185547-0.140625-0.0751953c0-0.0283203,0.0375977-0.0566406,0.0844727-0.0566406
			c0.0654297,0,0.121582-0.0087891,0.2436523-0.0283203c0.2724609-0.046875,0.2817383-0.3369141,0.3193359-0.6376953
			l0.6005859-5.2080078c0.0092773-0.0849609,0.046875-0.140625,0.09375-0.140625
			c0.0561523,0,0.1220703,0.0283203,0.1689453,0.1220703l2.4960938,4.9541016l2.4023438-4.9453125
			c0.0375977-0.0751953,0.0751953-0.1308594,0.1313477-0.1308594s0.1035156,0.0654297,0.1220703,0.2158203L75.6762695,142.0810547z"
			/>
		<path class="st4" d="M78.1630859,139.3789062c0-1.2392578,0-1.4638672-0.019043-1.7177734
			c-0.0185547-0.2714844-0.0654297-0.421875-0.3374023-0.4589844c-0.065918-0.0097656-0.206543-0.0195312-0.2817383-0.0195312
			c-0.0283203,0-0.065918-0.0185547-0.065918-0.046875c0-0.046875,0.0375977-0.0654297,0.1318359-0.0654297
			c0.375,0,0.9101562,0.0185547,0.9570312,0.0185547c0.1967773,0,0.581543-0.0185547,0.9663086-0.0185547
			c1.3798828,0,1.7363281,0.7978516,1.7363281,1.2197266c0,0.6289062-0.4130859,1.0234375-0.8354492,1.3984375
			c0.6289062,0.1875,1.4545898,0.7597656,1.4545898,1.6611328c0,0.8916016-0.6660156,1.7734375-2.0737305,1.7734375
			c-0.1503906,0-0.4506836-0.0097656-0.7133789-0.0283203c-0.2626953-0.0087891-0.4970703-0.0185547-0.534668-0.0185547
			c-0.019043,0-0.1689453,0.0097656-0.3378906,0.0097656c-0.1689453,0.0087891-0.3662109,0.0185547-0.4975586,0.0185547
			c-0.0844727,0-0.1313477-0.0185547-0.1313477-0.0654297c0-0.0283203,0.019043-0.046875,0.065918-0.046875
			c0.0751953,0,0.1782227-0.0283203,0.253418-0.0380859c0.1591797-0.0283203,0.1782227-0.2060547,0.2158203-0.4414062
			c0.046875-0.328125,0.046875-0.9570312,0.046875-1.7265625V139.3789062z M78.8764648,139.5478516
			c0,0.0566406,0.0185547,0.0751953,0.0561523,0.0839844c0.046875,0.0097656,0.1967773,0.0380859,0.5068359,0.0380859
			c0.4594727,0,0.6381836-0.0185547,0.8066406-0.2070312c0.1787109-0.1962891,0.3193359-0.46875,0.3193359-0.8535156
			c0-0.6103516-0.3378906-1.2861328-1.1635742-1.2861328c-0.09375,0-0.2910156,0.0097656-0.4223633,0.0380859
			c-0.0751953,0.0185547-0.1030273,0.0371094-0.1030273,0.0839844V139.5478516z M78.8764648,140.4296875
			c0,0.6191406,0,1.5771484,0.0092773,1.6982422c0.027832,0.3847656,0.027832,0.4794922,0.28125,0.6005859
			c0.2255859,0.1035156,0.5727539,0.1132812,0.7226562,0.1132812c0.5444336,0,1.2104492-0.2070312,1.2104492-1.2294922
			c0-0.3564453-0.140625-1.0419922-0.7880859-1.4550781c-0.2817383-0.1777344-0.5444336-0.1679688-0.7412109-0.2060547
			c-0.1035156-0.0185547-0.5161133-0.0185547-0.6474609-0.0185547c-0.0283203,0-0.046875,0.0185547-0.046875,0.0566406V140.4296875z
			"/>
		<path class="st4" d="M84.3945312,140.7861328c0,0.7695312,0,1.3984375,0.0375977,1.7265625
			c0.0283203,0.2353516,0.0566406,0.3847656,0.300293,0.4228516c0.1220703,0.0185547,0.300293,0.0371094,0.3754883,0.0371094
			c0.046875,0,0.065918,0.0380859,0.065918,0.0664062c0,0.0371094-0.0375977,0.0654297-0.1318359,0.0654297
			c-0.4594727,0-0.9946289-0.0283203-1.0322266-0.0283203c-0.046875,0-0.5629883,0.0283203-0.8164062,0.0283203
			c-0.0844727,0-0.1313477-0.0185547-0.1313477-0.0654297c0-0.0283203,0.019043-0.0664062,0.065918-0.0664062
			c0.0751953,0,0.1782227-0.0185547,0.253418-0.0371094c0.159668-0.0380859,0.1875-0.1875,0.2158203-0.4228516
			c0.0375977-0.328125,0.046875-0.9570312,0.046875-1.7265625v-1.4072266c0-1.2392578,0-1.4638672-0.019043-1.7177734
			c-0.0185547-0.2714844-0.0839844-0.3935547-0.2626953-0.4316406c-0.09375-0.0185547-0.1967773-0.0273438-0.253418-0.0273438
			c-0.0371094,0-0.0654297-0.0380859-0.0654297-0.0664062c0-0.046875,0.0375977-0.0654297,0.1313477-0.0654297
			c0.2719727,0,0.7880859,0.0185547,0.8349609,0.0185547c0.0375977,0,0.5727539-0.0185547,0.8261719-0.0185547
			c0.09375,0,0.1313477,0.0185547,0.1313477,0.0654297c0,0.0283203-0.0375977,0.0664062-0.065918,0.0664062
			c-0.0561523,0-0.1123047,0-0.206543,0.0185547c-0.2250977,0.046875-0.2719727,0.1591797-0.2905273,0.4404297
			c-0.0097656,0.2539062-0.0097656,0.4785156-0.0097656,1.7177734V140.7861328z"/>
		<path class="st4" d="M88.5517578,137.2294922c0.1035156-0.2626953,0.140625-0.3095703,0.1972656-0.3095703
			c0.0844727,0,0.1123047,0.1132812,0.1967773,0.2910156c0.1503906,0.3378906,1.4736328,3.6318359,1.9804688,4.8427734
			c0.300293,0.7128906,0.5253906,0.8164062,0.7036133,0.8720703c0.1220703,0.0380859,0.2441406,0.046875,0.3286133,0.046875
			c0.046875,0,0.1030273,0.0195312,0.1030273,0.0664062s-0.09375,0.0654297-0.1875,0.0654297
			c-0.1220703,0-0.7319336,0-1.3046875-0.0185547c-0.1591797-0.0097656-0.2910156-0.0097656-0.2910156-0.0566406
			c0-0.0371094,0.019043-0.0371094,0.0566406-0.0566406c0.046875-0.0185547,0.1313477-0.0839844,0.0751953-0.2158203
			l-0.7416992-1.8300781c-0.0185547-0.0371094-0.027832-0.046875-0.074707-0.046875h-1.9052734
			c-0.0375977,0-0.0654297,0.0195312-0.0844727,0.0664062l-0.4692383,1.2763672
			c-0.0751953,0.1962891-0.1220703,0.3935547-0.1220703,0.5341797c0,0.1601562,0.1411133,0.2158203,0.2817383,0.2158203h0.0751953
			c0.0654297,0,0.0844727,0.0283203,0.0844727,0.0664062c0,0.046875-0.046875,0.0654297-0.1220703,0.0654297
			c-0.1972656,0-0.6474609-0.0283203-0.7412109-0.0283203c-0.0844727,0-0.4975586,0.0283203-0.8354492,0.0283203
			c-0.1030273,0-0.159668-0.0185547-0.159668-0.0654297c0-0.0380859,0.0375977-0.0664062,0.0751953-0.0664062
			c0.0561523,0,0.1782227-0.0087891,0.2441406-0.0185547c0.375-0.046875,0.534668-0.328125,0.6943359-0.7314453
			L88.5517578,137.2294922z M89.4716797,140.5517578c0.0375977,0,0.0375977-0.0185547,0.027832-0.0566406l-0.8164062-2.1865234
			c-0.046875-0.1210938-0.09375-0.1210938-0.140625,0l-0.7695312,2.1865234c-0.0092773,0.0380859,0,0.0566406,0.0283203,0.0566406
			H89.4716797z"/>
	</g>
	<g>
		<path class="st5" d="M36.7783203,132.5693359c-3.6899414,1.8613281-7.8530273-0.8652344-7.7226562-4.9472656
			c0.0654297-2.7587891,1.8286133-4.7832031,4.3920898-5.1914062c1.9262695-0.2451172,3.4614258,0.0654297,4.8652344,1.5673828
			c0.2451172,0.2939453-0.1469727,0.5878906-0.3916016,0.3261719c-1.3227539-1.4365234-2.6123047-1.5673828-4.3920898-1.3554688
			c-2.3022461,0.359375-3.8857422,2.0253906-3.9511719,4.6699219c-0.0976562,3.6083984,3.6411133,6.1230469,6.9716797,4.4404297
			c0.5878906-0.2929688,1.1264648-0.734375,1.534668-1.2568359c0.2285156-0.3261719,0.6533203,0,0.4243164,0.3105469
			C38.0683594,131.7529297,37.4804688,132.2265625,36.7783203,132.5693359z"/>
		<path class="st5" d="M39.9663086,127.6064453c0.081543-2.53125,1.6489258-4.7675781,4.2124023-5.1757812
			c0.5712891-0.0820312,1.1914062-0.0820312,1.7631836,0c2.5795898,0.4082031,4.3427734,2.6445312,4.4082031,5.1757812
			c0.0981445,3.1503906-2.3510742,5.5673828-5.1918945,5.5673828
			C42.3334961,133.1738281,39.8842773,130.7568359,39.9663086,127.6064453z M40.5214844,127.6220703
			c-0.0820312,2.8085938,2.105957,5.0449219,4.6367188,5.0449219c2.546875,0,4.7348633-2.2363281,4.652832-5.0449219
			c-0.0649414-2.2851562-1.6323242-4.3095703-3.9506836-4.6689453c-0.5224609-0.0820312-1.0776367-0.0820312-1.6000977,0
			C41.9580078,123.3125,40.5864258,125.3369141,40.5214844,127.6220703z"/>
		<path class="st5" d="M53.0649414,132.9775391c-0.2124023,0-0.2939453-0.1142578-0.2939453-0.3105469v-9.8779297
			c0-0.4072266,0.5551758-0.4072266,0.5551758,0v9.6826172h6.8569336c0.3754883,0,0.359375,0.5058594,0,0.5058594H53.0649414z"/>
		<path class="st5" d="M62.4726562,132.9775391c-0.2124023,0-0.2939453-0.1142578-0.2939453-0.3105469v-9.8779297
			c0-0.4072266,0.5551758-0.4072266,0.5551758,0v9.6826172h6.8569336c0.3754883,0,0.359375,0.5058594,0,0.5058594H62.4726562z"/>
		<path class="st5" d="M72.1088867,132.4550781h7.2163086c0.3427734,0,0.3427734,0.5224609,0,0.5224609h-7.3144531
			c-0.2612305,0-0.440918-0.1962891-0.440918-0.4404297v-9.5185547c0-0.2294922,0.1796875-0.4248047,0.440918-0.4248047h7.3310547
			c0.3261719,0,0.3261719,0.4892578-0.0166016,0.4892578h-7.2163086v4.5068359h6.8896484
			c0.3432617,0,0.3432617,0.4892578,0,0.4892578h-6.8896484V132.4550781z"/>
		<path class="st5" d="M89.0922852,132.5693359c-3.6899414,1.8613281-7.8530273-0.8652344-7.7226562-4.9472656
			c0.0654297-2.7587891,1.8286133-4.7832031,4.3920898-5.1914062c1.9267578-0.2451172,3.4614258,0.0654297,4.8652344,1.5673828
			c0.2451172,0.2939453-0.1469727,0.5878906-0.3916016,0.3261719c-1.3227539-1.4365234-2.6123047-1.5673828-4.3920898-1.3554688
			c-2.3022461,0.359375-3.8857422,2.0253906-3.9511719,4.6699219c-0.0976562,3.6083984,3.6411133,6.1230469,6.9716797,4.4404297
			c0.5878906-0.2929688,1.1264648-0.734375,1.534668-1.2568359c0.2285156-0.3261719,0.6533203,0,0.4248047,0.3105469
			C90.3823242,131.7529297,89.7944336,132.2265625,89.0922852,132.5693359z"/>
		<path class="st5" d="M100.6557617,122.5771484c0.3920898,0,0.3920898,0.4902344,0,0.4902344h-4.2285156l0.0161133,9.6650391
			c0,0.2128906-0.1630859,0.3105469-0.2939453,0.3105469c-0.1303711,0-0.2773438-0.0976562-0.2773438-0.3105469v-9.6650391
			H91.659668c-0.3920898,0-0.3920898-0.4902344,0-0.4902344C94.6474609,122.5771484,97.6518555,122.5771484,100.6557617,122.5771484
			z"/>
		<path class="st5" d="M102.5205078,122.7890625c0-0.4072266,0.5878906-0.4072266,0.5878906,0v9.9111328
			c0,0.375-0.5878906,0.375-0.5878906,0V122.7890625z"/>
		<path class="st5" d="M105.4931641,127.6064453c0.081543-2.53125,1.6489258-4.7675781,4.2119141-5.1757812
			c0.5717773-0.0820312,1.1918945-0.0820312,1.7636719,0c2.5795898,0.4082031,4.3427734,2.6445312,4.4082031,5.1757812
			c0.0976562,3.1503906-2.3510742,5.5673828-5.1918945,5.5673828
			C107.8603516,133.1738281,105.4111328,130.7568359,105.4931641,127.6064453z M106.0478516,127.6220703
			c-0.081543,2.8085938,2.1064453,5.0449219,4.637207,5.0449219c2.546875,0,4.7348633-2.2363281,4.652832-5.0449219
			c-0.0649414-2.2851562-1.6323242-4.3095703-3.9506836-4.6689453c-0.5224609-0.0820312-1.0776367-0.0820312-1.6000977,0
			C107.4848633,123.3125,106.1132812,125.3369141,106.0478516,127.6220703z"/>
		<path class="st5" d="M125.9228516,122.8222656c0-0.4082031,0.5551758-0.4082031,0.5551758,0v9.8291016
			c0,0.3916016-0.359375,0.3916016-0.5712891,0.1298828l-7.1025391-9.2568359v9.1591797
			c0,0.3916016-0.5385742,0.3916016-0.5385742,0v-9.8125c0-0.4082031,0.3427734-0.4570312,0.5712891-0.1630859l7.0859375,9.2568359
			V122.8222656z"/>
	</g>
</g>
</svg>
