<?xml version="1.0" encoding="utf-8"?>
<!-- Generator: Adobe Illustrator 22.1.0, SVG Export Plug-In . SVG Version: 6.00 Build 0)  -->
<svg version="1.1" xmlns="http://www.w3.org/2000/svg" xmlns:xlink="http://www.w3.org/1999/xlink" x="0px" y="0px"
	 viewBox="0 0 360 169.3" style="enable-background:new 0 0 360 169.3;" xml:space="preserve">
<style type="text/css">
	.st0{display:none;}
	.st1{display:inline;}
	.st2{clip-path:url(#SVGID_2_);fill:#FFFFFF;}
	.st3{clip-path:url(#SVGID_4_);fill:#FFFFFF;}
	.st4{clip-path:url(#SVGID_6_);fill:#FFFFFF;}
	.st5{clip-path:url(#SVGID_8_);fill:#FFFFFF;}
	.st6{fill:#FFFFFF;}
	.st7{font-family:'TrajanPro-Regular';}
	.st8{font-size:21px;}
	.st9{font-size:17px;}
</style>
<g id="Layer_2" class="st0">
	<rect y="0" class="st1" width="360" height="169.3"/>
</g>
<g id="Layer_1">
	<g>
		<g>
			<defs>
				<rect id="SVGID_1_" width="360" height="169.3"/>
			</defs>
			<clipPath id="SVGID_2_">
				<use xlink:href="#SVGID_1_"  style="overflow:visible;"/>
			</clipPath>
			<path class="st2" d="M350.3,91.8c-0.4,0-1.2-0.2-1.9-0.1c-0.7,0.1-2.1,0.8-3.2,0.9c-1.1,0.1-2.3-0.1-3.7,0
				c-1.6,0.1-3.4,0.5-5.2,0.8c-1.9,0.2-3.9,0.2-5.7,0.4c-3.7,0.3-7.2,0.8-7.8-2.7c-0.2-1.2,0.3-2.3,0.1-3.2
				c-2.7-0.6-3.1,2.8-5.5,2.7c-0.7-0.1-1.8-1.1-1.9-1.9c-0.2-2.1,2.1-4.8,3.8-6c2.2-1.5,4.8-2.4,7.3-2.4c1.1,2.2-1.7,3.2-1,5.3
				c2.3-0.4,3.9-2.6,5.2-4.4c1.9-2.6,4.5-4.6,4.5-8.8c-1.9-2-4.2,0.3-6.1,1.3c-1.7,0.8-3.3,1.6-4.6,2.2c-0.7,0.3-1.6,0.4-2.3,0.8
				c-2.6,1.3-4.6,3.5-6.6,5.9c-1.6,1.9-5,5.3-4.5,8.1c0.3,1.3,1.8,1.3,2,2.5c0.3,1.4-0.7,2.8-1.9,3.3c-2.1,0.9-7.4,0.7-8.8,0.3
				c-0.6-0.2-1.2-0.9-1.9-1.3c-4.1-2-11.6-2.1-12.1-7c-0.3-3,1.9-3.6,1.8-7.1c-0.7-0.8-2-1.4-3.1-1.3c-1.1,0.2-1.5,1.6-2.4,2.2
				c-0.6,0.4-1.5,0.5-2,1c-1.8,1.5-2.8,3.9-4.7,4.5c-1.3,3.9-7.8,2.5-11.2,1.4c-0.8-0.9-1.8-1.5-2.9-2c-1,0.9-2.5,1-3.9,1.5
				c-1.3,0.4-2.6,1.4-3.9,1.5c-0.7,0.1-1.4-0.2-2-0.1c-1.3,0.2-2.3,1.1-3.7,0.9c2.4-2,7.2-3.8,7.8-7.6c0.6-3.9-2.1-7.1-5-7.6
				c-6.6-0.1-11.8,1.4-17.3,3.8c-2,0.9-3.9,1.8-5.6,2.9c-3.4,2.2-7.5,4.7-7.4,9.5c-0.8,0.5-2.4,0.5-3.2,0c-0.9,1.3-2.8,0.1-4.5,0
				c-0.7,0-1.5,0.2-2.2,0.1c-0.9-0.1-1.5-0.1-2.2-0.5c-1.2-2.1,0.6-3.8,1-5.5c1.2-5.3-2.8-8-6.5-9.5c-1.4,1-3,1.6-4.5,2.5
				c-0.5,2.9-3.1,4.7-3.2,7.5c-0.1,2.6,2,3.8,1.8,6.7c-4.6,2-12.8,2-17.7,0.3c-1.1-1.7-3.3-1.4-4.3-3.4c-0.7-1.4-0.1-5.8-1.4-6.5
				c-2.1-1.1-4.8,2.1-5.9,3.1c-1.8,1.6-3.9,2.2-6,3.2c-1.6,0.8-4.3,3.6-6.1,3.1c-2.5-0.8,0.4-5,0-7c-0.4-2.2-4.8-3.7-7.6-3.6
				c-1.2,0-2.5,0.6-3.7,0.9c-1.3,0.3-2.7,0.5-3.9,0.8c-5.2,0.9-8.9,3.7-12.9,5.7c-2,1-3.9,2.4-6,3.1c0.3-3.5,2.6-7.8,1.9-11.8
				c-0.1-0.4-0.5-0.8-0.6-1.3c-0.2-0.6-0.1-1.2-0.3-1.7c-0.5-1-1.7-1.8-2.5-2.5c-1-0.9-1.8-1.9-3.2-2c-2.9-0.3-4.5,2.1-6,3.6
				c1,2.4-1,4.4-2.5,6.1c-1.3,1.5-2.8,2.5-3.8,3.6c-0.6,0.6-1,1.6-1.5,1.8c-1.3,0.5-3.3,0.4-4.7,0.5c-1.6,0.2-3.1,0.3-4.8,0.4
				c-3.7-6,7.9-6.9,4.3-13.2c-1.6-0.4-3.3-0.7-5.1-0.8c-1.7-0.1-4-0.3-5.9,0.1c-1.2,0.3-2.9,1.8-4.2,2.8c-1.5,1.1-2.9,2-4.1,3.1
				c-2.5,2.2-4.7,5.3-7.4,6.7c-2.4,1.3-7.6,1.9-11.3,1.5c-2.1-0.2-2.9-1.2-4.2-1.9c-0.9-0.5-1.9-0.5-2.8-1.3
				c-1.3,0.6-2.5-0.1-3.7-0.1c-0.8,0-1.4,0.3-2.2,0.3c-1-0.1-1.8-0.9-2.8-1.1c-0.6-0.1-1.3,0-1.8-0.1c-0.8-0.2-1.3-1-2.2-1.3
				c-0.7-0.2-1.4,0-2-0.3c-0.8-0.3-1.2-1-2-1.5c-0.5-0.3-1.2-0.4-1.7-0.6c-0.6-0.4-1-1.2-1.7-1.5c-0.9-0.4-1.8-0.1-2.5-0.3
				c0.7-0.8,0.4-1.9,0.8-3.1c0.1-0.5,0.5-0.4,0.5-0.9c0.2-1.3-0.5-2.5-0.5-3.7c0.1-2.5,1.9-3.7,2.5-5.9c-1-3.8,2.4-5.3,2.7-8.8
				c0.9-1.1,2-2.2,2.4-3.7c0.2-0.6,0.1-1.2,0.3-1.8c0.5-1.6,2.4-2.8,3.3-4.3c1-1.6,1.1-4.2,2.3-5.2c0.5-0.5,1.4-0.4,1.9-0.8
				c1.8-1.1,1.9-3.2,2.8-5c1.4-0.1,1.6-1.4,2.8-1.7c0.1-1.2,0.9-1.5,1-2.7c3.7-3.1,6.1-7.5,9.5-10.6c1.8-1.6,4.4-2.6,5.5-4.8
				c6.3-2.7,10.3-8.3,19.3-7.9c0.9,5-4.7,6.7-6.6,9.9c-0.4,0.6-0.4,1.3-0.8,1.9C81,23.7,78.1,25,76,27.2c0,1.2-1.4,1.7-0.6,2.7
				c2,0,2.5-1.6,4.3-2.3c2.7-3.8,5.9-5.5,8.8-8.5c1.5-1.6,1.9-4.1,3.3-5.6c0.6-0.7,1.7-1,2.5-1.7c2.8-2.2,7.1-8.5,3.1-11.8
				c-2.8,0-4.4,1.6-6.6,2.5C86.9,4.1,82.6,5.5,80,8.1c-2.8,0.4-3.8,1.7-5.9,3.2c-1.3,1-3,1.4-3.8,2c-0.8,0.7-1.2,1.8-1.9,2.5
				c-2.3,2.3-5.3,4.2-7.8,6.6c-2.4,2.5-5,4.7-6.5,7.9c-2.4,1.3-3.6,3.7-5.5,5.7c-0.7,0.8-1.7,1.3-2.2,2c-0.7,1.1-1.1,2.4-1.8,3.6
				c-2,3.3-5.1,6.1-7,9.4c-2.2,3.8-3.8,7.6-5.7,11.3c-1,2-2,3.9-2.7,5.9c-0.8,2.4-0.7,4.7-0.9,7.8c-0.1,0.9-0.4,1.9-0.4,2.8
				c0.1,1.7,1.1,3.2,1.3,5c1.5,1.3,3.8,2.9,5.6,3.7c1.6,0.7,3.4,0.9,5,1.8c0.8,0.5,1.4,1.4,2.3,1.9c1.8,0.9,4,1.1,6,1.1
				c2.2,0.1,5-0.7,6.9-0.4c0.8,0.2,1.5,0.8,2.3,1c2.1,0.5,4.1-0.3,6.6-0.4c1.3,0,2.7,0.4,3.9,0c0.7-0.2,1.4-1,2.4-1
				c1.8,0.1,3.2,1.9,4.8,2c4.6,0.4,6.2-3.4,11.1-2.8c1,1,1.3,1.8,2.4,2.2c1.6,0.5,3.5-0.1,5.2-0.1c0.9,0,2,0.3,2.7,0.1
				c1.1-0.2,1.8-1.3,2.8-1.4c0.6-0.1,1.4,0.2,2,0.1c2.1-0.1,6.8-1.3,8.1-2.2c0.6-0.4,1.2-1.3,2.2-2.2c0.8-0.7,1.6-1.5,2.2-2.2
				c1.8-2.2,4.6-5.9,6.2-2.5c1.4,2.8,0.1,6.6-0.9,9.7c-0.8,2.4-4.2,8,1.4,7.1c1-0.2,2.4-1.2,3.6-1.9c8-5,14.8-11,27.5-10.8
				c4.7,3.4-2.6,7.5-2.4,12c2.4,0.7,3.9-0.9,5.7-1.4c1.1-0.3,2.2-0.2,3.2-0.5c2.2-0.7,4-2.5,5.9-3.7c2-1.3,4.1-2.3,7-2.5
				c0.6,1,1.1,1.9,1.4,3.2c3.3,1.5,5.6,3.5,9.2,4.2c4.2,0.9,8.6,0.4,12.3,0c2-0.2,3.7-0.5,5.3-1.2c1.6-0.6,3-1.5,4.7-1.9
				c1.7-0.4,3.3-0.1,4.8-0.1c0.9,0,1.5-0.4,2.4-0.2c0.6,0.1,1.2,0.6,1.9,0.8c1.2,0.2,4.4,0.4,5.1,0.1c0.5-0.2,1-0.7,1.5-0.8
				c0.7-0.1,1.3,0.2,1.9,0c1.1-0.3,1.6-1.3,2.7-1.5c0.6,0.7,1.6,1.1,2.4,1.7c3.5,0.1,6.5,1.2,9.7,0.4c2-0.5,4.3-2,6.9-0.9
				c-1.2,1.3-2.5,2.5-2.8,4.7c-0.9,0.8-1.2,1.7-1.9,2.4c-0.8,0.8-1.4,1.5-2,2.3c-2.5,3.1-3.9,7.1-6.9,9.5c-0.6,0.5-1.6,0.7-2.2,1.3
				c-0.9,0.9-1,1.9-1.8,2.7c-1.6,1.5-3.7,2.7-5.5,3.9c-1.8,1.4-3.6,2.8-5.4,4.1c-8.8,6.6-15.5,16.2-18.6,28.8
				c-0.6,2.6-1.4,5.7-1.1,8.4c0.7,6.7,9.6,8.8,14.1,5.1c3.9-3.2,5.7-8.8,8.4-13.4c1.4-2.5,3.2-4.8,4.3-7.4c2.1-4.7,3.7-10.2,6-14.5
				c0.3-0.6,0.9-1.3,1.1-1.9c0.4-1.1,0.4-2.1,0.8-3c1.1-3,2.5-4.8,4.1-7.6c0.1-0.5-0.8,0-0.5-0.6c0.2-0.7,0.6-1.1,1-1.7v-1.5
				c0.7-0.3,0.8-1.2,1.1-1.9c1-1.9,1.9-4.4,3.2-6.1c0.4-0.6,1.1-1,1.5-1.7c1.6-2.4,2.7-4.7,4.3-7.1c0.7-1,1.4-2,2.4-3.3
				c0.6-0.8,1.9-3,2.5-3.3c1.7-0.7,3.8,0.5,5.7,0c1.7-0.4,2.7-1.9,4.7-1.8c4.5,4,14.2,3.6,21.6,2.5c0.2,0.6,0.4,1.3,0.6,1.8
				c1.1,0.6,2,0.7,3.2,1.5c0.8,0.5,1.2,1.7,2,2c0.9,0.4,2.4,0.3,3.7,0.6c1.2,0.3,2.4,0.6,3.6,0.9c6.5,1.6,13.1,1.9,16.8-2.4
				c2.8,0.3,5.6-2.8,8.3-0.8c2.1-0.9,3.8,0.2,5.7,0.4c1.6,0.1,3.5,0.2,5.1-0.3c1.3-0.4,2.3-1.2,3.6-1.3c1-0.1,2.2,0.3,3.3,0.2
				c2.1-0.2,4.5-1.8,7.3-1.9c1.2-0.1,2.6,0.3,3.8,0.3c1.7-0.1,2.8-1.3,4.1-1.7c2.7-0.8,6.6,0.5,7.3-2.9
				C356.5,88.3,353.2,91.4,350.3,91.8 M90,85.3c-0.8,0.2-1.7-0.3-1.9-0.8c-0.9-1.9,2.2-5.3,3.8-3.1C91.4,82.9,91.2,85,90,85.3
				 M206.4,89.2c-3.9,2.5-4.6-7.5,0-5.5C206.8,85.2,207.9,88.3,206.4,89.2 M219.8,136c-0.3,4.4-3,7.5-4.7,10.8
				c-0.7,1.3-1,2.9-1.9,4.2c-0.8,1.2-2.1,2.3-2.5,3.6c-0.2,0.5-0.2,1.5-0.4,2.2c-0.8,2.5-3.6,4.6-6.4,5.6c-0.6,0.2-1.3,0.3-1.9,0.5
				c-0.9,0.3-0.9,0.6-1.7,0.4c-0.5-0.2-1-1.2-1.1-2.4c-0.2-2.5,0.8-4.3,1.4-6.7c0.6-2.5,0.6-4.9,1.5-6.6c0.5-0.9,1.5-1.6,2.2-2.5
				c3.8-5.2,7.5-11.2,12.6-15.1c0.9-0.7,2.1-0.9,2.9-1.7c0.9-0.8,1.1-2.1,2.4-2.5c0.7-0.3,1.4,0,1.9-0.1c0.6-0.2,1-1,1.6-1.1
				C224.1,128.1,222.6,133,219.8,136 M247.6,86.2c-0.3,0.8,0.1,1.6,0,2.3c-0.2,1-0.9,1.5-1.3,2.4c-2.2,0.8-6.2,0.8-9.8,1
				c-3,0.2-6.1,1-7.4-1.4c-0.2-0.3-0.2-0.5-0.2-0.9c-0.1-1,0.4-2,0.5-2.9c1.9-3.4,6.3-4.1,11.2-4.8c4.9-0.7,7.5-3.1,12-2.8
				c0.5,0.4,0.8,1.1,1.3,1.5C253.2,83.7,248.5,83.3,247.6,86.2"/>
		</g>
		<g>
			<defs>
				<rect id="SVGID_3_" width="360" height="169.3"/>
			</defs>
			<clipPath id="SVGID_4_">
				<use xlink:href="#SVGID_3_"  style="overflow:visible;"/>
			</clipPath>
			<path class="st3" d="M294.6,75.8c-2,0.6-5,0.4-4.5-2.4c0.9-0.9,3.1-1.9,4.2-0.5C294.6,73.6,294.8,74.9,294.6,75.8"/>
		</g>
		<g>
			<defs>
				<rect id="SVGID_5_" width="360" height="169.3"/>
			</defs>
			<clipPath id="SVGID_6_">
				<use xlink:href="#SVGID_5_"  style="overflow:visible;"/>
			</clipPath>
			<path class="st4" d="M351.4,115.9c-123.7-5.4-235.8-7.4-344.2-4c46.9-4.4,105.7-5.7,166.3-5.2c36.2,0.3,68.3,2,111,3.9
				C308.4,111.6,333.7,111.1,351.4,115.9"/>
		</g>
		<g>
			<defs>
				<rect id="SVGID_7_" width="360" height="169.3"/>
			</defs>
			<clipPath id="SVGID_8_">
				<use xlink:href="#SVGID_7_"  style="overflow:visible;"/>
			</clipPath>
			<path class="st5" d="M0.1,76C0,75.8,0,75.7,0,75.7v-0.2l0.1-0.2c0.1-0.1,2.7-3.5,11.3-6.5c8.4-2.9,15.8-6.8,19.3-8.3
				c1.6-0.7,3.9-2.4,5.7-4.1c1.8-1.6,3.3-3,3.3-3l0.1-0.1l0.1,0c0,0,1.7-0.8,4.4-2.4c2.7-1.6,6.2-4.1,10-7.4
				c7.5-6.7,10.1-7.2,12-9.6c2.4-2.7,9.8-6.7,9.8-6.8l0.5-0.1l3.2,0.5L78.3,29c0,0-4.7,3.5-6.2,4.4c-1,0.6-7.5,5.8-11.1,8.9
				c-1.2,1-2.1,1.9-2.2,2.1c-0.4,0.6-1.1,1.1-2.1,1.7c-1,0.6-2.1,1.3-3.3,2c-2.4,1.4-4.8,3-5.4,3.8c-0.9,1.2-3.4,2.7-6.1,4.4
				c-1,1.1-3.3,2.5-7.1,5.1c-3.5,3.5-17.5,8.8-20,9.1c-0.6,0.1-2.7,0.8-4.9,1.7c-2.2,0.9-4.6,2-6.3,2.8c-1.1,0.5-1.9,1-2,1
				c-0.3,0.2-0.5,0.4-0.9,0.4c0,0,0,0,0,0C0.4,76.5,0.1,76.2,0.1,76"/>
		</g>
		<g>
			<defs>
				<rect id="SVGID_9_" width="360" height="169.3"/>
			</defs>
			<clipPath id="SVGID_10_">
				<use xlink:href="#SVGID_9_"  style="overflow:visible;"/>
			</clipPath>
		</g>
		<g>
			<defs>
				<rect id="SVGID_11_" width="360" height="169.3"/>
			</defs>
			<clipPath id="SVGID_12_">
				<use xlink:href="#SVGID_11_"  style="overflow:visible;"/>
			</clipPath>
		</g>
		<g>
			<defs>
				<rect id="SVGID_13_" width="360" height="169.3"/>
			</defs>
			<clipPath id="SVGID_14_">
				<use xlink:href="#SVGID_13_"  style="overflow:visible;"/>
			</clipPath>
		</g>
		<g>
			<defs>
				<rect id="SVGID_15_" width="360" height="169.3"/>
			</defs>
			<clipPath id="SVGID_16_">
				<use xlink:href="#SVGID_15_"  style="overflow:visible;"/>
			</clipPath>
		</g>
		<g>
			<defs>
				<rect id="SVGID_17_" width="360" height="169.3"/>
			</defs>
			<clipPath id="SVGID_18_">
				<use xlink:href="#SVGID_17_"  style="overflow:visible;"/>
			</clipPath>
		</g>
		<g>
			<defs>
				<rect id="SVGID_19_" width="360" height="169.3"/>
			</defs>
			<clipPath id="SVGID_20_">
				<use xlink:href="#SVGID_19_"  style="overflow:visible;"/>
			</clipPath>
		</g>
		<g>
			<defs>
				<rect id="SVGID_21_" width="360" height="169.3"/>
			</defs>
			<clipPath id="SVGID_22_">
				<use xlink:href="#SVGID_21_"  style="overflow:visible;"/>
			</clipPath>
		</g>
		<g>
			<defs>
				<rect id="SVGID_23_" width="360" height="169.3"/>
			</defs>
			<clipPath id="SVGID_24_">
				<use xlink:href="#SVGID_23_"  style="overflow:visible;"/>
			</clipPath>
		</g>
		<g>
			<defs>
				<rect id="SVGID_25_" width="360" height="169.3"/>
			</defs>
			<clipPath id="SVGID_26_">
				<use xlink:href="#SVGID_25_"  style="overflow:visible;"/>
			</clipPath>
		</g>
		<g>
			<defs>
				<rect id="SVGID_27_" width="360" height="169.3"/>
			</defs>
			<clipPath id="SVGID_28_">
				<use xlink:href="#SVGID_27_"  style="overflow:visible;"/>
			</clipPath>
		</g>
		<g>
			<defs>
				<rect id="SVGID_29_" width="360" height="169.3"/>
			</defs>
			<clipPath id="SVGID_30_">
				<use xlink:href="#SVGID_29_"  style="overflow:visible;"/>
			</clipPath>
		</g>
		<g>
			<defs>
				<rect id="SVGID_31_" width="360" height="169.3"/>
			</defs>
			<clipPath id="SVGID_32_">
				<use xlink:href="#SVGID_31_"  style="overflow:visible;"/>
			</clipPath>
		</g>
		<g>
			<defs>
				<rect id="SVGID_33_" width="360" height="169.3"/>
			</defs>
			<clipPath id="SVGID_34_">
				<use xlink:href="#SVGID_33_"  style="overflow:visible;"/>
			</clipPath>
		</g>
		<g>
			<defs>
				<rect id="SVGID_35_" width="360" height="169.3"/>
			</defs>
			<clipPath id="SVGID_36_">
				<use xlink:href="#SVGID_35_"  style="overflow:visible;"/>
			</clipPath>
		</g>
		<g>
			<defs>
				<rect id="SVGID_37_" width="360" height="169.3"/>
			</defs>
			<clipPath id="SVGID_38_">
				<use xlink:href="#SVGID_37_"  style="overflow:visible;"/>
			</clipPath>
		</g>
		<g>
			<defs>
				<rect id="SVGID_39_" width="360" height="169.3"/>
			</defs>
			<clipPath id="SVGID_40_">
				<use xlink:href="#SVGID_39_"  style="overflow:visible;"/>
			</clipPath>
		</g>
		<g>
			<defs>
				<rect id="SVGID_41_" width="360" height="169.3"/>
			</defs>
			<clipPath id="SVGID_42_">
				<use xlink:href="#SVGID_41_"  style="overflow:visible;"/>
			</clipPath>
		</g>
		<g>
			<defs>
				<rect id="SVGID_43_" width="360" height="169.3"/>
			</defs>
			<clipPath id="SVGID_44_">
				<use xlink:href="#SVGID_43_"  style="overflow:visible;"/>
			</clipPath>
		</g>
		<g>
			<defs>
				<rect id="SVGID_45_" width="360" height="169.3"/>
			</defs>
			<clipPath id="SVGID_46_">
				<use xlink:href="#SVGID_45_"  style="overflow:visible;"/>
			</clipPath>
		</g>
		<g>
			<defs>
				<rect id="SVGID_47_" width="360" height="169.3"/>
			</defs>
			<clipPath id="SVGID_48_">
				<use xlink:href="#SVGID_47_"  style="overflow:visible;"/>
			</clipPath>
		</g>
	</g>
	<text transform="matrix(1 0 0 1 8.6333 139.7812)"><tspan x="0" y="0" class="st6 st7 st8">Collection</tspan><tspan x="0" y="19" class="st6 st7 st9">at Columbia</tspan></text>
</g>
</svg>
