<?xml version="1.0" standalone="no"?>
<!DOCTYPE svg PUBLIC "-//W3C//DTD SVG 20010904//EN"
 "http://www.w3.org/TR/2001/REC-SVG-20010904/DTD/svg10.dtd">
<svg version="1.0" xmlns="http://www.w3.org/2000/svg"
 width="1224.000000pt" height="228.000000pt" viewBox="0 0 1224.000000 228.000000"
 preserveAspectRatio="xMidYMid meet">
<metadata>
Created by potrace 1.15, written by Peter Selinger 2001-2017
</metadata>
<g transform="translate(0.000000,228.000000) scale(0.100000,-0.100000)"
fill="#ffffff" stroke="none">
<path d="M7735 2191 c-98 -35 -187 -110 -226 -188 -11 -24 -24 -45 -29 -48 -5
-3 -12 -20 -15 -38 -4 -17 -11 -36 -15 -42 -29 -39 -44 -277 -21 -354 7 -24
24 -54 37 -68 21 -21 32 -24 67 -20 71 9 127 24 145 39 9 8 26 18 37 22 31 11
174 111 230 161 28 25 53 45 58 45 11 0 9 -28 -3 -35 -5 -3 -10 -13 -10 -20 0
-8 -18 -54 -41 -102 -107 -229 -129 -279 -129 -293 0 -7 -8 -24 -19 -38 -10
-15 -29 -52 -41 -82 -36 -85 -39 -87 -97 -54 -47 26 -51 26 -73 11 -32 -23
-49 -77 -54 -180 -3 -48 -9 -93 -13 -100 -4 -7 -8 -25 -9 -42 -3 -43 30 -75
77 -75 30 0 41 6 61 33 29 39 48 81 48 106 0 34 38 70 73 69 17 -1 47 2 65 7
32 7 34 6 31 -16 -2 -14 6 -38 19 -56 12 -17 22 -35 22 -40 0 -25 40 -45 77
-40 74 10 134 27 190 53 32 14 79 34 106 44 27 10 98 52 158 92 61 40 113 72
117 71 4 -2 8 -11 8 -20 1 -10 5 -61 9 -113 8 -89 10 -97 40 -125 18 -17 44
-31 61 -32 33 -2 94 15 94 26 0 4 28 15 61 26 52 15 73 29 130 86 38 38 73 69
77 69 4 0 31 -25 61 -56 89 -90 183 -125 281 -103 58 13 130 59 153 98 22 38
49 40 71 6 18 -28 104 -88 166 -115 41 -19 122 -7 194 29 67 33 91 32 113 -2
4 -7 26 -25 47 -41 50 -38 122 -45 195 -21 28 9 55 14 60 10 6 -3 18 -1 29 6
15 9 28 5 72 -22 30 -18 61 -39 69 -47 8 -7 21 -10 30 -6 15 7 53 13 164 30
l47 7 0 -57 c0 -137 80 -165 182 -63 27 27 55 63 60 79 12 34 37 36 69 5 13
-13 41 -33 63 -45 41 -24 91 -24 163 1 28 9 37 7 75 -18 37 -25 52 -29 108
-28 36 0 73 1 84 2 10 1 27 -7 38 -19 12 -12 27 -19 35 -15 9 3 30 -5 47 -18
28 -22 131 -80 230 -131 57 -29 98 -26 143 11 38 30 55 63 33 63 -7 0 -30 -14
-51 -31 l-39 -30 -42 33 c-24 18 -66 53 -93 79 -28 25 -70 59 -95 75 -60 39
-80 64 -73 91 6 28 -27 39 -78 26 -27 -8 -34 -14 -34 -34 0 -20 -7 -25 -41
-33 -35 -7 -46 -5 -80 16 -47 30 -70 38 -128 43 -40 4 -49 1 -74 -26 -37 -40
-65 -33 -138 34 -43 39 -54 55 -50 72 6 22 -10 51 -52 98 -22 23 -34 27 -77
27 -42 0 -55 -4 -73 -25 -12 -14 -25 -25 -29 -25 -5 0 -21 -20 -37 -45 -27
-43 -53 -65 -86 -72 -110 -22 -166 -14 -214 32 -30 28 -37 42 -42 89 -4 31
-12 60 -19 66 -31 25 -85 -10 -85 -55 0 -28 -84 -115 -111 -115 -36 0 -85 29
-143 87 -34 32 -72 59 -93 65 -31 8 -37 7 -52 -13 -37 -52 -88 -89 -120 -89
-44 0 -117 45 -184 113 -34 35 -74 69 -90 77 -25 12 -30 11 -55 -7 -15 -11
-33 -32 -40 -46 -18 -37 -102 -117 -130 -124 -52 -13 -205 82 -247 155 -9 15
-32 38 -50 50 -44 31 -75 18 -105 -43 -31 -64 -104 -137 -169 -169 -66 -31
-102 -33 -127 -5 -16 18 -19 39 -21 150 l-1 129 125 128 c69 70 132 140 140
157 8 16 28 44 43 60 29 30 60 103 60 141 0 11 4 24 9 30 14 13 32 173 27 226
-8 75 -27 162 -43 195 -26 56 -83 57 -150 5 -45 -37 -61 -61 -135 -215 -5 -10
-18 -55 -28 -100 -10 -45 -23 -98 -29 -117 -43 -158 -69 -291 -85 -445 -4 -36
-12 -55 -28 -67 -13 -10 -30 -24 -38 -31 -90 -79 -265 -178 -398 -226 -102
-36 -135 -32 -140 19 -3 30 1 47 28 100 4 8 21 16 39 18 18 2 35 10 38 20 8
20 54 61 69 62 11 0 44 68 44 92 0 9 8 22 19 29 28 20 36 68 14 76 -10 3 -31
17 -46 30 -17 14 -37 21 -50 19 -12 -3 -39 -8 -59 -11 -27 -4 -38 -11 -38 -23
0 -9 -9 -23 -20 -30 -11 -7 -20 -19 -20 -27 0 -14 -36 -115 -66 -184 -15 -33
-16 -33 -64 -27 -33 4 -49 3 -52 -6 -3 -7 -12 -9 -22 -5 -18 7 -17 24 6 77 6
14 14 34 18 45 11 27 41 94 84 188 20 44 36 81 36 83 0 3 27 60 60 127 33 68
60 128 60 135 0 6 13 40 29 74 16 35 37 82 47 106 10 23 21 42 26 42 4 0 8 6
8 13 0 7 11 35 24 63 34 71 60 143 53 150 -3 4 -16 4 -29 0 -17 -5 -36 -33
-71 -104 -27 -53 -63 -114 -80 -136 -94 -114 -119 -139 -187 -194 -70 -55
-219 -142 -244 -142 -6 0 -23 -6 -38 -14 -68 -36 -102 21 -103 169 0 115 17
186 69 296 43 91 87 138 153 167 56 24 85 21 103 -13 7 -12 34 -33 61 -46 26
-13 48 -30 49 -37 0 -21 25 -8 28 16 3 18 -73 133 -103 154 -17 13 -68 8 -120
-11z m1223 -243 c7 -7 12 -26 12 -43 0 -18 3 -35 6 -38 10 -10 11 -73 3 -164
-9 -92 -55 -237 -95 -294 -25 -37 -200 -219 -210 -219 -8 0 8 194 16 205 4 6
10 30 14 55 15 117 57 280 78 305 4 5 8 15 8 23 0 7 14 41 30 75 41 84 105
128 138 95z m2032 -1212 c0 -29 -36 -102 -66 -135 -19 -21 -27 -24 -41 -15
-33 21 -18 154 17 154 9 0 20 4 26 9 11 11 46 19 57 14 4 -2 7 -14 7 -27z"/>
<path d="M5919 1723 c-6 -16 -24 -80 -41 -143 -16 -63 -33 -128 -37 -145 -5
-16 -22 -66 -39 -110 -17 -44 -37 -100 -45 -125 -25 -76 -36 -75 -129 18 -46
45 -94 90 -108 99 -14 9 -27 20 -30 24 -3 4 -18 13 -33 18 -68 26 -117 2 -117
-56 0 -31 37 -90 81 -130 40 -35 151 -92 196 -99 62 -10 72 -27 45 -75 -12
-21 -22 -43 -22 -50 0 -7 -14 -41 -30 -76 -17 -36 -35 -87 -40 -114 -5 -27
-19 -81 -31 -119 -25 -82 -20 -120 14 -120 41 0 100 50 202 171 55 66 102 119
105 119 13 -1 100 -160 130 -237 12 -33 40 -43 66 -25 15 10 36 51 30 60 -6
10 11 101 23 127 24 49 41 99 41 120 0 13 8 32 18 44 l17 22 85 -22 c47 -11
124 -28 172 -36 81 -15 89 -15 113 1 33 21 25 31 -20 27 -59 -5 -325 98 -325
126 0 7 33 114 74 236 76 230 132 446 122 472 -16 42 -75 0 -140 -100 -18 -28
-40 -58 -49 -66 -9 -9 -30 -45 -46 -79 -17 -35 -37 -70 -45 -79 -14 -17 -92
-161 -139 -256 -16 -33 -30 -61 -32 -63 -5 -5 -150 30 -159 38 -5 5 0 21 11
37 11 15 28 53 38 83 10 30 26 71 36 90 9 20 20 54 24 75 3 22 10 49 15 60 7
18 29 92 36 120 1 6 7 30 13 55 6 25 11 60 11 78 0 28 -3 32 -25 32 -19 0 -28
-8 -36 -27z m373 -226 c-11 -34 -30 -96 -42 -137 -20 -69 -35 -112 -92 -273
-23 -66 -28 -67 -111 -32 -35 14 -38 19 -32 43 4 15 12 34 19 42 7 8 21 35 30
60 10 25 31 66 47 93 16 26 29 49 29 52 0 2 23 39 50 81 28 42 50 81 50 86 0
5 15 27 33 48 27 34 32 36 35 19 2 -11 -5 -48 -16 -82z m-232 -529 c51 -15 51
-15 36 -56 -12 -31 -40 -125 -52 -170 -5 -19 -45 -10 -58 13 -6 11 -27 45 -47
75 -35 54 -36 57 -22 85 38 75 52 80 143 53z m-280 -44 c39 -58 40 -79 6 -133
-36 -57 -150 -171 -170 -171 -20 0 -20 -1 4 70 11 33 19 63 18 67 -1 5 4 19
10 33 29 65 52 123 52 132 0 16 32 58 41 53 4 -3 22 -26 39 -51z"/>
<path d="M3000 1694 c-19 -14 -50 -40 -68 -59 -18 -19 -41 -40 -51 -47 -21
-15 -83 -99 -109 -148 -68 -125 -122 -377 -122 -565 0 -103 2 -100 -110 -181
-121 -87 -173 -115 -218 -118 -13 -1 -27 -8 -31 -15 -6 -10 -22 -11 -59 -6
-48 6 -51 9 -66 50 -10 24 -29 51 -44 60 -79 50 -132 140 -132 222 l0 44 -42
-3 -43 -3 3 -55 c5 -66 -10 -116 -58 -195 -32 -52 -58 -81 -163 -180 -67 -62
-119 -78 -183 -55 -44 16 -103 110 -116 184 -10 61 -5 145 10 155 4 4 29 38
55 77 47 71 60 114 33 114 -27 0 -66 -20 -66 -33 0 -8 -10 -22 -21 -33 -12
-10 -34 -46 -50 -78 -28 -59 -60 -91 -177 -178 -72 -54 -200 -118 -234 -118
-24 0 -28 4 -28 27 0 15 9 56 20 92 10 36 29 107 41 156 12 50 30 119 40 155
22 75 74 297 84 353 3 21 15 58 25 82 11 26 15 45 9 45 -7 0 -8 14 -4 40 8 46
-13 64 -41 36 -13 -14 -14 -19 -3 -32 11 -14 10 -19 -11 -38 -15 -13 -25 -33
-26 -51 -1 -16 -10 -64 -21 -105 -11 -41 -34 -127 -52 -190 -17 -63 -39 -151
-50 -195 -18 -74 -82 -320 -97 -373 -8 -27 -52 -31 -61 -4 -3 9 -16 40 -29 67
-12 28 -26 64 -30 80 -4 17 -13 39 -19 50 -7 11 -18 38 -25 60 -7 22 -17 45
-22 52 -15 19 -46 83 -58 119 -14 42 13 185 42 226 15 23 18 37 12 74 -7 48
13 141 42 196 13 24 13 31 -1 58 -20 39 -65 41 -100 6 -22 -22 -24 -30 -18
-93 4 -50 0 -94 -16 -168 -34 -154 -41 -175 -56 -175 -8 0 -32 -7 -53 -17 -31
-13 -41 -24 -51 -57 -15 -53 -15 -179 0 -236 26 -101 14 -145 -89 -310 -12
-19 -22 -44 -22 -55 0 -12 -5 -26 -12 -33 -6 -6 -13 -46 -15 -88 -2 -62 0 -81
13 -96 10 -10 23 -18 29 -18 19 0 85 77 102 119 8 20 23 55 34 78 10 24 19 51
19 60 0 28 32 103 44 103 6 0 34 -16 61 -35 62 -43 93 -57 125 -57 14 0 28 -5
32 -11 4 -6 12 -57 19 -114 8 -67 17 -103 25 -103 6 0 14 -7 18 -15 3 -8 10
-15 15 -15 15 0 51 84 51 117 0 16 4 33 8 38 5 6 17 31 26 58 10 26 23 47 29
47 7 0 35 11 62 24 28 13 74 34 104 47 30 13 75 43 99 66 25 24 48 43 52 43 4
0 19 11 34 25 26 24 55 33 57 18 5 -61 14 -95 34 -138 14 -29 25 -57 25 -63 0
-16 60 -82 75 -82 7 0 18 -7 25 -15 16 -20 104 -18 145 3 72 35 275 228 297
282 8 19 22 41 31 48 14 12 21 8 55 -25 22 -21 53 -50 71 -66 17 -15 31 -37
31 -50 1 -25 15 -46 47 -68 32 -22 148 -8 216 26 86 43 131 69 158 95 39 37
126 100 136 100 5 0 15 -28 23 -62 9 -45 22 -71 42 -90 15 -14 28 -30 28 -36
0 -5 13 -15 29 -21 38 -16 95 -5 131 25 15 13 32 24 37 24 6 0 40 36 77 79 66
79 67 80 99 69 18 -6 38 -15 44 -21 14 -10 133 -11 167 -1 42 12 104 45 121
64 22 24 35 26 35 3 0 -9 8 -40 17 -70 21 -68 67 -106 132 -111 62 -4 160 38
183 78 9 16 28 32 42 36 14 3 28 15 31 25 4 10 21 30 38 43 18 14 48 45 67 70
18 26 39 46 44 46 6 0 26 -29 44 -64 35 -68 63 -94 125 -112 33 -11 45 -9 110
18 45 19 100 54 145 92 81 67 202 182 202 190 0 6 24 36 72 90 l28 31 -6 -35
c-4 -19 -13 -60 -21 -90 -8 -30 -17 -66 -20 -80 -3 -14 -16 -65 -30 -115 -27
-100 -43 -285 -25 -285 29 0 63 30 127 112 100 129 139 176 190 233 24 28 63
75 86 105 22 30 54 69 70 88 29 33 38 62 19 62 -6 0 -13 -7 -16 -15 -3 -8 -31
-41 -62 -73 -32 -33 -78 -83 -104 -113 -25 -30 -63 -72 -85 -95 -21 -22 -58
-66 -83 -97 -46 -58 -70 -76 -70 -53 0 13 33 166 50 231 6 22 29 108 51 190
22 83 49 182 59 220 15 60 39 121 81 210 30 65 40 157 17 156 -5 -1 -15 -1
-23 -1 -8 0 -17 -11 -21 -25 -3 -14 -10 -25 -15 -25 -5 0 -9 -6 -9 -14 0 -8
-10 -22 -21 -30 -14 -10 -23 -28 -25 -53 -5 -51 -14 -94 -24 -118 -5 -11 -21
-49 -36 -85 -16 -36 -43 -86 -61 -111 -18 -26 -33 -49 -33 -53 0 -27 -182
-226 -285 -311 -53 -44 -151 -95 -182 -95 -39 0 -94 66 -122 144 -19 55 -24
86 -22 157 l1 89 -29 0 c-38 0 -47 -14 -57 -85 -4 -33 -8 -62 -9 -65 0 -3 -14
-32 -30 -65 -20 -40 -59 -90 -117 -147 -47 -49 -90 -88 -95 -88 -5 0 -24 -11
-43 -25 -19 -14 -45 -25 -58 -25 -52 0 -112 72 -112 134 0 30 40 115 66 141
23 23 23 114 -1 131 -34 25 -95 -23 -114 -89 -7 -23 -17 -56 -22 -74 -20 -66
-107 -128 -190 -136 -57 -5 -102 12 -151 60 -31 30 -35 39 -27 60 17 46 4 212
-19 235 -20 20 -62 -1 -78 -38 -19 -45 -19 -162 0 -230 12 -46 12 -54 -5 -88
-40 -83 -132 -176 -174 -176 -47 0 -91 66 -114 173 l-13 59 39 46 c21 26 52
67 68 92 16 25 44 63 62 84 18 22 33 47 33 56 0 9 8 24 19 34 29 27 79 139
126 286 10 30 23 71 30 90 29 82 45 169 36 194 -20 50 -75 59 -131 20z m59
-63 c14 -9 9 -78 -9 -125 -4 -11 -18 -55 -30 -96 -25 -87 -68 -195 -104 -263
-62 -115 -187 -282 -199 -266 -10 12 18 257 39 339 51 201 91 270 213 374 57
48 67 52 90 37z m-2473 -897 c30 -66 74 -173 74 -182 0 -2 -14 5 -31 15 -42
24 -89 79 -89 103 0 11 -4 20 -10 20 -11 0 -14 78 -4 104 11 30 25 16 60 -60z"/>
</g>
</svg>
