<?xml version="1.0" encoding="utf-8"?>
<!-- Generator: Adobe Illustrator 15.0.0, SVG Export Plug-In . SVG Version: 6.00 Build 0)  -->
<!DOCTYPE svg PUBLIC "-//W3C//DTD SVG 1.1//EN" "http://www.w3.org/Graphics/SVG/1.1/DTD/svg11.dtd">
<svg version="1.1" xmlns="http://www.w3.org/2000/svg" xmlns:xlink="http://www.w3.org/1999/xlink" x="0px" y="0px" width="720px"
	 height="720px" viewBox="0 0 720 720" style="enable-background:new 0 0 720 720;" xml:space="preserve">
<style type="text/css">
<![CDATA[
	.st0{fill:#FFFFFF;}
	.sprite { display: none; fill:#000000; }
        .sprite:target { display: inline; }
]]>
</style>
<g id="document" class="sprite">
	<g>
		<path d="M487.086,40.635H39.813v640h637.902V230.418L433.612,129.792L487.086,40.635z M466.2,276.686"/>
		<path d="M527.6,42.55l-39.814,67.896l192.027,86.633L527.6,42.55z M527.6,42.55"/>
	</g>
</g>
<g id="presentation" class="sprite">
	<g>
		<path d="M487.086,40.635H39.813v640h637.902V230.418L433.612,129.792L487.086,40.635z M466.2,276.686"/>
		<path d="M527.6,42.55l-39.814,67.896l192.027,86.633L527.6,42.55z M527.6,42.55"/>
	</g>
	<g>
		<g>
			<path class="st0" d="M498.679,398.98h-6.581V234.44c0-3.635-2.947-6.582-6.582-6.582H366.388v-6.582
				c0-3.635-2.947-6.581-6.582-6.581c-3.634,0-6.582,2.946-6.582,6.581v6.582H234.096c-3.635,0-6.582,2.947-6.582,6.582V398.98
				h-6.582c-3.635,0-6.582,2.947-6.582,6.582s2.947,6.582,6.582,6.582h132.292v30.282l-49.388,52.064
				c-2.5,2.639-2.391,6.804,0.247,9.304c2.635,2.504,6.804,2.395,9.304-0.244l39.837-41.996v37.468c0,3.636,2.947,6.582,6.582,6.582
				c3.635,0,6.582-2.946,6.582-6.582v-37.468l39.837,41.996c1.291,1.366,3.03,2.054,4.775,2.054c1.626,0,3.256-0.601,4.528-1.81
				c2.639-2.5,2.747-6.665,0.243-9.304l-49.384-52.064v-30.282h132.291c3.636,0,6.582-2.947,6.582-6.582
				S502.314,398.98,498.679,398.98L498.679,398.98z M240.677,241.021h238.256V398.98H240.677V241.021z M240.677,241.021"/>
		</g>
	</g>
</g>
<g id="spreadsheet" class="sprite">
	<g>
		<path d="M487.086,40.635H39.813v640h637.902V230.418L433.612,129.792L487.086,40.635z M466.2,276.686"/>
		<path d="M527.6,42.55l-39.814,67.896l192.027,86.633L527.6,42.55z M527.6,42.55"/>
	</g>
	<g>
		<path class="st0" d="M494.443,230.631H225.276c-6.003,0-10.862,4.876-10.862,10.857v238.117c0,3.681,1.85,6.922,4.663,8.903v1.709
			h3.884c0.748,0.156,1.514,0.268,2.315,0.268h269.167c0.801,0,1.567-0.111,2.314-0.268h0.534v-0.16
			c4.612-1.27,8.031-5.453,8.031-10.435V241.506C505.323,235.507,500.444,230.631,494.443,230.631L494.443,230.631z
			 M257.364,480.904h-32.889c-0.448-0.271-0.748-0.748-0.748-1.299v-28.211h33.637V480.904z M257.364,442.082h-33.637v-30.593
			h33.637V442.082z M257.364,402.177h-33.637v-32.302h33.637V402.177z M257.364,360.549h-33.637v-34.937h33.637V360.549z
			 M257.364,316.299h-33.637v-34.176h33.637V316.299z M335.785,480.904h-69.09v-29.51h69.09V480.904z M335.785,442.082h-69.09
			v-30.593h69.09V442.082z M335.785,402.177h-69.09v-32.302h69.09V402.177z M335.785,360.549h-69.09v-34.937h69.09V360.549z
			 M335.785,316.299h-69.09v-34.176h69.09V316.299z M335.785,272.814h-69.09v-32.871h69.09V272.814z M414.989,480.904h-69.874
			v-29.51h69.874V480.904z M414.989,442.082h-69.874v-30.593h69.874V442.082z M414.989,402.177h-69.874v-32.302h69.874V402.177z
			 M414.989,360.549h-69.874v-34.937h69.874V360.549z M414.989,316.299h-69.874v-34.176h69.874V316.299z M414.989,272.814h-69.874
			v-32.871h69.874V272.814z M496.011,479.605c0,0.551-0.321,1.01-0.749,1.299H424.32v-29.51h71.69V479.605z M496.011,442.082h-71.69
			v-30.593h71.69V442.082z M496.011,402.177h-71.69v-32.302h71.69V402.177z M496.011,360.549h-71.69v-34.937h71.69V360.549z
			 M496.011,316.299h-71.69v-34.176h71.69V316.299z M496.011,272.814h-71.69v-32.871h70.123c0.854,0,1.567,0.692,1.567,1.545
			V272.814z M328.855,394.898h-55.911v-19.45h55.911V394.898z M407.885,395.628h-55.914v-19.449h55.914V395.628z M488.852,395.196
			h-55.931v-19.44h55.931V395.196z M488.852,395.196"/>
	</g>
</g>
<g id="video" class="sprite">
	<g>
		<path d="M487.086,40.635H39.813v640h637.902V230.418L433.612,129.792L487.086,40.635z M466.2,276.686"/>
		<path d="M527.6,42.55l-39.814,67.896l192.027,86.633L527.6,42.55z M527.6,42.55"/>
	</g>
	<polygon class="st0" points="426.738,285.671 426.738,334.284 505.25,280.348 505.25,439.76 426.738,385.826 426.738,434.409 
		214.34,434.409 214.34,285.671 	"/>
</g>
<g id="unknown" class="sprite">
	<g>
		<path d="M487.086,40.635H39.813v640h637.902V230.418L433.612,129.792L487.086,40.635z M466.2,276.686"/>
		<path d="M527.6,42.55l-39.814,67.896l192.027,86.633L527.6,42.55z M527.6,42.55"/>
	</g>
	<g>
		<path class="st0" d="M372.099,425.37h-56.954v-5.369c0-20.581,9.459-41.354,28.381-62.324l13.615-14.958
			c18.41-20.328,27.615-38.479,27.615-54.462c0-23.779-14.958-35.668-44.874-35.668c-19.306,0-41.421,5.69-66.351,17.067v-43.339
			c25.438-7.671,50.305-11.506,74.597-11.506c30.3,0,54.237,5.819,71.816,17.451c17.576,11.635,26.368,27.489,26.368,47.558
			c0,18.41-10.548,37.587-31.642,57.53l-12.848,12.273c-12.019,11.38-19.978,20.999-23.875,28.861
			c-3.902,7.862-5.85,18.059-5.85,30.587V425.37z M315.145,505.721v-47.367h56.954v47.367H315.145z"/>
	</g>
</g>
<g id="audio" class="sprite">
	<g>
		<path d="M487.086,40.635H39.813v640h637.902V230.418L433.612,129.792L487.086,40.635z M466.2,276.686"/>
		<path d="M527.6,42.55l-39.814,67.896l192.027,86.633L527.6,42.55z M527.6,42.55"/>
	</g>
	<path class="st0" d="M390.703,276.075h-11.364v113.368c7.982,7.88,12.684,18.264,12.684,30.574c0,34.33-36.156,70.08-80.801,79.821
		c-44.645,9.74-80.801-10.147-80.801-44.477c0-34.33,36.156-70.08,80.801-79.821c24.487-5.377,46.371-1.758,61.185,8.22V276.075
		h-12.684v-64.672h32.3c96.968,0,96.968,96.968,96.968,96.968S467.818,276.075,390.703,276.075z"/>
</g>
<g id="structuredtext" class="sprite">
	<g>
		<path d="M487.086,40.635H39.813v640h637.902V230.418L433.612,129.792L487.086,40.635z"/>
		<path d="M527.6,42.55l-39.814,67.896l192.027,86.633L527.6,42.55z M527.6,42.55"/>
	</g>
	<g>
		<path class="st0" d="M301.205,403.635l-86.738-43.369l86.738-43.369v14.139l-58.313,29.157v0.147l58.313,29.156V403.635z"/>
		<path class="st0" d="M333.805,425.319l39.046-130.107h13.187l-39.046,130.107H333.805z"/>
		<path class="st0" d="M418.639,389.496l58.313-29.156v-0.147l-58.313-29.157v-14.139l86.738,43.369l-86.738,43.369V389.496z"/>
	</g>
</g>
<g id="html" class="sprite">
	<g>
		<path d="M487.086,40.635H39.813v640h637.902V230.418L433.612,129.792L487.086,40.635z"/>
		<path d="M527.6,42.55l-39.814,67.896l192.027,86.633L527.6,42.55z M527.6,42.55"/>
	</g>
	<g>
		<path class="st0" d="M226.385,390.37l-60.208-30.104l60.208-30.104v9.814l-40.478,20.239v0.101l40.478,20.24V390.37z"/>
		<path class="st0" d="M245.186,390.37v-59.69h12.422v24.239h24.683V330.68h12.421v59.69h-12.421v-27.224h-24.683v27.224H245.186z"
			/>
		<path class="st0" d="M324.437,390.37v-51.503h-21.376v-8.187h55.213v8.187h-21.375v51.503H324.437z"/>
		<path class="st0" d="M366.623,390.37v-59.69h16.454l14.357,41.984l14.802-41.984h14.438v59.69H415.22v-45.05l-14.558,41.057
			h-10.003l-14.276-41.662v45.655H366.623z"/>
		<path class="st0" d="M441.597,390.37v-59.69h12.422v51.219h26.901v8.471H441.597z"/>
		<path class="st0" d="M493.459,380.556l40.479-20.24v-0.101l-40.479-20.239v-9.814l60.208,30.104l-60.208,30.104V380.556z"/>
	</g>
</g>
<g id="multimedia" class="sprite">
	<g>
		<path d="M487.086,40.635H39.813v640h637.902V230.418L433.612,129.792L487.086,40.635z M466.2,276.686"/>
		<path d="M527.6,42.55l-39.814,67.896l192.027,86.633L527.6,42.55z M527.6,42.55"/>
	</g>
	<g>
		<path class="st0" d="M359.513,505.834c-80.292,0-145.338-65.102-145.338-145.355c0-80.503,65.047-145.583,145.338-145.583
			c80.309,0,145.571,65.081,145.571,145.583C505.084,440.732,439.974,505.834,359.513,505.834z"/>
		<g>
			<path d="M313.376,308.599c0-8.533,6.046-12.024,13.437-7.758l89.491,51.667c7.39,4.267,7.39,11.249,0,15.515l-89.491,51.666
				c-7.39,4.267-13.437,0.776-13.437-7.758V308.599z"/>
		</g>
	</g>
</g>
<g id="plaintext" class="sprite">
	<g>
		<path d="M487.086,40.635H39.813v640h637.902V230.418L433.612,129.792L487.086,40.635z M466.2,276.686"/>
		<path d="M527.6,42.55l-39.814,67.896l192.027,86.633L527.6,42.55z M527.6,42.55"/>
	</g>
	<g>
		<rect x="214.252" y="466.105" class="st0" width="290.91" height="34.871"/>
		<rect x="214.252" y="404.374" class="st0" width="290.91" height="34.872"/>
		<rect x="214.252" y="342.644" class="st0" width="290.91" height="34.872"/>
		<rect x="214.252" y="280.903" class="st0" width="290.91" height="34.875"/>
		<rect x="214.252" y="219.169" class="st0" width="290.91" height="34.872"/>
	</g>
</g>
</svg>
