<?xml version="1.0" encoding="utf-8"?>
<!-- Generator: Adobe Illustrator 15.0.0, SVG Export Plug-In . SVG Version: 6.00 Build 0)  -->
<!DOCTYPE svg PUBLIC "-//W3C//DTD SVG 1.1//EN" "http://www.w3.org/Graphics/SVG/1.1/DTD/svg11.dtd">
<svg version="1.1"
	 id="svg2" xmlns:svg="http://www.w3.org/2000/svg" xmlns:rdf="http://www.w3.org/1999/02/22-rdf-syntax-ns#" xmlns:dc="http://purl.org/dc/elements/1.1/" xmlns:cc="http://creativecommons.org/ns#"
	 xmlns="http://www.w3.org/2000/svg" xmlns:xlink="http://www.w3.org/1999/xlink" x="0px" y="0px" width="800px" height="800px"
	 viewBox="0 0 800 800" enable-background="new 0 0 800 800" xml:space="preserve">
<g id="g10" transform="matrix(1.3333333,0,0,-1.3333333,0,441.33333)">
	<g id="g12" transform="scale(0.1)">
		<path id="path14" fill="#FFFFFF" d="M105.714,1159.09l1151.195-427.727l-1.945-3080.662L105.714-1925.63V1159.09"/>
		<path id="path16" fill="#FFFFFF" d="M1303.77,1907.043c131.982-390.597-42.968-707.256-390.758-707.256
			c-347.952,0-736.926,316.659-869.07,707.256c-131.982,390.593,42.964,707.252,390.758,707.252
			C782.813,2614.295,1171.787,2297.636,1303.77,1907.043"/>
		<path id="path18" fill="#FFFFFF" d="M2721.687,1159.09L1570.492,731.363l1.945-3080.662l1149.25,423.67V1159.09"/>
		<path id="path20" fill="#FFFFFF" d="M1516.172,1907.043c-131.983-390.597,42.968-707.256,390.758-707.256
			c347.955,0,736.93,316.659,869.073,707.256c131.983,390.593-42.971,707.252-390.762,707.252
			C2037.294,2614.295,1648.155,2297.636,1516.172,1907.043"/>
		<path id="path22" fill="#FFFFFF" d="M3016.136,1159.09l1151.191-427.727l-1.941-3080.662l-1149.25,423.67V1159.09"/>
		<path id="path24" fill="#FFFFFF" d="M4221.644,1907.043c131.982-390.597-42.964-707.256-390.754-707.256
			c-347.952,0-736.926,316.659-869.07,707.256c-131.983,390.593,42.964,707.252,390.754,707.252
			C3700.687,2614.295,4089.661,2297.636,4221.644,1907.043"/>
		<path id="path26" fill="#FFFFFF" d="M5999.518,2993.217V1935.252c0,0-372.928,145.928-417.518-231.05
			c-4.05-401.294,0-545.112,0-545.112l417.518,135.872V366.547L5580.22,216.565v-2164.571l-1145.361-425.618v3826.509
			C4434.859,1452.886,4410.542,2831.077,5999.518,2993.217"/>
	</g>
</g>
</svg>
