<?xml version="1.0" standalone="no"?>
<!DOCTYPE svg PUBLIC "-//W3C//DTD SVG 20010904//EN"
 "http://www.w3.org/TR/2001/REC-SVG-20010904/DTD/svg10.dtd">
<svg version="1.0" xmlns="http://www.w3.org/2000/svg"
 width="1200.000000pt" height="128.000000pt" viewBox="0 0 1200.000000 128.000000"
 preserveAspectRatio="xMidYMid meet">
<metadata>
Created by potrace 1.16, written by Peter Selinger 2001-2019
</metadata>
<g transform="translate(0.000000,128.000000) scale(0.100000,-0.100000)"
fill="#ffffff" stroke="none">
<path d="M1107 1183 c-4 -3 -7 -17 -7 -30 0 -19 -5 -23 -30 -23 -28 0 -30 -3
-30 -35 0 -32 2 -35 30 -35 28 0 30 -3 30 -35 0 -19 -5 -35 -10 -35 -16 0 -50
-62 -50 -91 0 -15 9 -38 21 -53 17 -21 19 -29 9 -41 -17 -20 -19 -20 -170 26
-206 62 -298 57 -363 -21 -61 -72 -50 -167 38 -343 41 -81 69 -151 73 -182 l7
-50 481 -3 480 -2 12 57 c6 32 41 117 78 188 52 104 67 142 71 191 7 81 -19
142 -77 180 -35 24 -50 27 -113 26 -47 0 -102 -9 -157 -26 -205 -62 -199 -61
-217 -44 -14 15 -14 18 1 39 9 13 16 42 16 65 0 34 -6 48 -30 71 -19 18 -30
38 -30 55 0 25 3 28 36 28 34 0 35 1 32 33 -3 28 -7 32 -35 35 -29 3 -33 7
-33 33 0 25 -4 29 -28 29 -16 0 -32 -3 -35 -7z m-287 -396 c47 -13 108 -34
135 -46 l51 -22 33 -105 c38 -118 43 -193 18 -241 -37 -69 -73 -80 -119 -36
-38 37 -37 63 3 63 27 0 30 3 27 28 -3 23 -8 27 -39 30 -31 3 -38 8 -46 35 -7
27 -14 33 -41 35 -33 3 -33 3 -26 -33 l6 -36 -36 7 -37 6 3 -33 c3 -32 5 -34
45 -37 37 -3 44 -7 49 -29 9 -32 -6 -57 -36 -61 -56 -9 -223 243 -237 356 -10
86 39 141 127 142 19 0 73 -11 120 -23z m830 5 c52 -26 67 -77 45 -157 -32
-116 -144 -290 -204 -314 -45 -19 -63 -9 -59 36 3 36 5 38 43 41 43 4 55 14
55 50 0 22 -3 23 -42 17 -32 -6 -40 -4 -36 6 22 57 21 59 -16 59 -32 0 -36 -4
-44 -32 -7 -27 -14 -34 -38 -36 -57 -6 -75 -62 -19 -62 44 0 47 -25 7 -63 -35
-33 -66 -34 -97 -3 -52 52 -55 151 -10 273 14 36 25 74 25 84 0 23 46 47 155
82 133 43 181 47 235 19z"/>
<path d="M640 130 l0 -40 495 0 495 0 0 40 0 40 -495 0 -495 0 0 -40z"/>
</g>
</svg>
